M48
; DRILL file {KiCad 8.0.8} date 2025-03-12T20:49:39-0600
; FORMAT={-:-/ absolute / inch / decimal}
; #@! TF.CreationDate,2025-03-12T20:49:39-06:00
; #@! TF.GenerationSoftware,Kicad,Pcbnew,8.0.8
; #@! TF.FileFunction,Plated,1,2,PTH
FMAT,2
INCH
; #@! TA.AperFunction,Plated,PTH,ComponentDrill
T1C0.0343
; #@! TA.AperFunction,Plated,PTH,ComponentDrill
T2C0.0354
; #@! TA.AperFunction,Plated,PTH,ComponentDrill
T3C0.0394
; #@! TA.AperFunction,Plated,PTH,ComponentDrill
T4C0.0400
; #@! TA.AperFunction,Plated,PTH,ComponentDrill
T5C0.0472
; #@! TA.AperFunction,Plated,PTH,ComponentDrill
T6C0.0866
; #@! TA.AperFunction,Plated,PTH,ComponentDrill
T7C0.0984
%
G90
G05
T1
X5.6587Y-3.6614
X5.7087Y-3.6614
X5.7587Y-3.6614
T2
X5.4134Y-2.8045
X5.4134Y-2.9045
X5.4134Y-3.1087
X5.4134Y-3.2087
X5.7087Y-2.8045
X5.7087Y-2.9045
X5.7087Y-3.1102
X5.7087Y-3.2102
X6.0236Y-2.8045
X6.0236Y-2.9045
X6.0236Y-3.1087
X6.0236Y-3.2087
T3
X4.677Y-1.937
X4.777Y-1.937
X4.877Y-1.937
X4.977Y-1.937
X4.9994Y-2.1803
X4.9994Y-2.2803
X4.9994Y-2.3803
X4.9994Y-2.4803
X4.9994Y-2.5803
X4.9994Y-2.6803
X4.9994Y-2.7803
X5.0335Y-2.9768
X5.0335Y-3.0768
X5.0335Y-3.1768
X5.0335Y-3.2768
X5.0335Y-3.3768
X5.0335Y-3.4768
X5.0335Y-3.5768
X5.0335Y-3.6768
X5.037Y-3.837
X5.077Y-1.937
X5.137Y-3.837
X5.177Y-1.937
X5.237Y-3.837
X5.277Y-1.937
X5.337Y-3.837
X5.377Y-1.937
X5.437Y-3.837
X5.477Y-1.937
X5.537Y-3.837
X5.577Y-1.937
X5.637Y-3.837
X5.737Y-1.937
X5.737Y-3.837
X5.837Y-1.937
X5.937Y-1.937
X5.937Y-3.837
X6.037Y-1.937
X6.037Y-3.837
X6.137Y-1.937
X6.137Y-3.837
X6.237Y-1.937
X6.237Y-3.837
X6.337Y-1.937
X6.337Y-3.837
X6.437Y-1.937
X6.437Y-3.837
T4
X6.3089Y-2.7815
X6.3089Y-2.8815
X6.3089Y-2.9815
X6.3089Y-3.0815
X6.3089Y-3.1815
X6.3089Y-3.2815
T5
X5.2362Y-2.1319
X5.2362Y-2.6319
X5.4331Y-2.1181
X5.4331Y-2.6181
X5.6299Y-2.126
X5.6299Y-2.626
X5.8268Y-2.126
X5.8268Y-2.626
X6.0236Y-2.126
X6.0236Y-2.626
X6.2205Y-2.1319
X6.2205Y-2.6319
T6
X4.4494Y-2.2303
X4.4494Y-2.7303
T7
X4.5335Y-3.0268
X4.5335Y-3.6268
M30
