%TF.GenerationSoftware,KiCad,Pcbnew,8.0.8*%
%TF.CreationDate,2025-03-12T20:50:06-06:00*%
%TF.ProjectId,UnoShieldFinalProject,556e6f53-6869-4656-9c64-46696e616c50,rev?*%
%TF.SameCoordinates,Original*%
%TF.FileFunction,Soldermask,Top*%
%TF.FilePolarity,Negative*%
%FSLAX46Y46*%
G04 Gerber Fmt 4.6, Leading zero omitted, Abs format (unit mm)*
G04 Created by KiCad (PCBNEW 8.0.8) date 2025-03-12 20:50:06*
%MOMM*%
%LPD*%
G01*
G04 APERTURE LIST*
G04 Aperture macros list*
%AMRoundRect*
0 Rectangle with rounded corners*
0 $1 Rounding radius*
0 $2 $3 $4 $5 $6 $7 $8 $9 X,Y pos of 4 corners*
0 Add a 4 corners polygon primitive as box body*
4,1,4,$2,$3,$4,$5,$6,$7,$8,$9,$2,$3,0*
0 Add four circle primitives for the rounded corners*
1,1,$1+$1,$2,$3*
1,1,$1+$1,$4,$5*
1,1,$1+$1,$6,$7*
1,1,$1+$1,$8,$9*
0 Add four rect primitives between the rounded corners*
20,1,$1+$1,$2,$3,$4,$5,0*
20,1,$1+$1,$4,$5,$6,$7,0*
20,1,$1+$1,$6,$7,$8,$9,0*
20,1,$1+$1,$8,$9,$2,$3,0*%
G04 Aperture macros list end*
%ADD10R,1.700000X1.700000*%
%ADD11O,1.700000X1.700000*%
%ADD12O,1.304000X2.404000*%
%ADD13R,1.800000X1.800000*%
%ADD14C,1.800000*%
%ADD15RoundRect,0.102000X-0.939800X0.939800X-0.939800X-0.939800X0.939800X-0.939800X0.939800X0.939800X0*%
%ADD16C,2.083600*%
%ADD17C,2.400000*%
%ADD18O,2.400000X2.400000*%
%ADD19C,3.200000*%
%ADD20RoundRect,0.102000X0.754000X-0.754000X0.754000X0.754000X-0.754000X0.754000X-0.754000X-0.754000X0*%
%ADD21C,1.712000*%
%ADD22C,3.420000*%
%ADD23C,3.720000*%
G04 APERTURE END LIST*
D10*
%TO.C,J1*%
X127940000Y-97460000D03*
D11*
X130480000Y-97460000D03*
X133020000Y-97460000D03*
X135560000Y-97460000D03*
X138100000Y-97460000D03*
X140640000Y-97460000D03*
X143180000Y-97460000D03*
X145720000Y-97460000D03*
%TD*%
D10*
%TO.C,J3*%
X150800000Y-97460000D03*
D11*
X153340000Y-97460000D03*
X155880000Y-97460000D03*
X158420000Y-97460000D03*
X160960000Y-97460000D03*
X163500000Y-97460000D03*
%TD*%
D10*
%TO.C,J2*%
X118796000Y-49200000D03*
D11*
X121336000Y-49200000D03*
X123876000Y-49200000D03*
X126416000Y-49200000D03*
X128956000Y-49200000D03*
X131496000Y-49200000D03*
X134036000Y-49200000D03*
X136576000Y-49200000D03*
X139116000Y-49200000D03*
X141656000Y-49200000D03*
%TD*%
D10*
%TO.C,J4*%
X145720000Y-49200000D03*
D11*
X148260000Y-49200000D03*
X150800000Y-49200000D03*
X153340000Y-49200000D03*
X155880000Y-49200000D03*
X158420000Y-49200000D03*
X160960000Y-49200000D03*
X163500000Y-49200000D03*
%TD*%
D12*
%TO.C,U2*%
X143730000Y-93000000D03*
X145000000Y-93000000D03*
X146270000Y-93000000D03*
%TD*%
D13*
%TO.C,D4*%
X145000000Y-81540000D03*
D14*
X145000000Y-79000000D03*
%TD*%
D15*
%TO.C,U1*%
X160245000Y-83350000D03*
D16*
X160245000Y-80810000D03*
X160245000Y-78270000D03*
X160245000Y-75730000D03*
X160245000Y-73190000D03*
X160245000Y-70650000D03*
%TD*%
D17*
%TO.C,R3*%
X148000000Y-66700000D03*
D18*
X148000000Y-54000000D03*
%TD*%
D13*
%TO.C,D2*%
X153000000Y-81500000D03*
D14*
X153000000Y-78960000D03*
%TD*%
D17*
%TO.C,R2*%
X153000000Y-66700000D03*
D18*
X153000000Y-54000000D03*
%TD*%
D19*
%TO.C,MH1*%
X115240000Y-49200000D03*
%TD*%
D17*
%TO.C,R4*%
X143000000Y-66700000D03*
D18*
X143000000Y-54000000D03*
%TD*%
D17*
%TO.C,R5*%
X138000000Y-66500000D03*
D18*
X138000000Y-53800000D03*
%TD*%
D20*
%TO.C,U3*%
X126985000Y-70620000D03*
D21*
X126985000Y-68080000D03*
X126985000Y-65540000D03*
X126985000Y-63000000D03*
X126985000Y-60460000D03*
X126985000Y-57920000D03*
X126985000Y-55380000D03*
D22*
X113015000Y-69350000D03*
X113015000Y-56650000D03*
%TD*%
D20*
%TO.C,U4*%
X127850000Y-75610000D03*
D21*
X127850000Y-78150000D03*
X127850000Y-80690000D03*
X127850000Y-83230000D03*
X127850000Y-85770000D03*
X127850000Y-88310000D03*
X127850000Y-90850000D03*
X127850000Y-93390000D03*
D23*
X115150000Y-92120000D03*
X115150000Y-76880000D03*
%TD*%
D13*
%TO.C,D6*%
X137500000Y-81500000D03*
D14*
X137500000Y-78960000D03*
%TD*%
D17*
%TO.C,R1*%
X158000000Y-66850000D03*
D18*
X158000000Y-54150000D03*
%TD*%
D13*
%TO.C,D3*%
X145000000Y-73775000D03*
D14*
X145000000Y-71235000D03*
%TD*%
D13*
%TO.C,D1*%
X153000000Y-73775000D03*
D14*
X153000000Y-71235000D03*
%TD*%
D19*
%TO.C,MH2*%
X113970000Y-97460000D03*
%TD*%
%TO.C,MH3*%
X166040000Y-64440000D03*
%TD*%
%TO.C,MH4*%
X166040000Y-92380000D03*
%TD*%
D13*
%TO.C,D5*%
X137500000Y-73775000D03*
D14*
X137500000Y-71235000D03*
%TD*%
D17*
%TO.C,R6*%
X133000000Y-66850000D03*
D18*
X133000000Y-54150000D03*
%TD*%
M02*
