%TF.GenerationSoftware,KiCad,Pcbnew,8.0.8*%
%TF.CreationDate,2025-03-12T20:50:06-06:00*%
%TF.ProjectId,UnoShieldFinalProject,556e6f53-6869-4656-9c64-46696e616c50,rev?*%
%TF.SameCoordinates,Original*%
%TF.FileFunction,Legend,Top*%
%TF.FilePolarity,Positive*%
%FSLAX46Y46*%
G04 Gerber Fmt 4.6, Leading zero omitted, Abs format (unit mm)*
G04 Created by KiCad (PCBNEW 8.0.8) date 2025-03-12 20:50:06*
%MOMM*%
%LPD*%
G01*
G04 APERTURE LIST*
%ADD10C,0.150000*%
%ADD11C,0.120000*%
%ADD12C,0.127000*%
%ADD13C,0.300000*%
%ADD14C,0.200000*%
G04 APERTURE END LIST*
D10*
X101336779Y-49626121D02*
X101670112Y-49626121D01*
X101812969Y-50149931D02*
X101336779Y-50149931D01*
X101336779Y-50149931D02*
X101336779Y-49149931D01*
X101336779Y-49149931D02*
X101812969Y-49149931D01*
X102384398Y-50149931D02*
X102289160Y-50102312D01*
X102289160Y-50102312D02*
X102241541Y-50007073D01*
X102241541Y-50007073D02*
X102241541Y-49149931D01*
X102765351Y-50149931D02*
X102765351Y-49483264D01*
X102765351Y-49149931D02*
X102717732Y-49197550D01*
X102717732Y-49197550D02*
X102765351Y-49245169D01*
X102765351Y-49245169D02*
X102812970Y-49197550D01*
X102812970Y-49197550D02*
X102765351Y-49149931D01*
X102765351Y-49149931D02*
X102765351Y-49245169D01*
X104479636Y-50149931D02*
X104003446Y-50149931D01*
X104003446Y-50149931D02*
X104003446Y-49149931D01*
X105193922Y-50102312D02*
X105098684Y-50149931D01*
X105098684Y-50149931D02*
X104908208Y-50149931D01*
X104908208Y-50149931D02*
X104812970Y-50102312D01*
X104812970Y-50102312D02*
X104765351Y-50007073D01*
X104765351Y-50007073D02*
X104765351Y-49626121D01*
X104765351Y-49626121D02*
X104812970Y-49530883D01*
X104812970Y-49530883D02*
X104908208Y-49483264D01*
X104908208Y-49483264D02*
X105098684Y-49483264D01*
X105098684Y-49483264D02*
X105193922Y-49530883D01*
X105193922Y-49530883D02*
X105241541Y-49626121D01*
X105241541Y-49626121D02*
X105241541Y-49721359D01*
X105241541Y-49721359D02*
X104765351Y-49816597D01*
X105622494Y-50102312D02*
X105717732Y-50149931D01*
X105717732Y-50149931D02*
X105908208Y-50149931D01*
X105908208Y-50149931D02*
X106003446Y-50102312D01*
X106003446Y-50102312D02*
X106051065Y-50007073D01*
X106051065Y-50007073D02*
X106051065Y-49959454D01*
X106051065Y-49959454D02*
X106003446Y-49864216D01*
X106003446Y-49864216D02*
X105908208Y-49816597D01*
X105908208Y-49816597D02*
X105765351Y-49816597D01*
X105765351Y-49816597D02*
X105670113Y-49768978D01*
X105670113Y-49768978D02*
X105622494Y-49673740D01*
X105622494Y-49673740D02*
X105622494Y-49626121D01*
X105622494Y-49626121D02*
X105670113Y-49530883D01*
X105670113Y-49530883D02*
X105765351Y-49483264D01*
X105765351Y-49483264D02*
X105908208Y-49483264D01*
X105908208Y-49483264D02*
X106003446Y-49530883D01*
X106479637Y-50149931D02*
X106479637Y-49149931D01*
X106908208Y-50149931D02*
X106908208Y-49626121D01*
X106908208Y-49626121D02*
X106860589Y-49530883D01*
X106860589Y-49530883D02*
X106765351Y-49483264D01*
X106765351Y-49483264D02*
X106622494Y-49483264D01*
X106622494Y-49483264D02*
X106527256Y-49530883D01*
X106527256Y-49530883D02*
X106479637Y-49578502D01*
X107241542Y-49483264D02*
X107622494Y-49483264D01*
X107384399Y-49149931D02*
X107384399Y-50007073D01*
X107384399Y-50007073D02*
X107432018Y-50102312D01*
X107432018Y-50102312D02*
X107527256Y-50149931D01*
X107527256Y-50149931D02*
X107622494Y-50149931D01*
X107860590Y-49483264D02*
X108384399Y-49483264D01*
X108384399Y-49483264D02*
X107860590Y-50149931D01*
X107860590Y-50149931D02*
X108384399Y-50149931D01*
X101336779Y-51759875D02*
X101336779Y-50759875D01*
X101336779Y-50759875D02*
X101670112Y-51474160D01*
X101670112Y-51474160D02*
X102003445Y-50759875D01*
X102003445Y-50759875D02*
X102003445Y-51759875D01*
X102479636Y-51759875D02*
X102479636Y-51093208D01*
X102479636Y-50759875D02*
X102432017Y-50807494D01*
X102432017Y-50807494D02*
X102479636Y-50855113D01*
X102479636Y-50855113D02*
X102527255Y-50807494D01*
X102527255Y-50807494D02*
X102479636Y-50759875D01*
X102479636Y-50759875D02*
X102479636Y-50855113D01*
X103384397Y-51712256D02*
X103289159Y-51759875D01*
X103289159Y-51759875D02*
X103098683Y-51759875D01*
X103098683Y-51759875D02*
X103003445Y-51712256D01*
X103003445Y-51712256D02*
X102955826Y-51664636D01*
X102955826Y-51664636D02*
X102908207Y-51569398D01*
X102908207Y-51569398D02*
X102908207Y-51283684D01*
X102908207Y-51283684D02*
X102955826Y-51188446D01*
X102955826Y-51188446D02*
X103003445Y-51140827D01*
X103003445Y-51140827D02*
X103098683Y-51093208D01*
X103098683Y-51093208D02*
X103289159Y-51093208D01*
X103289159Y-51093208D02*
X103384397Y-51140827D01*
X103812969Y-51759875D02*
X103812969Y-51093208D01*
X103812969Y-51283684D02*
X103860588Y-51188446D01*
X103860588Y-51188446D02*
X103908207Y-51140827D01*
X103908207Y-51140827D02*
X104003445Y-51093208D01*
X104003445Y-51093208D02*
X104098683Y-51093208D01*
X104574874Y-51759875D02*
X104479636Y-51712256D01*
X104479636Y-51712256D02*
X104432017Y-51664636D01*
X104432017Y-51664636D02*
X104384398Y-51569398D01*
X104384398Y-51569398D02*
X104384398Y-51283684D01*
X104384398Y-51283684D02*
X104432017Y-51188446D01*
X104432017Y-51188446D02*
X104479636Y-51140827D01*
X104479636Y-51140827D02*
X104574874Y-51093208D01*
X104574874Y-51093208D02*
X104717731Y-51093208D01*
X104717731Y-51093208D02*
X104812969Y-51140827D01*
X104812969Y-51140827D02*
X104860588Y-51188446D01*
X104860588Y-51188446D02*
X104908207Y-51283684D01*
X104908207Y-51283684D02*
X104908207Y-51569398D01*
X104908207Y-51569398D02*
X104860588Y-51664636D01*
X104860588Y-51664636D02*
X104812969Y-51712256D01*
X104812969Y-51712256D02*
X104717731Y-51759875D01*
X104717731Y-51759875D02*
X104574874Y-51759875D01*
X105336779Y-51759875D02*
X105336779Y-50759875D01*
X105336779Y-50759875D02*
X105717731Y-50759875D01*
X105717731Y-50759875D02*
X105812969Y-50807494D01*
X105812969Y-50807494D02*
X105860588Y-50855113D01*
X105860588Y-50855113D02*
X105908207Y-50950351D01*
X105908207Y-50950351D02*
X105908207Y-51093208D01*
X105908207Y-51093208D02*
X105860588Y-51188446D01*
X105860588Y-51188446D02*
X105812969Y-51236065D01*
X105812969Y-51236065D02*
X105717731Y-51283684D01*
X105717731Y-51283684D02*
X105336779Y-51283684D01*
X106336779Y-51759875D02*
X106336779Y-51093208D01*
X106336779Y-51283684D02*
X106384398Y-51188446D01*
X106384398Y-51188446D02*
X106432017Y-51140827D01*
X106432017Y-51140827D02*
X106527255Y-51093208D01*
X106527255Y-51093208D02*
X106622493Y-51093208D01*
X107098684Y-51759875D02*
X107003446Y-51712256D01*
X107003446Y-51712256D02*
X106955827Y-51664636D01*
X106955827Y-51664636D02*
X106908208Y-51569398D01*
X106908208Y-51569398D02*
X106908208Y-51283684D01*
X106908208Y-51283684D02*
X106955827Y-51188446D01*
X106955827Y-51188446D02*
X107003446Y-51140827D01*
X107003446Y-51140827D02*
X107098684Y-51093208D01*
X107098684Y-51093208D02*
X107241541Y-51093208D01*
X107241541Y-51093208D02*
X107336779Y-51140827D01*
X107336779Y-51140827D02*
X107384398Y-51188446D01*
X107384398Y-51188446D02*
X107432017Y-51283684D01*
X107432017Y-51283684D02*
X107432017Y-51569398D01*
X107432017Y-51569398D02*
X107384398Y-51664636D01*
X107384398Y-51664636D02*
X107336779Y-51712256D01*
X107336779Y-51712256D02*
X107241541Y-51759875D01*
X107241541Y-51759875D02*
X107098684Y-51759875D01*
X108289160Y-51712256D02*
X108193922Y-51759875D01*
X108193922Y-51759875D02*
X108003446Y-51759875D01*
X108003446Y-51759875D02*
X107908208Y-51712256D01*
X107908208Y-51712256D02*
X107860589Y-51664636D01*
X107860589Y-51664636D02*
X107812970Y-51569398D01*
X107812970Y-51569398D02*
X107812970Y-51283684D01*
X107812970Y-51283684D02*
X107860589Y-51188446D01*
X107860589Y-51188446D02*
X107908208Y-51140827D01*
X107908208Y-51140827D02*
X108003446Y-51093208D01*
X108003446Y-51093208D02*
X108193922Y-51093208D01*
X108193922Y-51093208D02*
X108289160Y-51140827D01*
X109098684Y-51712256D02*
X109003446Y-51759875D01*
X109003446Y-51759875D02*
X108812970Y-51759875D01*
X108812970Y-51759875D02*
X108717732Y-51712256D01*
X108717732Y-51712256D02*
X108670113Y-51617017D01*
X108670113Y-51617017D02*
X108670113Y-51236065D01*
X108670113Y-51236065D02*
X108717732Y-51140827D01*
X108717732Y-51140827D02*
X108812970Y-51093208D01*
X108812970Y-51093208D02*
X109003446Y-51093208D01*
X109003446Y-51093208D02*
X109098684Y-51140827D01*
X109098684Y-51140827D02*
X109146303Y-51236065D01*
X109146303Y-51236065D02*
X109146303Y-51331303D01*
X109146303Y-51331303D02*
X108670113Y-51426541D01*
X109527256Y-51712256D02*
X109622494Y-51759875D01*
X109622494Y-51759875D02*
X109812970Y-51759875D01*
X109812970Y-51759875D02*
X109908208Y-51712256D01*
X109908208Y-51712256D02*
X109955827Y-51617017D01*
X109955827Y-51617017D02*
X109955827Y-51569398D01*
X109955827Y-51569398D02*
X109908208Y-51474160D01*
X109908208Y-51474160D02*
X109812970Y-51426541D01*
X109812970Y-51426541D02*
X109670113Y-51426541D01*
X109670113Y-51426541D02*
X109574875Y-51378922D01*
X109574875Y-51378922D02*
X109527256Y-51283684D01*
X109527256Y-51283684D02*
X109527256Y-51236065D01*
X109527256Y-51236065D02*
X109574875Y-51140827D01*
X109574875Y-51140827D02*
X109670113Y-51093208D01*
X109670113Y-51093208D02*
X109812970Y-51093208D01*
X109812970Y-51093208D02*
X109908208Y-51140827D01*
X110336780Y-51712256D02*
X110432018Y-51759875D01*
X110432018Y-51759875D02*
X110622494Y-51759875D01*
X110622494Y-51759875D02*
X110717732Y-51712256D01*
X110717732Y-51712256D02*
X110765351Y-51617017D01*
X110765351Y-51617017D02*
X110765351Y-51569398D01*
X110765351Y-51569398D02*
X110717732Y-51474160D01*
X110717732Y-51474160D02*
X110622494Y-51426541D01*
X110622494Y-51426541D02*
X110479637Y-51426541D01*
X110479637Y-51426541D02*
X110384399Y-51378922D01*
X110384399Y-51378922D02*
X110336780Y-51283684D01*
X110336780Y-51283684D02*
X110336780Y-51236065D01*
X110336780Y-51236065D02*
X110384399Y-51140827D01*
X110384399Y-51140827D02*
X110479637Y-51093208D01*
X110479637Y-51093208D02*
X110622494Y-51093208D01*
X110622494Y-51093208D02*
X110717732Y-51140827D01*
X111336780Y-51759875D02*
X111241542Y-51712256D01*
X111241542Y-51712256D02*
X111193923Y-51664636D01*
X111193923Y-51664636D02*
X111146304Y-51569398D01*
X111146304Y-51569398D02*
X111146304Y-51283684D01*
X111146304Y-51283684D02*
X111193923Y-51188446D01*
X111193923Y-51188446D02*
X111241542Y-51140827D01*
X111241542Y-51140827D02*
X111336780Y-51093208D01*
X111336780Y-51093208D02*
X111479637Y-51093208D01*
X111479637Y-51093208D02*
X111574875Y-51140827D01*
X111574875Y-51140827D02*
X111622494Y-51188446D01*
X111622494Y-51188446D02*
X111670113Y-51283684D01*
X111670113Y-51283684D02*
X111670113Y-51569398D01*
X111670113Y-51569398D02*
X111622494Y-51664636D01*
X111622494Y-51664636D02*
X111574875Y-51712256D01*
X111574875Y-51712256D02*
X111479637Y-51759875D01*
X111479637Y-51759875D02*
X111336780Y-51759875D01*
X112098685Y-51759875D02*
X112098685Y-51093208D01*
X112098685Y-51283684D02*
X112146304Y-51188446D01*
X112146304Y-51188446D02*
X112193923Y-51140827D01*
X112193923Y-51140827D02*
X112289161Y-51093208D01*
X112289161Y-51093208D02*
X112384399Y-51093208D01*
X112670114Y-51712256D02*
X112765352Y-51759875D01*
X112765352Y-51759875D02*
X112955828Y-51759875D01*
X112955828Y-51759875D02*
X113051066Y-51712256D01*
X113051066Y-51712256D02*
X113098685Y-51617017D01*
X113098685Y-51617017D02*
X113098685Y-51569398D01*
X113098685Y-51569398D02*
X113051066Y-51474160D01*
X113051066Y-51474160D02*
X112955828Y-51426541D01*
X112955828Y-51426541D02*
X112812971Y-51426541D01*
X112812971Y-51426541D02*
X112717733Y-51378922D01*
X112717733Y-51378922D02*
X112670114Y-51283684D01*
X112670114Y-51283684D02*
X112670114Y-51236065D01*
X112670114Y-51236065D02*
X112717733Y-51140827D01*
X112717733Y-51140827D02*
X112812971Y-51093208D01*
X112812971Y-51093208D02*
X112955828Y-51093208D01*
X112955828Y-51093208D02*
X113051066Y-51140827D01*
X101670112Y-52846009D02*
X101336779Y-52846009D01*
X101336779Y-53369819D02*
X101336779Y-52369819D01*
X101336779Y-52369819D02*
X101812969Y-52369819D01*
X102193922Y-53369819D02*
X102193922Y-52703152D01*
X102193922Y-52369819D02*
X102146303Y-52417438D01*
X102146303Y-52417438D02*
X102193922Y-52465057D01*
X102193922Y-52465057D02*
X102241541Y-52417438D01*
X102241541Y-52417438D02*
X102193922Y-52369819D01*
X102193922Y-52369819D02*
X102193922Y-52465057D01*
X102670112Y-52703152D02*
X102670112Y-53369819D01*
X102670112Y-52798390D02*
X102717731Y-52750771D01*
X102717731Y-52750771D02*
X102812969Y-52703152D01*
X102812969Y-52703152D02*
X102955826Y-52703152D01*
X102955826Y-52703152D02*
X103051064Y-52750771D01*
X103051064Y-52750771D02*
X103098683Y-52846009D01*
X103098683Y-52846009D02*
X103098683Y-53369819D01*
X104003445Y-53369819D02*
X104003445Y-52846009D01*
X104003445Y-52846009D02*
X103955826Y-52750771D01*
X103955826Y-52750771D02*
X103860588Y-52703152D01*
X103860588Y-52703152D02*
X103670112Y-52703152D01*
X103670112Y-52703152D02*
X103574874Y-52750771D01*
X104003445Y-53322200D02*
X103908207Y-53369819D01*
X103908207Y-53369819D02*
X103670112Y-53369819D01*
X103670112Y-53369819D02*
X103574874Y-53322200D01*
X103574874Y-53322200D02*
X103527255Y-53226961D01*
X103527255Y-53226961D02*
X103527255Y-53131723D01*
X103527255Y-53131723D02*
X103574874Y-53036485D01*
X103574874Y-53036485D02*
X103670112Y-52988866D01*
X103670112Y-52988866D02*
X103908207Y-52988866D01*
X103908207Y-52988866D02*
X104003445Y-52941247D01*
X104622493Y-53369819D02*
X104527255Y-53322200D01*
X104527255Y-53322200D02*
X104479636Y-53226961D01*
X104479636Y-53226961D02*
X104479636Y-52369819D01*
X105765351Y-53369819D02*
X105765351Y-52369819D01*
X105765351Y-52369819D02*
X106146303Y-52369819D01*
X106146303Y-52369819D02*
X106241541Y-52417438D01*
X106241541Y-52417438D02*
X106289160Y-52465057D01*
X106289160Y-52465057D02*
X106336779Y-52560295D01*
X106336779Y-52560295D02*
X106336779Y-52703152D01*
X106336779Y-52703152D02*
X106289160Y-52798390D01*
X106289160Y-52798390D02*
X106241541Y-52846009D01*
X106241541Y-52846009D02*
X106146303Y-52893628D01*
X106146303Y-52893628D02*
X105765351Y-52893628D01*
X106765351Y-53369819D02*
X106765351Y-52703152D01*
X106765351Y-52893628D02*
X106812970Y-52798390D01*
X106812970Y-52798390D02*
X106860589Y-52750771D01*
X106860589Y-52750771D02*
X106955827Y-52703152D01*
X106955827Y-52703152D02*
X107051065Y-52703152D01*
X107527256Y-53369819D02*
X107432018Y-53322200D01*
X107432018Y-53322200D02*
X107384399Y-53274580D01*
X107384399Y-53274580D02*
X107336780Y-53179342D01*
X107336780Y-53179342D02*
X107336780Y-52893628D01*
X107336780Y-52893628D02*
X107384399Y-52798390D01*
X107384399Y-52798390D02*
X107432018Y-52750771D01*
X107432018Y-52750771D02*
X107527256Y-52703152D01*
X107527256Y-52703152D02*
X107670113Y-52703152D01*
X107670113Y-52703152D02*
X107765351Y-52750771D01*
X107765351Y-52750771D02*
X107812970Y-52798390D01*
X107812970Y-52798390D02*
X107860589Y-52893628D01*
X107860589Y-52893628D02*
X107860589Y-53179342D01*
X107860589Y-53179342D02*
X107812970Y-53274580D01*
X107812970Y-53274580D02*
X107765351Y-53322200D01*
X107765351Y-53322200D02*
X107670113Y-53369819D01*
X107670113Y-53369819D02*
X107527256Y-53369819D01*
X108289161Y-52703152D02*
X108289161Y-53560295D01*
X108289161Y-53560295D02*
X108241542Y-53655533D01*
X108241542Y-53655533D02*
X108146304Y-53703152D01*
X108146304Y-53703152D02*
X108098685Y-53703152D01*
X108289161Y-52369819D02*
X108241542Y-52417438D01*
X108241542Y-52417438D02*
X108289161Y-52465057D01*
X108289161Y-52465057D02*
X108336780Y-52417438D01*
X108336780Y-52417438D02*
X108289161Y-52369819D01*
X108289161Y-52369819D02*
X108289161Y-52465057D01*
X109146303Y-53322200D02*
X109051065Y-53369819D01*
X109051065Y-53369819D02*
X108860589Y-53369819D01*
X108860589Y-53369819D02*
X108765351Y-53322200D01*
X108765351Y-53322200D02*
X108717732Y-53226961D01*
X108717732Y-53226961D02*
X108717732Y-52846009D01*
X108717732Y-52846009D02*
X108765351Y-52750771D01*
X108765351Y-52750771D02*
X108860589Y-52703152D01*
X108860589Y-52703152D02*
X109051065Y-52703152D01*
X109051065Y-52703152D02*
X109146303Y-52750771D01*
X109146303Y-52750771D02*
X109193922Y-52846009D01*
X109193922Y-52846009D02*
X109193922Y-52941247D01*
X109193922Y-52941247D02*
X108717732Y-53036485D01*
X110051065Y-53322200D02*
X109955827Y-53369819D01*
X109955827Y-53369819D02*
X109765351Y-53369819D01*
X109765351Y-53369819D02*
X109670113Y-53322200D01*
X109670113Y-53322200D02*
X109622494Y-53274580D01*
X109622494Y-53274580D02*
X109574875Y-53179342D01*
X109574875Y-53179342D02*
X109574875Y-52893628D01*
X109574875Y-52893628D02*
X109622494Y-52798390D01*
X109622494Y-52798390D02*
X109670113Y-52750771D01*
X109670113Y-52750771D02*
X109765351Y-52703152D01*
X109765351Y-52703152D02*
X109955827Y-52703152D01*
X109955827Y-52703152D02*
X110051065Y-52750771D01*
X110336780Y-52703152D02*
X110717732Y-52703152D01*
X110479637Y-52369819D02*
X110479637Y-53226961D01*
X110479637Y-53226961D02*
X110527256Y-53322200D01*
X110527256Y-53322200D02*
X110622494Y-53369819D01*
X110622494Y-53369819D02*
X110717732Y-53369819D01*
X144873095Y-88499819D02*
X144873095Y-89309342D01*
X144873095Y-89309342D02*
X144920714Y-89404580D01*
X144920714Y-89404580D02*
X144968333Y-89452200D01*
X144968333Y-89452200D02*
X145063571Y-89499819D01*
X145063571Y-89499819D02*
X145254047Y-89499819D01*
X145254047Y-89499819D02*
X145349285Y-89452200D01*
X145349285Y-89452200D02*
X145396904Y-89404580D01*
X145396904Y-89404580D02*
X145444523Y-89309342D01*
X145444523Y-89309342D02*
X145444523Y-88499819D01*
X145873095Y-88595057D02*
X145920714Y-88547438D01*
X145920714Y-88547438D02*
X146015952Y-88499819D01*
X146015952Y-88499819D02*
X146254047Y-88499819D01*
X146254047Y-88499819D02*
X146349285Y-88547438D01*
X146349285Y-88547438D02*
X146396904Y-88595057D01*
X146396904Y-88595057D02*
X146444523Y-88690295D01*
X146444523Y-88690295D02*
X146444523Y-88785533D01*
X146444523Y-88785533D02*
X146396904Y-88928390D01*
X146396904Y-88928390D02*
X145825476Y-89499819D01*
X145825476Y-89499819D02*
X146444523Y-89499819D01*
X141494819Y-81008094D02*
X140494819Y-81008094D01*
X140494819Y-81008094D02*
X140494819Y-80769999D01*
X140494819Y-80769999D02*
X140542438Y-80627142D01*
X140542438Y-80627142D02*
X140637676Y-80531904D01*
X140637676Y-80531904D02*
X140732914Y-80484285D01*
X140732914Y-80484285D02*
X140923390Y-80436666D01*
X140923390Y-80436666D02*
X141066247Y-80436666D01*
X141066247Y-80436666D02*
X141256723Y-80484285D01*
X141256723Y-80484285D02*
X141351961Y-80531904D01*
X141351961Y-80531904D02*
X141447200Y-80627142D01*
X141447200Y-80627142D02*
X141494819Y-80769999D01*
X141494819Y-80769999D02*
X141494819Y-81008094D01*
X140828152Y-79579523D02*
X141494819Y-79579523D01*
X140447200Y-79817618D02*
X141161485Y-80055713D01*
X141161485Y-80055713D02*
X141161485Y-79436666D01*
X179364819Y-73066904D02*
X180174342Y-73066904D01*
X180174342Y-73066904D02*
X180269580Y-73019285D01*
X180269580Y-73019285D02*
X180317200Y-72971666D01*
X180317200Y-72971666D02*
X180364819Y-72876428D01*
X180364819Y-72876428D02*
X180364819Y-72685952D01*
X180364819Y-72685952D02*
X180317200Y-72590714D01*
X180317200Y-72590714D02*
X180269580Y-72543095D01*
X180269580Y-72543095D02*
X180174342Y-72495476D01*
X180174342Y-72495476D02*
X179364819Y-72495476D01*
X180364819Y-71495476D02*
X180364819Y-72066904D01*
X180364819Y-71781190D02*
X179364819Y-71781190D01*
X179364819Y-71781190D02*
X179507676Y-71876428D01*
X179507676Y-71876428D02*
X179602914Y-71971666D01*
X179602914Y-71971666D02*
X179650533Y-72066904D01*
X145534819Y-60516666D02*
X145058628Y-60849999D01*
X145534819Y-61088094D02*
X144534819Y-61088094D01*
X144534819Y-61088094D02*
X144534819Y-60707142D01*
X144534819Y-60707142D02*
X144582438Y-60611904D01*
X144582438Y-60611904D02*
X144630057Y-60564285D01*
X144630057Y-60564285D02*
X144725295Y-60516666D01*
X144725295Y-60516666D02*
X144868152Y-60516666D01*
X144868152Y-60516666D02*
X144963390Y-60564285D01*
X144963390Y-60564285D02*
X145011009Y-60611904D01*
X145011009Y-60611904D02*
X145058628Y-60707142D01*
X145058628Y-60707142D02*
X145058628Y-61088094D01*
X144534819Y-60183332D02*
X144534819Y-59564285D01*
X144534819Y-59564285D02*
X144915771Y-59897618D01*
X144915771Y-59897618D02*
X144915771Y-59754761D01*
X144915771Y-59754761D02*
X144963390Y-59659523D01*
X144963390Y-59659523D02*
X145011009Y-59611904D01*
X145011009Y-59611904D02*
X145106247Y-59564285D01*
X145106247Y-59564285D02*
X145344342Y-59564285D01*
X145344342Y-59564285D02*
X145439580Y-59611904D01*
X145439580Y-59611904D02*
X145487200Y-59659523D01*
X145487200Y-59659523D02*
X145534819Y-59754761D01*
X145534819Y-59754761D02*
X145534819Y-60040475D01*
X145534819Y-60040475D02*
X145487200Y-60135713D01*
X145487200Y-60135713D02*
X145439580Y-60183332D01*
X149494819Y-80968094D02*
X148494819Y-80968094D01*
X148494819Y-80968094D02*
X148494819Y-80729999D01*
X148494819Y-80729999D02*
X148542438Y-80587142D01*
X148542438Y-80587142D02*
X148637676Y-80491904D01*
X148637676Y-80491904D02*
X148732914Y-80444285D01*
X148732914Y-80444285D02*
X148923390Y-80396666D01*
X148923390Y-80396666D02*
X149066247Y-80396666D01*
X149066247Y-80396666D02*
X149256723Y-80444285D01*
X149256723Y-80444285D02*
X149351961Y-80491904D01*
X149351961Y-80491904D02*
X149447200Y-80587142D01*
X149447200Y-80587142D02*
X149494819Y-80729999D01*
X149494819Y-80729999D02*
X149494819Y-80968094D01*
X148590057Y-80015713D02*
X148542438Y-79968094D01*
X148542438Y-79968094D02*
X148494819Y-79872856D01*
X148494819Y-79872856D02*
X148494819Y-79634761D01*
X148494819Y-79634761D02*
X148542438Y-79539523D01*
X148542438Y-79539523D02*
X148590057Y-79491904D01*
X148590057Y-79491904D02*
X148685295Y-79444285D01*
X148685295Y-79444285D02*
X148780533Y-79444285D01*
X148780533Y-79444285D02*
X148923390Y-79491904D01*
X148923390Y-79491904D02*
X149494819Y-80063332D01*
X149494819Y-80063332D02*
X149494819Y-79444285D01*
X150534819Y-60516666D02*
X150058628Y-60849999D01*
X150534819Y-61088094D02*
X149534819Y-61088094D01*
X149534819Y-61088094D02*
X149534819Y-60707142D01*
X149534819Y-60707142D02*
X149582438Y-60611904D01*
X149582438Y-60611904D02*
X149630057Y-60564285D01*
X149630057Y-60564285D02*
X149725295Y-60516666D01*
X149725295Y-60516666D02*
X149868152Y-60516666D01*
X149868152Y-60516666D02*
X149963390Y-60564285D01*
X149963390Y-60564285D02*
X150011009Y-60611904D01*
X150011009Y-60611904D02*
X150058628Y-60707142D01*
X150058628Y-60707142D02*
X150058628Y-61088094D01*
X149630057Y-60135713D02*
X149582438Y-60088094D01*
X149582438Y-60088094D02*
X149534819Y-59992856D01*
X149534819Y-59992856D02*
X149534819Y-59754761D01*
X149534819Y-59754761D02*
X149582438Y-59659523D01*
X149582438Y-59659523D02*
X149630057Y-59611904D01*
X149630057Y-59611904D02*
X149725295Y-59564285D01*
X149725295Y-59564285D02*
X149820533Y-59564285D01*
X149820533Y-59564285D02*
X149963390Y-59611904D01*
X149963390Y-59611904D02*
X150534819Y-60183332D01*
X150534819Y-60183332D02*
X150534819Y-59564285D01*
X140534819Y-60516666D02*
X140058628Y-60849999D01*
X140534819Y-61088094D02*
X139534819Y-61088094D01*
X139534819Y-61088094D02*
X139534819Y-60707142D01*
X139534819Y-60707142D02*
X139582438Y-60611904D01*
X139582438Y-60611904D02*
X139630057Y-60564285D01*
X139630057Y-60564285D02*
X139725295Y-60516666D01*
X139725295Y-60516666D02*
X139868152Y-60516666D01*
X139868152Y-60516666D02*
X139963390Y-60564285D01*
X139963390Y-60564285D02*
X140011009Y-60611904D01*
X140011009Y-60611904D02*
X140058628Y-60707142D01*
X140058628Y-60707142D02*
X140058628Y-61088094D01*
X139868152Y-59659523D02*
X140534819Y-59659523D01*
X139487200Y-59897618D02*
X140201485Y-60135713D01*
X140201485Y-60135713D02*
X140201485Y-59516666D01*
X135534819Y-60316666D02*
X135058628Y-60649999D01*
X135534819Y-60888094D02*
X134534819Y-60888094D01*
X134534819Y-60888094D02*
X134534819Y-60507142D01*
X134534819Y-60507142D02*
X134582438Y-60411904D01*
X134582438Y-60411904D02*
X134630057Y-60364285D01*
X134630057Y-60364285D02*
X134725295Y-60316666D01*
X134725295Y-60316666D02*
X134868152Y-60316666D01*
X134868152Y-60316666D02*
X134963390Y-60364285D01*
X134963390Y-60364285D02*
X135011009Y-60411904D01*
X135011009Y-60411904D02*
X135058628Y-60507142D01*
X135058628Y-60507142D02*
X135058628Y-60888094D01*
X134534819Y-59411904D02*
X134534819Y-59888094D01*
X134534819Y-59888094D02*
X135011009Y-59935713D01*
X135011009Y-59935713D02*
X134963390Y-59888094D01*
X134963390Y-59888094D02*
X134915771Y-59792856D01*
X134915771Y-59792856D02*
X134915771Y-59554761D01*
X134915771Y-59554761D02*
X134963390Y-59459523D01*
X134963390Y-59459523D02*
X135011009Y-59411904D01*
X135011009Y-59411904D02*
X135106247Y-59364285D01*
X135106247Y-59364285D02*
X135344342Y-59364285D01*
X135344342Y-59364285D02*
X135439580Y-59411904D01*
X135439580Y-59411904D02*
X135487200Y-59459523D01*
X135487200Y-59459523D02*
X135534819Y-59554761D01*
X135534819Y-59554761D02*
X135534819Y-59792856D01*
X135534819Y-59792856D02*
X135487200Y-59888094D01*
X135487200Y-59888094D02*
X135439580Y-59935713D01*
X108794819Y-69476904D02*
X109604342Y-69476904D01*
X109604342Y-69476904D02*
X109699580Y-69429285D01*
X109699580Y-69429285D02*
X109747200Y-69381666D01*
X109747200Y-69381666D02*
X109794819Y-69286428D01*
X109794819Y-69286428D02*
X109794819Y-69095952D01*
X109794819Y-69095952D02*
X109747200Y-69000714D01*
X109747200Y-69000714D02*
X109699580Y-68953095D01*
X109699580Y-68953095D02*
X109604342Y-68905476D01*
X109604342Y-68905476D02*
X108794819Y-68905476D01*
X108794819Y-68524523D02*
X108794819Y-67905476D01*
X108794819Y-67905476D02*
X109175771Y-68238809D01*
X109175771Y-68238809D02*
X109175771Y-68095952D01*
X109175771Y-68095952D02*
X109223390Y-68000714D01*
X109223390Y-68000714D02*
X109271009Y-67953095D01*
X109271009Y-67953095D02*
X109366247Y-67905476D01*
X109366247Y-67905476D02*
X109604342Y-67905476D01*
X109604342Y-67905476D02*
X109699580Y-67953095D01*
X109699580Y-67953095D02*
X109747200Y-68000714D01*
X109747200Y-68000714D02*
X109794819Y-68095952D01*
X109794819Y-68095952D02*
X109794819Y-68381666D01*
X109794819Y-68381666D02*
X109747200Y-68476904D01*
X109747200Y-68476904D02*
X109699580Y-68524523D01*
X110319819Y-92496904D02*
X111129342Y-92496904D01*
X111129342Y-92496904D02*
X111224580Y-92449285D01*
X111224580Y-92449285D02*
X111272200Y-92401666D01*
X111272200Y-92401666D02*
X111319819Y-92306428D01*
X111319819Y-92306428D02*
X111319819Y-92115952D01*
X111319819Y-92115952D02*
X111272200Y-92020714D01*
X111272200Y-92020714D02*
X111224580Y-91973095D01*
X111224580Y-91973095D02*
X111129342Y-91925476D01*
X111129342Y-91925476D02*
X110319819Y-91925476D01*
X110653152Y-91020714D02*
X111319819Y-91020714D01*
X110272200Y-91258809D02*
X110986485Y-91496904D01*
X110986485Y-91496904D02*
X110986485Y-90877857D01*
X133994819Y-80968094D02*
X132994819Y-80968094D01*
X132994819Y-80968094D02*
X132994819Y-80729999D01*
X132994819Y-80729999D02*
X133042438Y-80587142D01*
X133042438Y-80587142D02*
X133137676Y-80491904D01*
X133137676Y-80491904D02*
X133232914Y-80444285D01*
X133232914Y-80444285D02*
X133423390Y-80396666D01*
X133423390Y-80396666D02*
X133566247Y-80396666D01*
X133566247Y-80396666D02*
X133756723Y-80444285D01*
X133756723Y-80444285D02*
X133851961Y-80491904D01*
X133851961Y-80491904D02*
X133947200Y-80587142D01*
X133947200Y-80587142D02*
X133994819Y-80729999D01*
X133994819Y-80729999D02*
X133994819Y-80968094D01*
X132994819Y-79539523D02*
X132994819Y-79729999D01*
X132994819Y-79729999D02*
X133042438Y-79825237D01*
X133042438Y-79825237D02*
X133090057Y-79872856D01*
X133090057Y-79872856D02*
X133232914Y-79968094D01*
X133232914Y-79968094D02*
X133423390Y-80015713D01*
X133423390Y-80015713D02*
X133804342Y-80015713D01*
X133804342Y-80015713D02*
X133899580Y-79968094D01*
X133899580Y-79968094D02*
X133947200Y-79920475D01*
X133947200Y-79920475D02*
X133994819Y-79825237D01*
X133994819Y-79825237D02*
X133994819Y-79634761D01*
X133994819Y-79634761D02*
X133947200Y-79539523D01*
X133947200Y-79539523D02*
X133899580Y-79491904D01*
X133899580Y-79491904D02*
X133804342Y-79444285D01*
X133804342Y-79444285D02*
X133566247Y-79444285D01*
X133566247Y-79444285D02*
X133471009Y-79491904D01*
X133471009Y-79491904D02*
X133423390Y-79539523D01*
X133423390Y-79539523D02*
X133375771Y-79634761D01*
X133375771Y-79634761D02*
X133375771Y-79825237D01*
X133375771Y-79825237D02*
X133423390Y-79920475D01*
X133423390Y-79920475D02*
X133471009Y-79968094D01*
X133471009Y-79968094D02*
X133566247Y-80015713D01*
X155534819Y-60666666D02*
X155058628Y-60999999D01*
X155534819Y-61238094D02*
X154534819Y-61238094D01*
X154534819Y-61238094D02*
X154534819Y-60857142D01*
X154534819Y-60857142D02*
X154582438Y-60761904D01*
X154582438Y-60761904D02*
X154630057Y-60714285D01*
X154630057Y-60714285D02*
X154725295Y-60666666D01*
X154725295Y-60666666D02*
X154868152Y-60666666D01*
X154868152Y-60666666D02*
X154963390Y-60714285D01*
X154963390Y-60714285D02*
X155011009Y-60761904D01*
X155011009Y-60761904D02*
X155058628Y-60857142D01*
X155058628Y-60857142D02*
X155058628Y-61238094D01*
X155534819Y-59714285D02*
X155534819Y-60285713D01*
X155534819Y-59999999D02*
X154534819Y-59999999D01*
X154534819Y-59999999D02*
X154677676Y-60095237D01*
X154677676Y-60095237D02*
X154772914Y-60190475D01*
X154772914Y-60190475D02*
X154820533Y-60285713D01*
X141494819Y-73243094D02*
X140494819Y-73243094D01*
X140494819Y-73243094D02*
X140494819Y-73004999D01*
X140494819Y-73004999D02*
X140542438Y-72862142D01*
X140542438Y-72862142D02*
X140637676Y-72766904D01*
X140637676Y-72766904D02*
X140732914Y-72719285D01*
X140732914Y-72719285D02*
X140923390Y-72671666D01*
X140923390Y-72671666D02*
X141066247Y-72671666D01*
X141066247Y-72671666D02*
X141256723Y-72719285D01*
X141256723Y-72719285D02*
X141351961Y-72766904D01*
X141351961Y-72766904D02*
X141447200Y-72862142D01*
X141447200Y-72862142D02*
X141494819Y-73004999D01*
X141494819Y-73004999D02*
X141494819Y-73243094D01*
X140494819Y-72338332D02*
X140494819Y-71719285D01*
X140494819Y-71719285D02*
X140875771Y-72052618D01*
X140875771Y-72052618D02*
X140875771Y-71909761D01*
X140875771Y-71909761D02*
X140923390Y-71814523D01*
X140923390Y-71814523D02*
X140971009Y-71766904D01*
X140971009Y-71766904D02*
X141066247Y-71719285D01*
X141066247Y-71719285D02*
X141304342Y-71719285D01*
X141304342Y-71719285D02*
X141399580Y-71766904D01*
X141399580Y-71766904D02*
X141447200Y-71814523D01*
X141447200Y-71814523D02*
X141494819Y-71909761D01*
X141494819Y-71909761D02*
X141494819Y-72195475D01*
X141494819Y-72195475D02*
X141447200Y-72290713D01*
X141447200Y-72290713D02*
X141399580Y-72338332D01*
X149494819Y-73243094D02*
X148494819Y-73243094D01*
X148494819Y-73243094D02*
X148494819Y-73004999D01*
X148494819Y-73004999D02*
X148542438Y-72862142D01*
X148542438Y-72862142D02*
X148637676Y-72766904D01*
X148637676Y-72766904D02*
X148732914Y-72719285D01*
X148732914Y-72719285D02*
X148923390Y-72671666D01*
X148923390Y-72671666D02*
X149066247Y-72671666D01*
X149066247Y-72671666D02*
X149256723Y-72719285D01*
X149256723Y-72719285D02*
X149351961Y-72766904D01*
X149351961Y-72766904D02*
X149447200Y-72862142D01*
X149447200Y-72862142D02*
X149494819Y-73004999D01*
X149494819Y-73004999D02*
X149494819Y-73243094D01*
X149494819Y-71719285D02*
X149494819Y-72290713D01*
X149494819Y-72004999D02*
X148494819Y-72004999D01*
X148494819Y-72004999D02*
X148637676Y-72100237D01*
X148637676Y-72100237D02*
X148732914Y-72195475D01*
X148732914Y-72195475D02*
X148780533Y-72290713D01*
X133994819Y-73243094D02*
X132994819Y-73243094D01*
X132994819Y-73243094D02*
X132994819Y-73004999D01*
X132994819Y-73004999D02*
X133042438Y-72862142D01*
X133042438Y-72862142D02*
X133137676Y-72766904D01*
X133137676Y-72766904D02*
X133232914Y-72719285D01*
X133232914Y-72719285D02*
X133423390Y-72671666D01*
X133423390Y-72671666D02*
X133566247Y-72671666D01*
X133566247Y-72671666D02*
X133756723Y-72719285D01*
X133756723Y-72719285D02*
X133851961Y-72766904D01*
X133851961Y-72766904D02*
X133947200Y-72862142D01*
X133947200Y-72862142D02*
X133994819Y-73004999D01*
X133994819Y-73004999D02*
X133994819Y-73243094D01*
X132994819Y-71766904D02*
X132994819Y-72243094D01*
X132994819Y-72243094D02*
X133471009Y-72290713D01*
X133471009Y-72290713D02*
X133423390Y-72243094D01*
X133423390Y-72243094D02*
X133375771Y-72147856D01*
X133375771Y-72147856D02*
X133375771Y-71909761D01*
X133375771Y-71909761D02*
X133423390Y-71814523D01*
X133423390Y-71814523D02*
X133471009Y-71766904D01*
X133471009Y-71766904D02*
X133566247Y-71719285D01*
X133566247Y-71719285D02*
X133804342Y-71719285D01*
X133804342Y-71719285D02*
X133899580Y-71766904D01*
X133899580Y-71766904D02*
X133947200Y-71814523D01*
X133947200Y-71814523D02*
X133994819Y-71909761D01*
X133994819Y-71909761D02*
X133994819Y-72147856D01*
X133994819Y-72147856D02*
X133947200Y-72243094D01*
X133947200Y-72243094D02*
X133899580Y-72290713D01*
X130534819Y-60666666D02*
X130058628Y-60999999D01*
X130534819Y-61238094D02*
X129534819Y-61238094D01*
X129534819Y-61238094D02*
X129534819Y-60857142D01*
X129534819Y-60857142D02*
X129582438Y-60761904D01*
X129582438Y-60761904D02*
X129630057Y-60714285D01*
X129630057Y-60714285D02*
X129725295Y-60666666D01*
X129725295Y-60666666D02*
X129868152Y-60666666D01*
X129868152Y-60666666D02*
X129963390Y-60714285D01*
X129963390Y-60714285D02*
X130011009Y-60761904D01*
X130011009Y-60761904D02*
X130058628Y-60857142D01*
X130058628Y-60857142D02*
X130058628Y-61238094D01*
X129534819Y-59809523D02*
X129534819Y-59999999D01*
X129534819Y-59999999D02*
X129582438Y-60095237D01*
X129582438Y-60095237D02*
X129630057Y-60142856D01*
X129630057Y-60142856D02*
X129772914Y-60238094D01*
X129772914Y-60238094D02*
X129963390Y-60285713D01*
X129963390Y-60285713D02*
X130344342Y-60285713D01*
X130344342Y-60285713D02*
X130439580Y-60238094D01*
X130439580Y-60238094D02*
X130487200Y-60190475D01*
X130487200Y-60190475D02*
X130534819Y-60095237D01*
X130534819Y-60095237D02*
X130534819Y-59904761D01*
X130534819Y-59904761D02*
X130487200Y-59809523D01*
X130487200Y-59809523D02*
X130439580Y-59761904D01*
X130439580Y-59761904D02*
X130344342Y-59714285D01*
X130344342Y-59714285D02*
X130106247Y-59714285D01*
X130106247Y-59714285D02*
X130011009Y-59761904D01*
X130011009Y-59761904D02*
X129963390Y-59809523D01*
X129963390Y-59809523D02*
X129915771Y-59904761D01*
X129915771Y-59904761D02*
X129915771Y-60095237D01*
X129915771Y-60095237D02*
X129963390Y-60190475D01*
X129963390Y-60190475D02*
X130011009Y-60238094D01*
X130011009Y-60238094D02*
X130106247Y-60285713D01*
D11*
%TO.C,J1*%
X126610000Y-96130000D02*
X127940000Y-96130000D01*
X126610000Y-97460000D02*
X126610000Y-96130000D01*
X129210000Y-96130000D02*
X147050000Y-96130000D01*
X129210000Y-98790000D02*
X129210000Y-96130000D01*
X129210000Y-98790000D02*
X147050000Y-98790000D01*
X147050000Y-98790000D02*
X147050000Y-96130000D01*
%TO.C,J3*%
X149470000Y-96130000D02*
X150800000Y-96130000D01*
X149470000Y-97460000D02*
X149470000Y-96130000D01*
X152070000Y-96130000D02*
X164830000Y-96130000D01*
X152070000Y-98790000D02*
X152070000Y-96130000D01*
X152070000Y-98790000D02*
X164830000Y-98790000D01*
X164830000Y-98790000D02*
X164830000Y-96130000D01*
%TO.C,J2*%
X117466000Y-47870000D02*
X118796000Y-47870000D01*
X117466000Y-49200000D02*
X117466000Y-47870000D01*
X120066000Y-47870000D02*
X142986000Y-47870000D01*
X120066000Y-50530000D02*
X120066000Y-47870000D01*
X120066000Y-50530000D02*
X142986000Y-50530000D01*
X142986000Y-50530000D02*
X142986000Y-47870000D01*
%TO.C,J4*%
X144390000Y-47870000D02*
X145720000Y-47870000D01*
X144390000Y-49200000D02*
X144390000Y-47870000D01*
X146990000Y-47870000D02*
X164830000Y-47870000D01*
X146990000Y-50530000D02*
X146990000Y-47870000D01*
X146990000Y-50530000D02*
X164830000Y-50530000D01*
X164830000Y-50530000D02*
X164830000Y-47870000D01*
D12*
%TO.C,U2*%
X142856000Y-94263000D02*
X143100000Y-94263000D01*
X146906000Y-94263000D02*
X147144000Y-94263000D01*
X142856000Y-94263000D02*
G75*
G02*
X147144000Y-94263000I2144000J1557707D01*
G01*
D13*
X143800000Y-95020000D02*
G75*
G02*
X143600000Y-95020000I-100000J0D01*
G01*
X143600000Y-95020000D02*
G75*
G02*
X143800000Y-95020000I100000J0D01*
G01*
D11*
%TO.C,D4*%
X143455000Y-82830000D02*
X146545000Y-82830000D01*
X143455170Y-82830000D02*
G75*
G02*
X144999952Y-77280000I1544830J2560000D01*
G01*
X145000048Y-77280000D02*
G75*
G02*
X146544830Y-82830000I-48J-2990000D01*
G01*
X147500000Y-80270000D02*
G75*
G02*
X142500000Y-80270000I-2500000J0D01*
G01*
X142500000Y-80270000D02*
G75*
G02*
X147500000Y-80270000I2500000J0D01*
G01*
D12*
%TO.C,U1*%
X178025000Y-84620000D02*
X158975000Y-84620000D01*
X178025000Y-69380000D02*
X178025000Y-84620000D01*
X158975000Y-84620000D02*
X158975000Y-69380000D01*
X158975000Y-69380000D02*
X178025000Y-69380000D01*
D14*
X160345000Y-85370000D02*
G75*
G02*
X160145000Y-85370000I-100000J0D01*
G01*
X160145000Y-85370000D02*
G75*
G02*
X160345000Y-85370000I100000J0D01*
G01*
D11*
%TO.C,R3*%
X146080000Y-55280000D02*
X146560000Y-55280000D01*
X146080000Y-65420000D02*
X146080000Y-55280000D01*
X146560000Y-65420000D02*
X146080000Y-65420000D01*
X149440000Y-65420000D02*
X149920000Y-65420000D01*
X149920000Y-55280000D02*
X149440000Y-55280000D01*
X149920000Y-65420000D02*
X149920000Y-55280000D01*
%TO.C,D2*%
X151455000Y-82790000D02*
X154545000Y-82790000D01*
X151455170Y-82790000D02*
G75*
G02*
X152999952Y-77240000I1544830J2560000D01*
G01*
X153000048Y-77240000D02*
G75*
G02*
X154544830Y-82790000I-48J-2990000D01*
G01*
X155500000Y-80230000D02*
G75*
G02*
X150500000Y-80230000I-2500000J0D01*
G01*
X150500000Y-80230000D02*
G75*
G02*
X155500000Y-80230000I2500000J0D01*
G01*
%TO.C,R2*%
X151080000Y-55280000D02*
X151560000Y-55280000D01*
X151080000Y-65420000D02*
X151080000Y-55280000D01*
X151560000Y-65420000D02*
X151080000Y-65420000D01*
X154440000Y-65420000D02*
X154920000Y-65420000D01*
X154920000Y-55280000D02*
X154440000Y-55280000D01*
X154920000Y-65420000D02*
X154920000Y-55280000D01*
%TO.C,R4*%
X141080000Y-55280000D02*
X141560000Y-55280000D01*
X141080000Y-65420000D02*
X141080000Y-55280000D01*
X141560000Y-65420000D02*
X141080000Y-65420000D01*
X144440000Y-65420000D02*
X144920000Y-65420000D01*
X144920000Y-55280000D02*
X144440000Y-55280000D01*
X144920000Y-65420000D02*
X144920000Y-55280000D01*
%TO.C,R5*%
X136080000Y-55080000D02*
X136560000Y-55080000D01*
X136080000Y-65220000D02*
X136080000Y-55080000D01*
X136560000Y-65220000D02*
X136080000Y-65220000D01*
X139440000Y-65220000D02*
X139920000Y-65220000D01*
X139920000Y-55080000D02*
X139440000Y-55080000D01*
X139920000Y-65220000D02*
X139920000Y-55080000D01*
D12*
%TO.C,U3*%
X110475000Y-71890000D02*
X110475000Y-54110000D01*
X129525000Y-71890000D02*
X110475000Y-71890000D01*
X110475000Y-54110000D02*
X129525000Y-54110000D01*
X129525000Y-54110000D02*
X129525000Y-71890000D01*
D14*
X127085000Y-72490000D02*
G75*
G02*
X126885000Y-72490000I-100000J0D01*
G01*
X126885000Y-72490000D02*
G75*
G02*
X127085000Y-72490000I100000J0D01*
G01*
D12*
%TO.C,U4*%
X112610000Y-92120000D02*
X112610000Y-76880000D01*
X115150000Y-74340000D02*
X127850000Y-74340000D01*
X127850000Y-94660000D02*
X115150000Y-94660000D01*
X130390000Y-76880000D02*
X130390000Y-92120000D01*
X112610000Y-76880000D02*
G75*
G02*
X115150000Y-74340000I2540000J0D01*
G01*
X115150000Y-94660000D02*
G75*
G02*
X112610000Y-92120000I1J2540001D01*
G01*
X127850000Y-74340000D02*
G75*
G02*
X130390000Y-76880000I0J-2540000D01*
G01*
X130390000Y-92120000D02*
G75*
G02*
X127850000Y-94660000I-2540001J1D01*
G01*
D14*
X127950000Y-73660000D02*
G75*
G02*
X127750000Y-73660000I-100000J0D01*
G01*
X127750000Y-73660000D02*
G75*
G02*
X127950000Y-73660000I100000J0D01*
G01*
D11*
%TO.C,D6*%
X135955000Y-82790000D02*
X139045000Y-82790000D01*
X135955170Y-82790000D02*
G75*
G02*
X137499952Y-77240000I1544830J2560000D01*
G01*
X137500048Y-77240000D02*
G75*
G02*
X139044830Y-82790000I-48J-2990000D01*
G01*
X140000000Y-80230000D02*
G75*
G02*
X135000000Y-80230000I-2500000J0D01*
G01*
X135000000Y-80230000D02*
G75*
G02*
X140000000Y-80230000I2500000J0D01*
G01*
%TO.C,R1*%
X156080000Y-55430000D02*
X156560000Y-55430000D01*
X156080000Y-65570000D02*
X156080000Y-55430000D01*
X156560000Y-65570000D02*
X156080000Y-65570000D01*
X159440000Y-65570000D02*
X159920000Y-65570000D01*
X159920000Y-55430000D02*
X159440000Y-55430000D01*
X159920000Y-65570000D02*
X159920000Y-55430000D01*
%TO.C,D3*%
X143455000Y-75065000D02*
X146545000Y-75065000D01*
X143455170Y-75065000D02*
G75*
G02*
X144999952Y-69515000I1544830J2560000D01*
G01*
X145000048Y-69515000D02*
G75*
G02*
X146544830Y-75065000I-48J-2990000D01*
G01*
X147500000Y-72505000D02*
G75*
G02*
X142500000Y-72505000I-2500000J0D01*
G01*
X142500000Y-72505000D02*
G75*
G02*
X147500000Y-72505000I2500000J0D01*
G01*
%TO.C,D1*%
X151455000Y-75065000D02*
X154545000Y-75065000D01*
X151455170Y-75065000D02*
G75*
G02*
X152999952Y-69515000I1544830J2560000D01*
G01*
X153000048Y-69515000D02*
G75*
G02*
X154544830Y-75065000I-48J-2990000D01*
G01*
X155500000Y-72505000D02*
G75*
G02*
X150500000Y-72505000I-2500000J0D01*
G01*
X150500000Y-72505000D02*
G75*
G02*
X155500000Y-72505000I2500000J0D01*
G01*
%TO.C,D5*%
X135955000Y-75065000D02*
X139045000Y-75065000D01*
X135955170Y-75065000D02*
G75*
G02*
X137499952Y-69515000I1544830J2560000D01*
G01*
X137500048Y-69515000D02*
G75*
G02*
X139044830Y-75065000I-48J-2990000D01*
G01*
X140000000Y-72505000D02*
G75*
G02*
X135000000Y-72505000I-2500000J0D01*
G01*
X135000000Y-72505000D02*
G75*
G02*
X140000000Y-72505000I2500000J0D01*
G01*
%TO.C,R6*%
X131080000Y-55430000D02*
X131560000Y-55430000D01*
X131080000Y-65570000D02*
X131080000Y-55430000D01*
X131560000Y-65570000D02*
X131080000Y-65570000D01*
X134440000Y-65570000D02*
X134920000Y-65570000D01*
X134920000Y-55430000D02*
X134440000Y-55430000D01*
X134920000Y-65570000D02*
X134920000Y-55430000D01*
%TD*%
M02*
