%TF.GenerationSoftware,KiCad,Pcbnew,8.0.8*%
%TF.CreationDate,2025-03-12T20:50:06-06:00*%
%TF.ProjectId,UnoShieldFinalProject,556e6f53-6869-4656-9c64-46696e616c50,rev?*%
%TF.SameCoordinates,Original*%
%TF.FileFunction,Copper,L2,Bot*%
%TF.FilePolarity,Positive*%
%FSLAX46Y46*%
G04 Gerber Fmt 4.6, Leading zero omitted, Abs format (unit mm)*
G04 Created by KiCad (PCBNEW 8.0.8) date 2025-03-12 20:50:06*
%MOMM*%
%LPD*%
G01*
G04 APERTURE LIST*
%TA.AperFunction,ComponentPad*%
%ADD10R,1.700000X1.700000*%
%TD*%
%TA.AperFunction,ComponentPad*%
%ADD11O,1.700000X1.700000*%
%TD*%
%TA.AperFunction,ComponentPad*%
%ADD12O,1.100000X2.200000*%
%TD*%
%TA.AperFunction,ComponentPad*%
%ADD13R,1.800000X1.800000*%
%TD*%
%TA.AperFunction,ComponentPad*%
%ADD14C,1.800000*%
%TD*%
%TA.AperFunction,ComponentPad*%
%ADD15R,1.879600X1.879600*%
%TD*%
%TA.AperFunction,ComponentPad*%
%ADD16C,1.879600*%
%TD*%
%TA.AperFunction,ComponentPad*%
%ADD17C,2.400000*%
%TD*%
%TA.AperFunction,ComponentPad*%
%ADD18O,2.400000X2.400000*%
%TD*%
%TA.AperFunction,ComponentPad*%
%ADD19R,1.508000X1.508000*%
%TD*%
%TA.AperFunction,ComponentPad*%
%ADD20C,1.508000*%
%TD*%
%TA.AperFunction,ComponentPad*%
%ADD21C,3.216000*%
%TD*%
%TA.AperFunction,ComponentPad*%
%ADD22C,3.516000*%
%TD*%
G04 APERTURE END LIST*
D10*
%TO.P,J1,1,Pin_1*%
%TO.N,unconnected-(J1-Pin_1-Pad1)*%
X127940000Y-97460000D03*
D11*
%TO.P,J1,2,Pin_2*%
%TO.N,/IOREF*%
X130480000Y-97460000D03*
%TO.P,J1,3,Pin_3*%
%TO.N,/Reset*%
X133020000Y-97460000D03*
%TO.P,J1,4,Pin_4*%
%TO.N,+3V3*%
X135560000Y-97460000D03*
%TO.P,J1,5,Pin_5*%
%TO.N,+5V*%
X138100000Y-97460000D03*
%TO.P,J1,6,Pin_6*%
%TO.N,GND*%
X140640000Y-97460000D03*
%TO.P,J1,7,Pin_7*%
X143180000Y-97460000D03*
%TO.P,J1,8,Pin_8*%
%TO.N,VCC*%
X145720000Y-97460000D03*
%TD*%
D10*
%TO.P,J3,1,Pin_1*%
%TO.N,/A0*%
X150800000Y-97460000D03*
D11*
%TO.P,J3,2,Pin_2*%
%TO.N,/A1*%
X153340000Y-97460000D03*
%TO.P,J3,3,Pin_3*%
%TO.N,/A2*%
X155880000Y-97460000D03*
%TO.P,J3,4,Pin_4*%
%TO.N,/A3*%
X158420000Y-97460000D03*
%TO.P,J3,5,Pin_5*%
%TO.N,/SDA{slash}A4*%
X160960000Y-97460000D03*
%TO.P,J3,6,Pin_6*%
%TO.N,/SCL{slash}A5*%
X163500000Y-97460000D03*
%TD*%
D10*
%TO.P,J2,1,Pin_1*%
%TO.N,/SCL{slash}A5*%
X118796000Y-49200000D03*
D11*
%TO.P,J2,2,Pin_2*%
%TO.N,/SDA{slash}A4*%
X121336000Y-49200000D03*
%TO.P,J2,3,Pin_3*%
%TO.N,/AREF*%
X123876000Y-49200000D03*
%TO.P,J2,4,Pin_4*%
%TO.N,GND*%
X126416000Y-49200000D03*
%TO.P,J2,5,Pin_5*%
%TO.N,/13*%
X128956000Y-49200000D03*
%TO.P,J2,6,Pin_6*%
%TO.N,/12*%
X131496000Y-49200000D03*
%TO.P,J2,7,Pin_7*%
%TO.N,/\u002A11*%
X134036000Y-49200000D03*
%TO.P,J2,8,Pin_8*%
%TO.N,/\u002A10*%
X136576000Y-49200000D03*
%TO.P,J2,9,Pin_9*%
%TO.N,/\u002A9*%
X139116000Y-49200000D03*
%TO.P,J2,10,Pin_10*%
%TO.N,/8*%
X141656000Y-49200000D03*
%TD*%
D10*
%TO.P,J4,1,Pin_1*%
%TO.N,/7*%
X145720000Y-49200000D03*
D11*
%TO.P,J4,2,Pin_2*%
%TO.N,/\u002A6*%
X148260000Y-49200000D03*
%TO.P,J4,3,Pin_3*%
%TO.N,/\u002A5*%
X150800000Y-49200000D03*
%TO.P,J4,4,Pin_4*%
%TO.N,/4*%
X153340000Y-49200000D03*
%TO.P,J4,5,Pin_5*%
%TO.N,/\u002A3*%
X155880000Y-49200000D03*
%TO.P,J4,6,Pin_6*%
%TO.N,/2*%
X158420000Y-49200000D03*
%TO.P,J4,7,Pin_7*%
%TO.N,/TX{slash}1*%
X160960000Y-49200000D03*
%TO.P,J4,8,Pin_8*%
%TO.N,/RX{slash}0*%
X163500000Y-49200000D03*
%TD*%
D12*
%TO.P,U2,1,+VS*%
%TO.N,+5V*%
X143730000Y-93000000D03*
%TO.P,U2,2,VOUT*%
%TO.N,/A0*%
X145000000Y-93000000D03*
%TO.P,U2,3,GND*%
%TO.N,GND*%
X146270000Y-93000000D03*
%TD*%
D13*
%TO.P,D4,1,K*%
%TO.N,GND*%
X145000000Y-81540000D03*
D14*
%TO.P,D4,2,A*%
%TO.N,Net-(D4-A)*%
X145000000Y-79000000D03*
%TD*%
D15*
%TO.P,U1,1,BLK*%
%TO.N,GND*%
X160245000Y-83350000D03*
D16*
%TO.P,U1,2,GND*%
X160245000Y-80810000D03*
%TO.P,U1,3,VCC*%
%TO.N,+5V*%
X160245000Y-78270000D03*
%TO.P,U1,4,TXO*%
%TO.N,/TX{slash}1*%
X160245000Y-75730000D03*
%TO.P,U1,5,RXI*%
%TO.N,/RX{slash}0*%
X160245000Y-73190000D03*
%TO.P,U1,6,GRN*%
%TO.N,/Reset*%
X160245000Y-70650000D03*
%TD*%
D17*
%TO.P,R3,1*%
%TO.N,Net-(D3-A)*%
X148000000Y-66700000D03*
D18*
%TO.P,R3,2*%
%TO.N,/4*%
X148000000Y-54000000D03*
%TD*%
D13*
%TO.P,D2,1,K*%
%TO.N,GND*%
X153000000Y-81500000D03*
D14*
%TO.P,D2,2,A*%
%TO.N,Net-(D2-A)*%
X153000000Y-78960000D03*
%TD*%
D17*
%TO.P,R2,1*%
%TO.N,Net-(D2-A)*%
X153000000Y-66700000D03*
D18*
%TO.P,R2,2*%
%TO.N,/\u002A3*%
X153000000Y-54000000D03*
%TD*%
D17*
%TO.P,R4,1*%
%TO.N,Net-(D4-A)*%
X143000000Y-66700000D03*
D18*
%TO.P,R4,2*%
%TO.N,/\u002A5*%
X143000000Y-54000000D03*
%TD*%
D17*
%TO.P,R5,1*%
%TO.N,Net-(D5-A)*%
X138000000Y-66500000D03*
D18*
%TO.P,R5,2*%
%TO.N,/\u002A6*%
X138000000Y-53800000D03*
%TD*%
D19*
%TO.P,U3,1,VIN*%
%TO.N,+5V*%
X126985000Y-70620000D03*
D20*
%TO.P,U3,2,3VO*%
%TO.N,unconnected-(U3-3VO-Pad2)*%
X126985000Y-68080000D03*
%TO.P,U3,3,GND*%
%TO.N,GND*%
X126985000Y-65540000D03*
%TO.P,U3,4,SCK*%
%TO.N,/SCL{slash}A5*%
X126985000Y-63000000D03*
%TO.P,U3,5,SDO*%
%TO.N,unconnected-(U3-SDO-Pad5)*%
X126985000Y-60460000D03*
%TO.P,U3,6,SDI*%
%TO.N,/SDA{slash}A4*%
X126985000Y-57920000D03*
%TO.P,U3,7,CS*%
%TO.N,unconnected-(U3-CS-Pad7)*%
X126985000Y-55380000D03*
D21*
%TO.P,U3,P1*%
%TO.N,N/C*%
X113015000Y-69350000D03*
%TO.P,U3,P2*%
X113015000Y-56650000D03*
%TD*%
D19*
%TO.P,U4,1,A*%
%TO.N,unconnected-(U4-A-Pad1)*%
X127850000Y-75610000D03*
D20*
%TO.P,U4,2,SDA*%
%TO.N,/SDA{slash}A4*%
X127850000Y-78150000D03*
%TO.P,U4,3,SCL*%
%TO.N,/SCL{slash}A5*%
X127850000Y-80690000D03*
%TO.P,U4,4,I1*%
%TO.N,unconnected-(U4-I1-Pad4)*%
X127850000Y-83230000D03*
%TO.P,U4,5,I2*%
%TO.N,unconnected-(U4-I2-Pad5)*%
X127850000Y-85770000D03*
%TO.P,U4,6,3VO*%
%TO.N,unconnected-(U4-3VO-Pad6)*%
X127850000Y-88310000D03*
%TO.P,U4,7,GND*%
%TO.N,GND*%
X127850000Y-90850000D03*
%TO.P,U4,8,VIN*%
%TO.N,+5V*%
X127850000Y-93390000D03*
D22*
%TO.P,U4,P1*%
%TO.N,N/C*%
X115150000Y-92120000D03*
%TO.P,U4,P2*%
X115150000Y-76880000D03*
%TD*%
D13*
%TO.P,D6,1,K*%
%TO.N,GND*%
X137500000Y-81500000D03*
D14*
%TO.P,D6,2,A*%
%TO.N,Net-(D6-A)*%
X137500000Y-78960000D03*
%TD*%
D17*
%TO.P,R1,1*%
%TO.N,Net-(D1-A)*%
X158000000Y-66850000D03*
D18*
%TO.P,R1,2*%
%TO.N,/2*%
X158000000Y-54150000D03*
%TD*%
D13*
%TO.P,D3,1,K*%
%TO.N,GND*%
X145000000Y-73775000D03*
D14*
%TO.P,D3,2,A*%
%TO.N,Net-(D3-A)*%
X145000000Y-71235000D03*
%TD*%
D13*
%TO.P,D1,1,K*%
%TO.N,GND*%
X153000000Y-73775000D03*
D14*
%TO.P,D1,2,A*%
%TO.N,Net-(D1-A)*%
X153000000Y-71235000D03*
%TD*%
D13*
%TO.P,D5,1,K*%
%TO.N,GND*%
X137500000Y-73775000D03*
D14*
%TO.P,D5,2,A*%
%TO.N,Net-(D5-A)*%
X137500000Y-71235000D03*
%TD*%
D17*
%TO.P,R6,1*%
%TO.N,Net-(D6-A)*%
X133000000Y-66850000D03*
D18*
%TO.P,R6,2*%
%TO.N,/7*%
X133000000Y-54150000D03*
%TD*%
%TA.AperFunction,Conductor*%
%TO.N,GND*%
G36*
X142714075Y-97267007D02*
G01*
X142680000Y-97394174D01*
X142680000Y-97525826D01*
X142714075Y-97652993D01*
X142746988Y-97710000D01*
X141073012Y-97710000D01*
X141105925Y-97652993D01*
X141140000Y-97525826D01*
X141140000Y-97394174D01*
X141105925Y-97267007D01*
X141073012Y-97210000D01*
X142746988Y-97210000D01*
X142714075Y-97267007D01*
G37*
%TD.AperFunction*%
%TA.AperFunction,Conductor*%
G36*
X163484404Y-46755185D02*
G01*
X163505046Y-46771819D01*
X165928181Y-49194954D01*
X165961666Y-49256277D01*
X165964500Y-49282635D01*
X165964500Y-59344982D01*
X165964500Y-59375018D01*
X165975994Y-59402767D01*
X165975995Y-59402768D01*
X168468181Y-61894954D01*
X168501666Y-61956277D01*
X168504500Y-61982635D01*
X168504500Y-96107364D01*
X168484815Y-96174403D01*
X168468181Y-96195045D01*
X165997233Y-98665994D01*
X165975995Y-98687231D01*
X165964500Y-98714982D01*
X165964500Y-99231907D01*
X165963903Y-99244062D01*
X165952505Y-99359778D01*
X165947763Y-99383618D01*
X165917832Y-99482290D01*
X165915789Y-99489024D01*
X165906486Y-99511482D01*
X165854561Y-99608627D01*
X165841056Y-99628839D01*
X165771176Y-99713988D01*
X165753988Y-99731176D01*
X165668839Y-99801056D01*
X165648627Y-99814561D01*
X165551482Y-99866486D01*
X165529028Y-99875787D01*
X165487028Y-99888528D01*
X165423618Y-99907763D01*
X165399778Y-99912505D01*
X165291162Y-99923203D01*
X165284060Y-99923903D01*
X165271907Y-99924500D01*
X100768093Y-99924500D01*
X100755939Y-99923903D01*
X100747995Y-99923120D01*
X100640221Y-99912505D01*
X100616381Y-99907763D01*
X100599445Y-99902625D01*
X100510968Y-99875786D01*
X100488517Y-99866486D01*
X100391372Y-99814561D01*
X100371160Y-99801056D01*
X100286011Y-99731176D01*
X100268823Y-99713988D01*
X100198943Y-99628839D01*
X100185438Y-99608627D01*
X100133510Y-99511476D01*
X100124215Y-99489037D01*
X100092234Y-99383612D01*
X100087494Y-99359777D01*
X100076097Y-99244061D01*
X100075500Y-99231907D01*
X100075500Y-96561345D01*
X126581500Y-96561345D01*
X126581500Y-98358654D01*
X126588011Y-98419202D01*
X126588011Y-98419204D01*
X126639111Y-98556204D01*
X126726739Y-98673261D01*
X126843796Y-98760889D01*
X126980799Y-98811989D01*
X127008050Y-98814918D01*
X127041345Y-98818499D01*
X127041362Y-98818500D01*
X128838638Y-98818500D01*
X128838654Y-98818499D01*
X128865692Y-98815591D01*
X128899201Y-98811989D01*
X129036204Y-98760889D01*
X129153261Y-98673261D01*
X129240889Y-98556204D01*
X129286138Y-98434887D01*
X129328009Y-98378956D01*
X129393474Y-98354539D01*
X129461746Y-98369391D01*
X129493545Y-98394236D01*
X129556760Y-98462906D01*
X129734424Y-98601189D01*
X129734425Y-98601189D01*
X129734427Y-98601191D01*
X129861135Y-98669761D01*
X129932426Y-98708342D01*
X130145365Y-98781444D01*
X130367431Y-98818500D01*
X130592569Y-98818500D01*
X130814635Y-98781444D01*
X131027574Y-98708342D01*
X131225576Y-98601189D01*
X131403240Y-98462906D01*
X131524594Y-98331082D01*
X131555715Y-98297276D01*
X131555715Y-98297275D01*
X131555722Y-98297268D01*
X131646193Y-98158790D01*
X131699338Y-98113437D01*
X131768569Y-98104013D01*
X131831905Y-98133515D01*
X131853804Y-98158787D01*
X131944278Y-98297268D01*
X131944283Y-98297273D01*
X131944284Y-98297276D01*
X132070968Y-98434889D01*
X132096760Y-98462906D01*
X132274424Y-98601189D01*
X132274425Y-98601189D01*
X132274427Y-98601191D01*
X132401135Y-98669761D01*
X132472426Y-98708342D01*
X132685365Y-98781444D01*
X132907431Y-98818500D01*
X133132569Y-98818500D01*
X133354635Y-98781444D01*
X133567574Y-98708342D01*
X133765576Y-98601189D01*
X133943240Y-98462906D01*
X134064594Y-98331082D01*
X134095715Y-98297276D01*
X134095715Y-98297275D01*
X134095722Y-98297268D01*
X134186193Y-98158790D01*
X134239338Y-98113437D01*
X134308569Y-98104013D01*
X134371905Y-98133515D01*
X134393804Y-98158787D01*
X134484278Y-98297268D01*
X134484283Y-98297273D01*
X134484284Y-98297276D01*
X134610968Y-98434889D01*
X134636760Y-98462906D01*
X134814424Y-98601189D01*
X134814425Y-98601189D01*
X134814427Y-98601191D01*
X134941135Y-98669761D01*
X135012426Y-98708342D01*
X135225365Y-98781444D01*
X135447431Y-98818500D01*
X135672569Y-98818500D01*
X135894635Y-98781444D01*
X136107574Y-98708342D01*
X136305576Y-98601189D01*
X136483240Y-98462906D01*
X136604594Y-98331082D01*
X136635715Y-98297276D01*
X136635715Y-98297275D01*
X136635722Y-98297268D01*
X136726193Y-98158790D01*
X136779338Y-98113437D01*
X136848569Y-98104013D01*
X136911905Y-98133515D01*
X136933804Y-98158787D01*
X137024278Y-98297268D01*
X137024283Y-98297273D01*
X137024284Y-98297276D01*
X137150968Y-98434889D01*
X137176760Y-98462906D01*
X137354424Y-98601189D01*
X137354425Y-98601189D01*
X137354427Y-98601191D01*
X137481135Y-98669761D01*
X137552426Y-98708342D01*
X137765365Y-98781444D01*
X137987431Y-98818500D01*
X138212569Y-98818500D01*
X138434635Y-98781444D01*
X138647574Y-98708342D01*
X138845576Y-98601189D01*
X139023240Y-98462906D01*
X139144594Y-98331082D01*
X139175715Y-98297276D01*
X139175715Y-98297275D01*
X139175722Y-98297268D01*
X139269749Y-98153347D01*
X139322894Y-98107994D01*
X139392125Y-98098570D01*
X139455461Y-98128072D01*
X139475130Y-98150048D01*
X139601890Y-98331078D01*
X139768917Y-98498105D01*
X139962421Y-98633600D01*
X140176507Y-98733429D01*
X140176516Y-98733433D01*
X140390000Y-98790634D01*
X140390000Y-97893012D01*
X140447007Y-97925925D01*
X140574174Y-97960000D01*
X140705826Y-97960000D01*
X140832993Y-97925925D01*
X140890000Y-97893012D01*
X140890000Y-98790633D01*
X141103483Y-98733433D01*
X141103492Y-98733429D01*
X141317578Y-98633600D01*
X141511082Y-98498105D01*
X141678105Y-98331082D01*
X141808425Y-98144968D01*
X141863002Y-98101344D01*
X141932501Y-98094151D01*
X141994855Y-98125673D01*
X142011575Y-98144968D01*
X142141894Y-98331082D01*
X142308917Y-98498105D01*
X142502421Y-98633600D01*
X142716507Y-98733429D01*
X142716516Y-98733433D01*
X142930000Y-98790634D01*
X142930000Y-97893012D01*
X142987007Y-97925925D01*
X143114174Y-97960000D01*
X143245826Y-97960000D01*
X143372993Y-97925925D01*
X143430000Y-97893012D01*
X143430000Y-98790633D01*
X143643483Y-98733433D01*
X143643492Y-98733429D01*
X143857578Y-98633600D01*
X144051082Y-98498105D01*
X144218105Y-98331082D01*
X144344868Y-98150048D01*
X144399445Y-98106423D01*
X144468944Y-98099231D01*
X144531298Y-98130753D01*
X144550251Y-98153350D01*
X144644276Y-98297265D01*
X144644284Y-98297276D01*
X144770968Y-98434889D01*
X144796760Y-98462906D01*
X144974424Y-98601189D01*
X144974425Y-98601189D01*
X144974427Y-98601191D01*
X145101135Y-98669761D01*
X145172426Y-98708342D01*
X145385365Y-98781444D01*
X145607431Y-98818500D01*
X145832569Y-98818500D01*
X146054635Y-98781444D01*
X146267574Y-98708342D01*
X146465576Y-98601189D01*
X146643240Y-98462906D01*
X146764594Y-98331082D01*
X146795715Y-98297276D01*
X146795717Y-98297273D01*
X146795722Y-98297268D01*
X146918860Y-98108791D01*
X147009296Y-97902616D01*
X147064564Y-97684368D01*
X147067164Y-97652993D01*
X147083156Y-97460005D01*
X147083156Y-97459994D01*
X147064565Y-97235640D01*
X147064563Y-97235628D01*
X147009296Y-97017385D01*
X146999071Y-96994075D01*
X146918860Y-96811209D01*
X146902706Y-96786484D01*
X146795723Y-96622734D01*
X146795715Y-96622723D01*
X146739212Y-96561345D01*
X149441500Y-96561345D01*
X149441500Y-98358654D01*
X149448011Y-98419202D01*
X149448011Y-98419204D01*
X149499111Y-98556204D01*
X149586739Y-98673261D01*
X149703796Y-98760889D01*
X149840799Y-98811989D01*
X149868050Y-98814918D01*
X149901345Y-98818499D01*
X149901362Y-98818500D01*
X151698638Y-98818500D01*
X151698654Y-98818499D01*
X151725692Y-98815591D01*
X151759201Y-98811989D01*
X151896204Y-98760889D01*
X152013261Y-98673261D01*
X152100889Y-98556204D01*
X152146138Y-98434887D01*
X152188009Y-98378956D01*
X152253474Y-98354539D01*
X152321746Y-98369391D01*
X152353545Y-98394236D01*
X152416760Y-98462906D01*
X152594424Y-98601189D01*
X152594425Y-98601189D01*
X152594427Y-98601191D01*
X152721135Y-98669761D01*
X152792426Y-98708342D01*
X153005365Y-98781444D01*
X153227431Y-98818500D01*
X153452569Y-98818500D01*
X153674635Y-98781444D01*
X153887574Y-98708342D01*
X154085576Y-98601189D01*
X154263240Y-98462906D01*
X154384594Y-98331082D01*
X154415715Y-98297276D01*
X154415715Y-98297275D01*
X154415722Y-98297268D01*
X154506193Y-98158790D01*
X154559338Y-98113437D01*
X154628569Y-98104013D01*
X154691905Y-98133515D01*
X154713804Y-98158787D01*
X154804278Y-98297268D01*
X154804283Y-98297273D01*
X154804284Y-98297276D01*
X154930968Y-98434889D01*
X154956760Y-98462906D01*
X155134424Y-98601189D01*
X155134425Y-98601189D01*
X155134427Y-98601191D01*
X155261135Y-98669761D01*
X155332426Y-98708342D01*
X155545365Y-98781444D01*
X155767431Y-98818500D01*
X155992569Y-98818500D01*
X156214635Y-98781444D01*
X156427574Y-98708342D01*
X156625576Y-98601189D01*
X156803240Y-98462906D01*
X156924594Y-98331082D01*
X156955715Y-98297276D01*
X156955715Y-98297275D01*
X156955722Y-98297268D01*
X157046193Y-98158790D01*
X157099338Y-98113437D01*
X157168569Y-98104013D01*
X157231905Y-98133515D01*
X157253804Y-98158787D01*
X157344278Y-98297268D01*
X157344283Y-98297273D01*
X157344284Y-98297276D01*
X157470968Y-98434889D01*
X157496760Y-98462906D01*
X157674424Y-98601189D01*
X157674425Y-98601189D01*
X157674427Y-98601191D01*
X157801135Y-98669761D01*
X157872426Y-98708342D01*
X158085365Y-98781444D01*
X158307431Y-98818500D01*
X158532569Y-98818500D01*
X158754635Y-98781444D01*
X158967574Y-98708342D01*
X159165576Y-98601189D01*
X159343240Y-98462906D01*
X159464594Y-98331082D01*
X159495715Y-98297276D01*
X159495715Y-98297275D01*
X159495722Y-98297268D01*
X159586193Y-98158790D01*
X159639338Y-98113437D01*
X159708569Y-98104013D01*
X159771905Y-98133515D01*
X159793804Y-98158787D01*
X159884278Y-98297268D01*
X159884283Y-98297273D01*
X159884284Y-98297276D01*
X160010968Y-98434889D01*
X160036760Y-98462906D01*
X160214424Y-98601189D01*
X160214425Y-98601189D01*
X160214427Y-98601191D01*
X160341135Y-98669761D01*
X160412426Y-98708342D01*
X160625365Y-98781444D01*
X160847431Y-98818500D01*
X161072569Y-98818500D01*
X161294635Y-98781444D01*
X161507574Y-98708342D01*
X161705576Y-98601189D01*
X161883240Y-98462906D01*
X162004594Y-98331082D01*
X162035715Y-98297276D01*
X162035715Y-98297275D01*
X162035722Y-98297268D01*
X162126193Y-98158790D01*
X162179338Y-98113437D01*
X162248569Y-98104013D01*
X162311905Y-98133515D01*
X162333804Y-98158787D01*
X162424278Y-98297268D01*
X162424283Y-98297273D01*
X162424284Y-98297276D01*
X162550968Y-98434889D01*
X162576760Y-98462906D01*
X162754424Y-98601189D01*
X162754425Y-98601189D01*
X162754427Y-98601191D01*
X162881135Y-98669761D01*
X162952426Y-98708342D01*
X163165365Y-98781444D01*
X163387431Y-98818500D01*
X163612569Y-98818500D01*
X163834635Y-98781444D01*
X164047574Y-98708342D01*
X164245576Y-98601189D01*
X164423240Y-98462906D01*
X164544594Y-98331082D01*
X164575715Y-98297276D01*
X164575717Y-98297273D01*
X164575722Y-98297268D01*
X164698860Y-98108791D01*
X164789296Y-97902616D01*
X164844564Y-97684368D01*
X164847164Y-97652993D01*
X164863156Y-97460005D01*
X164863156Y-97459994D01*
X164844565Y-97235640D01*
X164844563Y-97235628D01*
X164789296Y-97017385D01*
X164779071Y-96994075D01*
X164698860Y-96811209D01*
X164682706Y-96786484D01*
X164575723Y-96622734D01*
X164575715Y-96622723D01*
X164423243Y-96457097D01*
X164423238Y-96457092D01*
X164245577Y-96318812D01*
X164245572Y-96318808D01*
X164047580Y-96211661D01*
X164047577Y-96211659D01*
X164047574Y-96211658D01*
X164047571Y-96211657D01*
X164047569Y-96211656D01*
X163834637Y-96138556D01*
X163612569Y-96101500D01*
X163387431Y-96101500D01*
X163165362Y-96138556D01*
X162952430Y-96211656D01*
X162952419Y-96211661D01*
X162754427Y-96318808D01*
X162754422Y-96318812D01*
X162576761Y-96457092D01*
X162576756Y-96457097D01*
X162424284Y-96622723D01*
X162424276Y-96622734D01*
X162333808Y-96761206D01*
X162280662Y-96806562D01*
X162211431Y-96815986D01*
X162148095Y-96786484D01*
X162126192Y-96761206D01*
X162035723Y-96622734D01*
X162035715Y-96622723D01*
X161883243Y-96457097D01*
X161883238Y-96457092D01*
X161705577Y-96318812D01*
X161705572Y-96318808D01*
X161507580Y-96211661D01*
X161507577Y-96211659D01*
X161507574Y-96211658D01*
X161507571Y-96211657D01*
X161507569Y-96211656D01*
X161294637Y-96138556D01*
X161072569Y-96101500D01*
X160847431Y-96101500D01*
X160625362Y-96138556D01*
X160412430Y-96211656D01*
X160412419Y-96211661D01*
X160214427Y-96318808D01*
X160214422Y-96318812D01*
X160036761Y-96457092D01*
X160036756Y-96457097D01*
X159884284Y-96622723D01*
X159884276Y-96622734D01*
X159793808Y-96761206D01*
X159740662Y-96806562D01*
X159671431Y-96815986D01*
X159608095Y-96786484D01*
X159586192Y-96761206D01*
X159495723Y-96622734D01*
X159495715Y-96622723D01*
X159343243Y-96457097D01*
X159343238Y-96457092D01*
X159165577Y-96318812D01*
X159165572Y-96318808D01*
X158967580Y-96211661D01*
X158967577Y-96211659D01*
X158967574Y-96211658D01*
X158967571Y-96211657D01*
X158967569Y-96211656D01*
X158754637Y-96138556D01*
X158532569Y-96101500D01*
X158307431Y-96101500D01*
X158085362Y-96138556D01*
X157872430Y-96211656D01*
X157872419Y-96211661D01*
X157674427Y-96318808D01*
X157674422Y-96318812D01*
X157496761Y-96457092D01*
X157496756Y-96457097D01*
X157344284Y-96622723D01*
X157344276Y-96622734D01*
X157253808Y-96761206D01*
X157200662Y-96806562D01*
X157131431Y-96815986D01*
X157068095Y-96786484D01*
X157046192Y-96761206D01*
X156955723Y-96622734D01*
X156955715Y-96622723D01*
X156803243Y-96457097D01*
X156803238Y-96457092D01*
X156625577Y-96318812D01*
X156625572Y-96318808D01*
X156427580Y-96211661D01*
X156427577Y-96211659D01*
X156427574Y-96211658D01*
X156427571Y-96211657D01*
X156427569Y-96211656D01*
X156214637Y-96138556D01*
X155992569Y-96101500D01*
X155767431Y-96101500D01*
X155545362Y-96138556D01*
X155332430Y-96211656D01*
X155332419Y-96211661D01*
X155134427Y-96318808D01*
X155134422Y-96318812D01*
X154956761Y-96457092D01*
X154956756Y-96457097D01*
X154804284Y-96622723D01*
X154804276Y-96622734D01*
X154713808Y-96761206D01*
X154660662Y-96806562D01*
X154591431Y-96815986D01*
X154528095Y-96786484D01*
X154506192Y-96761206D01*
X154415723Y-96622734D01*
X154415715Y-96622723D01*
X154263243Y-96457097D01*
X154263238Y-96457092D01*
X154085577Y-96318812D01*
X154085572Y-96318808D01*
X153887580Y-96211661D01*
X153887577Y-96211659D01*
X153887574Y-96211658D01*
X153887571Y-96211657D01*
X153887569Y-96211656D01*
X153674637Y-96138556D01*
X153452569Y-96101500D01*
X153227431Y-96101500D01*
X153005362Y-96138556D01*
X152792430Y-96211656D01*
X152792419Y-96211661D01*
X152594427Y-96318808D01*
X152594422Y-96318812D01*
X152416761Y-96457092D01*
X152353548Y-96525760D01*
X152293661Y-96561750D01*
X152223823Y-96559649D01*
X152166207Y-96520124D01*
X152146138Y-96485110D01*
X152100889Y-96363796D01*
X152067214Y-96318812D01*
X152013261Y-96246739D01*
X151896204Y-96159111D01*
X151895172Y-96158726D01*
X151759203Y-96108011D01*
X151698654Y-96101500D01*
X151698638Y-96101500D01*
X149901362Y-96101500D01*
X149901345Y-96101500D01*
X149840797Y-96108011D01*
X149840795Y-96108011D01*
X149703795Y-96159111D01*
X149586739Y-96246739D01*
X149499111Y-96363795D01*
X149448011Y-96500795D01*
X149448011Y-96500797D01*
X149441500Y-96561345D01*
X146739212Y-96561345D01*
X146643243Y-96457097D01*
X146643238Y-96457092D01*
X146465577Y-96318812D01*
X146465572Y-96318808D01*
X146267580Y-96211661D01*
X146267577Y-96211659D01*
X146267574Y-96211658D01*
X146267571Y-96211657D01*
X146267569Y-96211656D01*
X146054637Y-96138556D01*
X145832569Y-96101500D01*
X145607431Y-96101500D01*
X145385362Y-96138556D01*
X145172430Y-96211656D01*
X145172419Y-96211661D01*
X144974427Y-96318808D01*
X144974422Y-96318812D01*
X144796761Y-96457092D01*
X144796756Y-96457097D01*
X144644284Y-96622723D01*
X144644276Y-96622734D01*
X144550251Y-96766650D01*
X144497105Y-96812007D01*
X144427873Y-96821430D01*
X144364538Y-96791928D01*
X144344868Y-96769951D01*
X144218113Y-96588926D01*
X144218108Y-96588920D01*
X144051082Y-96421894D01*
X143857578Y-96286399D01*
X143643492Y-96186570D01*
X143643486Y-96186567D01*
X143430000Y-96129364D01*
X143430000Y-97026988D01*
X143372993Y-96994075D01*
X143245826Y-96960000D01*
X143114174Y-96960000D01*
X142987007Y-96994075D01*
X142930000Y-97026988D01*
X142930000Y-96129364D01*
X142929999Y-96129364D01*
X142716513Y-96186567D01*
X142716507Y-96186570D01*
X142502422Y-96286399D01*
X142502420Y-96286400D01*
X142308926Y-96421886D01*
X142308920Y-96421891D01*
X142141891Y-96588920D01*
X142141890Y-96588922D01*
X142011575Y-96775031D01*
X141956998Y-96818655D01*
X141887499Y-96825848D01*
X141825145Y-96794326D01*
X141808425Y-96775031D01*
X141678109Y-96588922D01*
X141678108Y-96588920D01*
X141511082Y-96421894D01*
X141317578Y-96286399D01*
X141103492Y-96186570D01*
X141103486Y-96186567D01*
X140890000Y-96129364D01*
X140890000Y-97026988D01*
X140832993Y-96994075D01*
X140705826Y-96960000D01*
X140574174Y-96960000D01*
X140447007Y-96994075D01*
X140390000Y-97026988D01*
X140390000Y-96129364D01*
X140389999Y-96129364D01*
X140176513Y-96186567D01*
X140176507Y-96186570D01*
X139962422Y-96286399D01*
X139962420Y-96286400D01*
X139768926Y-96421886D01*
X139768920Y-96421891D01*
X139601891Y-96588920D01*
X139601890Y-96588922D01*
X139475131Y-96769952D01*
X139420554Y-96813577D01*
X139351055Y-96820769D01*
X139288701Y-96789247D01*
X139269752Y-96766656D01*
X139175722Y-96622732D01*
X139175715Y-96622725D01*
X139175715Y-96622723D01*
X139023243Y-96457097D01*
X139023238Y-96457092D01*
X138845577Y-96318812D01*
X138845572Y-96318808D01*
X138647580Y-96211661D01*
X138647577Y-96211659D01*
X138647574Y-96211658D01*
X138647571Y-96211657D01*
X138647569Y-96211656D01*
X138434637Y-96138556D01*
X138212569Y-96101500D01*
X137987431Y-96101500D01*
X137765362Y-96138556D01*
X137552430Y-96211656D01*
X137552419Y-96211661D01*
X137354427Y-96318808D01*
X137354422Y-96318812D01*
X137176761Y-96457092D01*
X137176756Y-96457097D01*
X137024284Y-96622723D01*
X137024276Y-96622734D01*
X136933808Y-96761206D01*
X136880662Y-96806562D01*
X136811431Y-96815986D01*
X136748095Y-96786484D01*
X136726192Y-96761206D01*
X136635723Y-96622734D01*
X136635715Y-96622723D01*
X136483243Y-96457097D01*
X136483238Y-96457092D01*
X136305577Y-96318812D01*
X136305572Y-96318808D01*
X136107580Y-96211661D01*
X136107577Y-96211659D01*
X136107574Y-96211658D01*
X136107571Y-96211657D01*
X136107569Y-96211656D01*
X135894637Y-96138556D01*
X135672569Y-96101500D01*
X135447431Y-96101500D01*
X135225362Y-96138556D01*
X135012430Y-96211656D01*
X135012419Y-96211661D01*
X134814427Y-96318808D01*
X134814422Y-96318812D01*
X134636761Y-96457092D01*
X134636756Y-96457097D01*
X134484284Y-96622723D01*
X134484276Y-96622734D01*
X134393808Y-96761206D01*
X134340662Y-96806562D01*
X134271431Y-96815986D01*
X134208095Y-96786484D01*
X134186192Y-96761206D01*
X134095723Y-96622734D01*
X134095715Y-96622723D01*
X133943243Y-96457097D01*
X133943238Y-96457092D01*
X133765577Y-96318812D01*
X133765572Y-96318808D01*
X133567580Y-96211661D01*
X133567577Y-96211659D01*
X133567574Y-96211658D01*
X133567571Y-96211657D01*
X133567569Y-96211656D01*
X133354637Y-96138556D01*
X133132569Y-96101500D01*
X132907431Y-96101500D01*
X132685362Y-96138556D01*
X132472430Y-96211656D01*
X132472419Y-96211661D01*
X132274427Y-96318808D01*
X132274422Y-96318812D01*
X132096761Y-96457092D01*
X132096756Y-96457097D01*
X131944284Y-96622723D01*
X131944276Y-96622734D01*
X131853808Y-96761206D01*
X131800662Y-96806562D01*
X131731431Y-96815986D01*
X131668095Y-96786484D01*
X131646192Y-96761206D01*
X131555723Y-96622734D01*
X131555715Y-96622723D01*
X131403243Y-96457097D01*
X131403238Y-96457092D01*
X131225577Y-96318812D01*
X131225572Y-96318808D01*
X131027580Y-96211661D01*
X131027577Y-96211659D01*
X131027574Y-96211658D01*
X131027571Y-96211657D01*
X131027569Y-96211656D01*
X130814637Y-96138556D01*
X130592569Y-96101500D01*
X130367431Y-96101500D01*
X130145362Y-96138556D01*
X129932430Y-96211656D01*
X129932419Y-96211661D01*
X129734427Y-96318808D01*
X129734422Y-96318812D01*
X129556761Y-96457092D01*
X129493548Y-96525760D01*
X129433661Y-96561750D01*
X129363823Y-96559649D01*
X129306207Y-96520124D01*
X129286138Y-96485110D01*
X129240889Y-96363796D01*
X129207214Y-96318812D01*
X129153261Y-96246739D01*
X129036204Y-96159111D01*
X129035172Y-96158726D01*
X128899203Y-96108011D01*
X128838654Y-96101500D01*
X128838638Y-96101500D01*
X127041362Y-96101500D01*
X127041345Y-96101500D01*
X126980797Y-96108011D01*
X126980795Y-96108011D01*
X126843795Y-96159111D01*
X126726739Y-96246739D01*
X126639111Y-96363795D01*
X126588011Y-96500795D01*
X126588011Y-96500797D01*
X126581500Y-96561345D01*
X100075500Y-96561345D01*
X100075500Y-92120000D01*
X112878637Y-92120000D01*
X112898069Y-92416470D01*
X112898071Y-92416482D01*
X112956030Y-92707863D01*
X112956035Y-92707883D01*
X113051530Y-92989205D01*
X113051534Y-92989215D01*
X113182939Y-93255678D01*
X113182942Y-93255682D01*
X113282951Y-93405356D01*
X113348008Y-93502719D01*
X113543903Y-93726096D01*
X113696613Y-93860018D01*
X113767282Y-93921993D01*
X114014318Y-94087058D01*
X114014321Y-94087060D01*
X114280784Y-94218465D01*
X114280794Y-94218469D01*
X114562116Y-94313964D01*
X114562128Y-94313968D01*
X114853528Y-94371931D01*
X115150000Y-94391363D01*
X115446472Y-94371931D01*
X115737872Y-94313968D01*
X115873852Y-94267809D01*
X116019205Y-94218469D01*
X116019215Y-94218465D01*
X116285678Y-94087060D01*
X116285678Y-94087059D01*
X116285682Y-94087058D01*
X116532718Y-93921993D01*
X116756096Y-93726096D01*
X116951993Y-93502718D01*
X117117058Y-93255682D01*
X117248466Y-92989213D01*
X117264245Y-92942731D01*
X117327516Y-92756338D01*
X117343968Y-92707872D01*
X117401931Y-92416472D01*
X117421363Y-92120000D01*
X117401931Y-91823528D01*
X117343968Y-91532128D01*
X117326067Y-91479392D01*
X117248469Y-91250794D01*
X117248465Y-91250784D01*
X117117060Y-90984322D01*
X117027309Y-90850001D01*
X116951993Y-90737282D01*
X116859152Y-90631417D01*
X116756096Y-90513903D01*
X116532719Y-90318008D01*
X116285678Y-90152939D01*
X116019215Y-90021534D01*
X116019205Y-90021530D01*
X115737883Y-89926035D01*
X115737874Y-89926032D01*
X115737872Y-89926032D01*
X115737867Y-89926031D01*
X115737863Y-89926030D01*
X115446482Y-89868071D01*
X115446472Y-89868069D01*
X115150000Y-89848637D01*
X114853528Y-89868069D01*
X114853522Y-89868070D01*
X114853517Y-89868071D01*
X114562136Y-89926030D01*
X114562116Y-89926035D01*
X114280794Y-90021530D01*
X114280784Y-90021534D01*
X114014322Y-90152939D01*
X113767280Y-90318008D01*
X113543903Y-90513903D01*
X113348008Y-90737280D01*
X113182939Y-90984322D01*
X113051534Y-91250784D01*
X113051530Y-91250794D01*
X112956035Y-91532116D01*
X112956030Y-91532136D01*
X112937000Y-91627808D01*
X112898069Y-91823528D01*
X112889870Y-91948614D01*
X112878637Y-92120000D01*
X100075500Y-92120000D01*
X100075500Y-76880000D01*
X112878637Y-76880000D01*
X112898069Y-77176470D01*
X112898071Y-77176482D01*
X112956030Y-77467863D01*
X112956035Y-77467883D01*
X113051530Y-77749205D01*
X113051534Y-77749215D01*
X113182939Y-78015678D01*
X113348008Y-78262719D01*
X113543903Y-78486096D01*
X113654909Y-78583445D01*
X113767282Y-78681993D01*
X113895068Y-78767377D01*
X114014321Y-78847060D01*
X114280784Y-78978465D01*
X114280794Y-78978469D01*
X114562116Y-79073964D01*
X114562128Y-79073968D01*
X114853528Y-79131931D01*
X115150000Y-79151363D01*
X115446472Y-79131931D01*
X115737872Y-79073968D01*
X115955776Y-79000000D01*
X116019205Y-78978469D01*
X116019215Y-78978465D01*
X116056671Y-78959994D01*
X116285682Y-78847058D01*
X116532718Y-78681993D01*
X116756096Y-78486096D01*
X116951993Y-78262718D01*
X117027311Y-78149997D01*
X126582677Y-78149997D01*
X126582677Y-78150002D01*
X126601929Y-78370062D01*
X126601930Y-78370070D01*
X126659104Y-78583445D01*
X126659105Y-78583447D01*
X126659106Y-78583450D01*
X126705057Y-78681993D01*
X126752466Y-78783662D01*
X126752468Y-78783666D01*
X126879170Y-78964615D01*
X126879175Y-78964621D01*
X127035378Y-79120824D01*
X127035384Y-79120829D01*
X127216333Y-79247531D01*
X127216335Y-79247532D01*
X127216338Y-79247534D01*
X127335748Y-79303215D01*
X127345189Y-79307618D01*
X127397628Y-79353790D01*
X127416780Y-79420984D01*
X127396564Y-79487865D01*
X127345189Y-79532382D01*
X127216340Y-79592465D01*
X127216338Y-79592466D01*
X127035377Y-79719175D01*
X126879175Y-79875377D01*
X126752466Y-80056338D01*
X126752465Y-80056340D01*
X126659107Y-80256548D01*
X126659104Y-80256554D01*
X126601930Y-80469929D01*
X126601929Y-80469937D01*
X126582677Y-80689997D01*
X126582677Y-80690002D01*
X126601929Y-80910062D01*
X126601930Y-80910070D01*
X126659104Y-81123445D01*
X126659105Y-81123447D01*
X126659106Y-81123450D01*
X126718117Y-81250000D01*
X126752466Y-81323662D01*
X126752468Y-81323666D01*
X126879170Y-81504615D01*
X126879175Y-81504621D01*
X127035378Y-81660824D01*
X127035384Y-81660829D01*
X127216333Y-81787531D01*
X127216335Y-81787532D01*
X127216338Y-81787534D01*
X127335748Y-81843215D01*
X127345189Y-81847618D01*
X127397628Y-81893790D01*
X127416780Y-81960984D01*
X127396564Y-82027865D01*
X127345189Y-82072382D01*
X127216340Y-82132465D01*
X127216338Y-82132466D01*
X127035377Y-82259175D01*
X126879175Y-82415377D01*
X126752466Y-82596338D01*
X126752465Y-82596340D01*
X126659107Y-82796548D01*
X126659104Y-82796554D01*
X126601930Y-83009929D01*
X126601929Y-83009937D01*
X126582677Y-83229997D01*
X126582677Y-83230002D01*
X126601929Y-83450062D01*
X126601930Y-83450070D01*
X126659104Y-83663445D01*
X126659105Y-83663447D01*
X126659106Y-83663450D01*
X126702497Y-83756502D01*
X126752466Y-83863662D01*
X126752468Y-83863666D01*
X126879170Y-84044615D01*
X126879175Y-84044621D01*
X127035378Y-84200824D01*
X127035384Y-84200829D01*
X127216333Y-84327531D01*
X127216335Y-84327532D01*
X127216338Y-84327534D01*
X127335748Y-84383215D01*
X127345189Y-84387618D01*
X127397628Y-84433790D01*
X127416780Y-84500984D01*
X127396564Y-84567865D01*
X127345189Y-84612382D01*
X127216340Y-84672465D01*
X127216338Y-84672466D01*
X127035377Y-84799175D01*
X126879175Y-84955377D01*
X126752466Y-85136338D01*
X126752465Y-85136340D01*
X126659107Y-85336548D01*
X126659104Y-85336554D01*
X126601930Y-85549929D01*
X126601929Y-85549937D01*
X126582677Y-85769997D01*
X126582677Y-85770002D01*
X126601929Y-85990062D01*
X126601930Y-85990070D01*
X126659104Y-86203445D01*
X126659105Y-86203447D01*
X126659106Y-86203450D01*
X126752466Y-86403662D01*
X126752468Y-86403666D01*
X126879170Y-86584615D01*
X126879175Y-86584621D01*
X127035378Y-86740824D01*
X127035384Y-86740829D01*
X127216333Y-86867531D01*
X127216335Y-86867532D01*
X127216338Y-86867534D01*
X127335748Y-86923215D01*
X127345189Y-86927618D01*
X127397628Y-86973790D01*
X127416780Y-87040984D01*
X127396564Y-87107865D01*
X127345189Y-87152382D01*
X127216340Y-87212465D01*
X127216338Y-87212466D01*
X127035377Y-87339175D01*
X126879175Y-87495377D01*
X126752466Y-87676338D01*
X126752465Y-87676340D01*
X126659107Y-87876548D01*
X126659104Y-87876554D01*
X126601930Y-88089929D01*
X126601929Y-88089937D01*
X126582677Y-88309997D01*
X126582677Y-88310002D01*
X126601929Y-88530062D01*
X126601930Y-88530070D01*
X126659104Y-88743445D01*
X126659105Y-88743447D01*
X126659106Y-88743450D01*
X126752466Y-88943662D01*
X126752468Y-88943666D01*
X126879170Y-89124615D01*
X126879175Y-89124621D01*
X127035378Y-89280824D01*
X127035384Y-89280829D01*
X127216333Y-89407531D01*
X127216335Y-89407532D01*
X127216338Y-89407534D01*
X127355245Y-89472307D01*
X127407685Y-89518479D01*
X127426837Y-89585672D01*
X127406622Y-89652554D01*
X127355246Y-89697071D01*
X127220606Y-89759855D01*
X127220604Y-89759856D01*
X127157556Y-89804003D01*
X127157555Y-89804003D01*
X127720590Y-90367037D01*
X127657007Y-90384075D01*
X127542993Y-90449901D01*
X127449901Y-90542993D01*
X127384075Y-90657007D01*
X127367037Y-90720590D01*
X126804003Y-90157555D01*
X126804003Y-90157556D01*
X126759856Y-90220604D01*
X126759855Y-90220606D01*
X126667124Y-90419466D01*
X126667121Y-90419475D01*
X126610335Y-90631407D01*
X126610333Y-90631417D01*
X126591210Y-90849999D01*
X126591210Y-90850000D01*
X126610333Y-91068582D01*
X126610335Y-91068592D01*
X126667121Y-91280524D01*
X126667125Y-91280533D01*
X126759854Y-91479392D01*
X126804003Y-91542443D01*
X127367037Y-90979409D01*
X127384075Y-91042993D01*
X127449901Y-91157007D01*
X127542993Y-91250099D01*
X127657007Y-91315925D01*
X127720590Y-91332962D01*
X127157555Y-91895996D01*
X127220601Y-91940142D01*
X127220609Y-91940146D01*
X127355245Y-92002928D01*
X127407685Y-92049100D01*
X127426837Y-92116294D01*
X127406621Y-92183175D01*
X127355246Y-92227692D01*
X127216340Y-92292465D01*
X127216338Y-92292466D01*
X127035377Y-92419175D01*
X126879175Y-92575377D01*
X126752466Y-92756338D01*
X126752465Y-92756340D01*
X126659107Y-92956548D01*
X126659104Y-92956554D01*
X126601930Y-93169929D01*
X126601929Y-93169937D01*
X126582677Y-93389997D01*
X126582677Y-93390002D01*
X126601929Y-93610062D01*
X126601930Y-93610070D01*
X126659104Y-93823445D01*
X126659105Y-93823447D01*
X126659106Y-93823450D01*
X126705057Y-93921993D01*
X126752466Y-94023662D01*
X126752468Y-94023666D01*
X126879170Y-94204615D01*
X126879175Y-94204621D01*
X127035378Y-94360824D01*
X127035384Y-94360829D01*
X127216333Y-94487531D01*
X127216335Y-94487532D01*
X127216338Y-94487534D01*
X127416550Y-94580894D01*
X127629932Y-94638070D01*
X127787123Y-94651822D01*
X127849998Y-94657323D01*
X127850000Y-94657323D01*
X127850002Y-94657323D01*
X127905017Y-94652509D01*
X128070068Y-94638070D01*
X128283450Y-94580894D01*
X128483662Y-94487534D01*
X128664620Y-94360826D01*
X128820826Y-94204620D01*
X128947534Y-94023662D01*
X129040894Y-93823450D01*
X129098070Y-93610068D01*
X129117323Y-93390000D01*
X129098070Y-93169932D01*
X129040894Y-92956550D01*
X128947534Y-92756339D01*
X128820826Y-92575380D01*
X128664620Y-92419174D01*
X128664616Y-92419171D01*
X128664615Y-92419170D01*
X128559749Y-92345742D01*
X142671500Y-92345742D01*
X142671500Y-93654257D01*
X142712175Y-93858745D01*
X142712177Y-93858753D01*
X142791967Y-94051385D01*
X142791972Y-94051394D01*
X142907808Y-94224754D01*
X142907811Y-94224758D01*
X143055241Y-94372188D01*
X143055245Y-94372191D01*
X143228605Y-94488027D01*
X143228611Y-94488030D01*
X143228612Y-94488031D01*
X143421247Y-94567823D01*
X143625742Y-94608499D01*
X143625746Y-94608500D01*
X143625747Y-94608500D01*
X143834254Y-94608500D01*
X143834255Y-94608499D01*
X144038753Y-94567823D01*
X144231388Y-94488031D01*
X144296108Y-94444785D01*
X144362785Y-94423907D01*
X144430165Y-94442391D01*
X144433892Y-94444786D01*
X144498604Y-94488026D01*
X144498606Y-94488027D01*
X144498612Y-94488031D01*
X144691247Y-94567823D01*
X144895742Y-94608499D01*
X144895746Y-94608500D01*
X144895747Y-94608500D01*
X145104254Y-94608500D01*
X145104255Y-94608499D01*
X145308753Y-94567823D01*
X145501388Y-94488031D01*
X145573761Y-94439672D01*
X145640434Y-94418795D01*
X145707814Y-94437279D01*
X145711541Y-94439674D01*
X145772629Y-94480493D01*
X145772641Y-94480499D01*
X145963723Y-94559648D01*
X145963725Y-94559649D01*
X146020000Y-94570842D01*
X146020000Y-93860018D01*
X146022383Y-93835827D01*
X146024846Y-93823445D01*
X146058500Y-93654253D01*
X146058500Y-93380185D01*
X146102096Y-93405356D01*
X146212731Y-93435000D01*
X146327269Y-93435000D01*
X146437904Y-93405356D01*
X146520000Y-93357957D01*
X146520000Y-94570842D01*
X146576274Y-94559649D01*
X146576276Y-94559648D01*
X146767358Y-94480499D01*
X146767368Y-94480494D01*
X146939335Y-94365589D01*
X146939339Y-94365586D01*
X147085586Y-94219339D01*
X147085589Y-94219335D01*
X147200494Y-94047368D01*
X147200499Y-94047358D01*
X147279649Y-93856274D01*
X147279651Y-93856266D01*
X147319999Y-93653420D01*
X147320000Y-93653417D01*
X147320000Y-93250000D01*
X146627958Y-93250000D01*
X146675356Y-93167904D01*
X146705000Y-93057269D01*
X146705000Y-92942731D01*
X146675356Y-92832096D01*
X146627958Y-92750000D01*
X147320000Y-92750000D01*
X147320000Y-92346583D01*
X147319999Y-92346579D01*
X147279651Y-92143733D01*
X147279649Y-92143725D01*
X147200499Y-91952641D01*
X147200494Y-91952631D01*
X147085589Y-91780664D01*
X147085586Y-91780660D01*
X146939339Y-91634413D01*
X146939335Y-91634410D01*
X146767368Y-91519505D01*
X146767358Y-91519500D01*
X146576272Y-91440349D01*
X146576267Y-91440347D01*
X146520000Y-91429155D01*
X146520000Y-92642042D01*
X146437904Y-92594644D01*
X146327269Y-92565000D01*
X146212731Y-92565000D01*
X146102096Y-92594644D01*
X146058500Y-92619814D01*
X146058500Y-92345747D01*
X146022383Y-92164171D01*
X146020000Y-92139980D01*
X146020000Y-91429156D01*
X146019999Y-91429155D01*
X145963732Y-91440347D01*
X145963727Y-91440349D01*
X145772637Y-91519502D01*
X145711538Y-91560326D01*
X145644861Y-91581203D01*
X145577481Y-91562717D01*
X145573758Y-91560325D01*
X145501393Y-91511972D01*
X145501385Y-91511967D01*
X145308753Y-91432177D01*
X145308745Y-91432175D01*
X145104257Y-91391500D01*
X145104253Y-91391500D01*
X144895747Y-91391500D01*
X144895742Y-91391500D01*
X144691254Y-91432175D01*
X144691246Y-91432177D01*
X144498612Y-91511968D01*
X144433891Y-91555214D01*
X144367213Y-91576092D01*
X144299833Y-91557607D01*
X144296109Y-91555214D01*
X144231387Y-91511968D01*
X144038753Y-91432177D01*
X144038745Y-91432175D01*
X143834257Y-91391500D01*
X143834253Y-91391500D01*
X143625747Y-91391500D01*
X143625742Y-91391500D01*
X143421254Y-91432175D01*
X143421246Y-91432177D01*
X143228614Y-91511967D01*
X143228605Y-91511972D01*
X143055245Y-91627808D01*
X143055241Y-91627811D01*
X142907811Y-91775241D01*
X142907808Y-91775245D01*
X142791972Y-91948605D01*
X142791967Y-91948614D01*
X142712177Y-92141246D01*
X142712175Y-92141254D01*
X142671500Y-92345742D01*
X128559749Y-92345742D01*
X128483666Y-92292468D01*
X128483662Y-92292466D01*
X128344753Y-92227692D01*
X128292314Y-92181520D01*
X128273162Y-92114326D01*
X128293378Y-92047445D01*
X128344754Y-92002928D01*
X128479390Y-91940146D01*
X128542443Y-91895995D01*
X127979410Y-91332962D01*
X128042993Y-91315925D01*
X128157007Y-91250099D01*
X128250099Y-91157007D01*
X128315925Y-91042993D01*
X128332962Y-90979409D01*
X128895995Y-91542442D01*
X128940145Y-91479392D01*
X129032874Y-91280533D01*
X129032878Y-91280524D01*
X129089664Y-91068592D01*
X129089666Y-91068582D01*
X129108790Y-90850000D01*
X129108790Y-90849999D01*
X129089666Y-90631417D01*
X129089664Y-90631407D01*
X129032878Y-90419475D01*
X129032874Y-90419466D01*
X128940144Y-90220605D01*
X128940142Y-90220601D01*
X128895996Y-90157555D01*
X128332962Y-90720589D01*
X128315925Y-90657007D01*
X128250099Y-90542993D01*
X128157007Y-90449901D01*
X128042993Y-90384075D01*
X127979409Y-90367037D01*
X128542443Y-89804003D01*
X128479392Y-89759854D01*
X128344753Y-89697071D01*
X128292314Y-89650899D01*
X128273162Y-89583705D01*
X128293378Y-89516824D01*
X128344752Y-89472308D01*
X128483662Y-89407534D01*
X128664620Y-89280826D01*
X128820826Y-89124620D01*
X128947534Y-88943662D01*
X129040894Y-88743450D01*
X129098070Y-88530068D01*
X129117323Y-88310000D01*
X129098070Y-88089932D01*
X129040894Y-87876550D01*
X128947534Y-87676339D01*
X128820826Y-87495380D01*
X128664620Y-87339174D01*
X128664616Y-87339171D01*
X128664615Y-87339170D01*
X128483666Y-87212468D01*
X128483658Y-87212464D01*
X128354811Y-87152382D01*
X128302371Y-87106210D01*
X128283219Y-87039017D01*
X128303435Y-86972135D01*
X128354811Y-86927618D01*
X128360802Y-86924824D01*
X128483662Y-86867534D01*
X128664620Y-86740826D01*
X128820826Y-86584620D01*
X128947534Y-86403662D01*
X129040894Y-86203450D01*
X129098070Y-85990068D01*
X129117323Y-85770000D01*
X129098070Y-85549932D01*
X129040894Y-85336550D01*
X128947534Y-85136339D01*
X128820826Y-84955380D01*
X128664620Y-84799174D01*
X128664616Y-84799171D01*
X128664615Y-84799170D01*
X128483666Y-84672468D01*
X128483658Y-84672464D01*
X128354811Y-84612382D01*
X128302371Y-84566210D01*
X128283219Y-84499017D01*
X128303435Y-84432135D01*
X128354811Y-84387618D01*
X128360802Y-84384824D01*
X128483662Y-84327534D01*
X128664620Y-84200826D01*
X128820826Y-84044620D01*
X128947534Y-83863662D01*
X129040894Y-83663450D01*
X129098070Y-83450068D01*
X129117323Y-83230000D01*
X129098070Y-83009932D01*
X129040894Y-82796550D01*
X128947534Y-82596339D01*
X128884180Y-82505859D01*
X128820827Y-82415381D01*
X128767801Y-82362355D01*
X128664620Y-82259174D01*
X128664616Y-82259171D01*
X128664615Y-82259170D01*
X128483666Y-82132468D01*
X128483658Y-82132464D01*
X128354811Y-82072382D01*
X128302371Y-82026210D01*
X128283219Y-81959017D01*
X128303435Y-81892135D01*
X128354811Y-81847618D01*
X128360802Y-81844824D01*
X128483662Y-81787534D01*
X128664620Y-81660826D01*
X128820826Y-81504620D01*
X128947534Y-81323662D01*
X129040894Y-81123450D01*
X129098070Y-80910068D01*
X129117323Y-80690000D01*
X129098070Y-80469932D01*
X129040894Y-80256550D01*
X128947534Y-80056339D01*
X128820826Y-79875380D01*
X128664620Y-79719174D01*
X128664616Y-79719171D01*
X128664615Y-79719170D01*
X128483666Y-79592468D01*
X128483658Y-79592464D01*
X128354811Y-79532382D01*
X128302371Y-79486210D01*
X128283219Y-79419017D01*
X128303435Y-79352135D01*
X128354811Y-79307618D01*
X128360802Y-79304824D01*
X128483662Y-79247534D01*
X128664620Y-79120826D01*
X128820826Y-78964620D01*
X128824065Y-78959994D01*
X136086673Y-78959994D01*
X136086673Y-78960005D01*
X136105948Y-79192622D01*
X136163251Y-79418907D01*
X136257015Y-79632668D01*
X136384683Y-79828080D01*
X136478073Y-79929528D01*
X136508995Y-79992183D01*
X136501135Y-80061609D01*
X136456988Y-80115764D01*
X136430177Y-80129693D01*
X136357911Y-80156646D01*
X136357906Y-80156649D01*
X136242812Y-80242809D01*
X136242809Y-80242812D01*
X136156649Y-80357906D01*
X136156645Y-80357913D01*
X136106403Y-80492620D01*
X136106401Y-80492627D01*
X136100000Y-80552155D01*
X136100000Y-81250000D01*
X137124722Y-81250000D01*
X137080667Y-81326306D01*
X137050000Y-81440756D01*
X137050000Y-81559244D01*
X137080667Y-81673694D01*
X137124722Y-81750000D01*
X136100000Y-81750000D01*
X136100000Y-82447844D01*
X136106401Y-82507372D01*
X136106403Y-82507379D01*
X136156645Y-82642086D01*
X136156649Y-82642093D01*
X136242809Y-82757187D01*
X136242812Y-82757190D01*
X136357906Y-82843350D01*
X136357913Y-82843354D01*
X136492620Y-82893596D01*
X136492627Y-82893598D01*
X136552155Y-82899999D01*
X136552172Y-82900000D01*
X137250000Y-82900000D01*
X137250000Y-81875277D01*
X137326306Y-81919333D01*
X137440756Y-81950000D01*
X137559244Y-81950000D01*
X137673694Y-81919333D01*
X137750000Y-81875277D01*
X137750000Y-82900000D01*
X138447828Y-82900000D01*
X138447844Y-82899999D01*
X138507372Y-82893598D01*
X138507379Y-82893596D01*
X138642086Y-82843354D01*
X138642093Y-82843350D01*
X138757187Y-82757190D01*
X138757190Y-82757187D01*
X138843350Y-82642093D01*
X138843354Y-82642086D01*
X138893596Y-82507379D01*
X138893598Y-82507372D01*
X138899999Y-82447844D01*
X138900000Y-82447827D01*
X138900000Y-81750000D01*
X137875278Y-81750000D01*
X137919333Y-81673694D01*
X137950000Y-81559244D01*
X137950000Y-81440756D01*
X137919333Y-81326306D01*
X137875278Y-81250000D01*
X138900000Y-81250000D01*
X138900000Y-80552172D01*
X138899999Y-80552155D01*
X138893598Y-80492627D01*
X138893596Y-80492620D01*
X138843354Y-80357913D01*
X138843350Y-80357906D01*
X138757190Y-80242812D01*
X138757187Y-80242809D01*
X138642093Y-80156649D01*
X138642086Y-80156645D01*
X138569823Y-80129693D01*
X138513889Y-80087822D01*
X138489472Y-80022357D01*
X138504324Y-79954084D01*
X138521927Y-79929528D01*
X138615313Y-79828084D01*
X138615316Y-79828080D01*
X138742984Y-79632669D01*
X138836749Y-79418907D01*
X138894051Y-79192626D01*
X138910012Y-79000005D01*
X138910013Y-78999994D01*
X143586673Y-78999994D01*
X143586673Y-79000005D01*
X143605948Y-79232622D01*
X143663251Y-79458907D01*
X143757015Y-79672668D01*
X143884683Y-79868080D01*
X143978073Y-79969528D01*
X144008995Y-80032183D01*
X144001135Y-80101609D01*
X143956988Y-80155764D01*
X143930177Y-80169693D01*
X143857911Y-80196646D01*
X143857906Y-80196649D01*
X143742812Y-80282809D01*
X143742809Y-80282812D01*
X143656649Y-80397906D01*
X143656645Y-80397913D01*
X143606403Y-80532620D01*
X143606401Y-80532627D01*
X143600000Y-80592155D01*
X143600000Y-81290000D01*
X144624722Y-81290000D01*
X144580667Y-81366306D01*
X144550000Y-81480756D01*
X144550000Y-81599244D01*
X144580667Y-81713694D01*
X144624722Y-81790000D01*
X143600000Y-81790000D01*
X143600000Y-82487844D01*
X143606401Y-82547372D01*
X143606403Y-82547379D01*
X143656645Y-82682086D01*
X143656649Y-82682093D01*
X143742809Y-82797187D01*
X143742812Y-82797190D01*
X143857906Y-82883350D01*
X143857913Y-82883354D01*
X143992620Y-82933596D01*
X143992627Y-82933598D01*
X144052155Y-82939999D01*
X144052172Y-82940000D01*
X144750000Y-82940000D01*
X144750000Y-81915277D01*
X144826306Y-81959333D01*
X144940756Y-81990000D01*
X145059244Y-81990000D01*
X145173694Y-81959333D01*
X145250000Y-81915277D01*
X145250000Y-82940000D01*
X145947828Y-82940000D01*
X145947844Y-82939999D01*
X146007372Y-82933598D01*
X146007379Y-82933596D01*
X146142086Y-82883354D01*
X146142093Y-82883350D01*
X146257187Y-82797190D01*
X146257190Y-82797187D01*
X146343350Y-82682093D01*
X146343354Y-82682086D01*
X146393596Y-82547379D01*
X146393598Y-82547372D01*
X146399999Y-82487844D01*
X146400000Y-82487827D01*
X146400000Y-81790000D01*
X145375278Y-81790000D01*
X145419333Y-81713694D01*
X145450000Y-81599244D01*
X145450000Y-81480756D01*
X145419333Y-81366306D01*
X145375278Y-81290000D01*
X146400000Y-81290000D01*
X146400000Y-80592172D01*
X146399999Y-80592155D01*
X146393598Y-80532627D01*
X146393596Y-80532620D01*
X146343354Y-80397913D01*
X146343350Y-80397906D01*
X146257190Y-80282812D01*
X146257187Y-80282809D01*
X146142093Y-80196649D01*
X146142086Y-80196645D01*
X146069823Y-80169693D01*
X146013889Y-80127822D01*
X145989472Y-80062357D01*
X146004324Y-79994084D01*
X146021927Y-79969528D01*
X146115313Y-79868084D01*
X146115316Y-79868080D01*
X146242984Y-79672669D01*
X146336749Y-79458907D01*
X146394051Y-79232626D01*
X146413327Y-79000000D01*
X146410395Y-78964621D01*
X146410012Y-78959994D01*
X151586673Y-78959994D01*
X151586673Y-78960005D01*
X151605948Y-79192622D01*
X151663251Y-79418907D01*
X151757015Y-79632668D01*
X151884683Y-79828080D01*
X151978073Y-79929528D01*
X152008995Y-79992183D01*
X152001135Y-80061609D01*
X151956988Y-80115764D01*
X151930177Y-80129693D01*
X151857911Y-80156646D01*
X151857906Y-80156649D01*
X151742812Y-80242809D01*
X151742809Y-80242812D01*
X151656649Y-80357906D01*
X151656645Y-80357913D01*
X151606403Y-80492620D01*
X151606401Y-80492627D01*
X151600000Y-80552155D01*
X151600000Y-81250000D01*
X152624722Y-81250000D01*
X152580667Y-81326306D01*
X152550000Y-81440756D01*
X152550000Y-81559244D01*
X152580667Y-81673694D01*
X152624722Y-81750000D01*
X151600000Y-81750000D01*
X151600000Y-82447844D01*
X151606401Y-82507372D01*
X151606403Y-82507379D01*
X151656645Y-82642086D01*
X151656649Y-82642093D01*
X151742809Y-82757187D01*
X151742812Y-82757190D01*
X151857906Y-82843350D01*
X151857913Y-82843354D01*
X151992620Y-82893596D01*
X151992627Y-82893598D01*
X152052155Y-82899999D01*
X152052172Y-82900000D01*
X152750000Y-82900000D01*
X152750000Y-81875277D01*
X152826306Y-81919333D01*
X152940756Y-81950000D01*
X153059244Y-81950000D01*
X153173694Y-81919333D01*
X153250000Y-81875277D01*
X153250000Y-82900000D01*
X153947828Y-82900000D01*
X153947844Y-82899999D01*
X154007372Y-82893598D01*
X154007379Y-82893596D01*
X154142086Y-82843354D01*
X154142093Y-82843350D01*
X154257187Y-82757190D01*
X154257190Y-82757187D01*
X154343350Y-82642093D01*
X154343354Y-82642086D01*
X154393596Y-82507379D01*
X154393598Y-82507372D01*
X154399999Y-82447844D01*
X154400000Y-82447827D01*
X154400000Y-81750000D01*
X153375278Y-81750000D01*
X153419333Y-81673694D01*
X153450000Y-81559244D01*
X153450000Y-81440756D01*
X153419333Y-81326306D01*
X153375278Y-81250000D01*
X154400000Y-81250000D01*
X154400000Y-80552172D01*
X154399999Y-80552155D01*
X154393598Y-80492627D01*
X154393596Y-80492620D01*
X154343354Y-80357913D01*
X154343350Y-80357906D01*
X154257190Y-80242812D01*
X154257187Y-80242809D01*
X154142093Y-80156649D01*
X154142086Y-80156645D01*
X154069823Y-80129693D01*
X154013889Y-80087822D01*
X153989472Y-80022357D01*
X154004324Y-79954084D01*
X154021927Y-79929528D01*
X154115313Y-79828084D01*
X154115316Y-79828080D01*
X154242984Y-79632669D01*
X154336749Y-79418907D01*
X154394051Y-79192626D01*
X154410012Y-79000005D01*
X154413327Y-78960005D01*
X154413327Y-78959994D01*
X154400476Y-78804916D01*
X154394051Y-78727374D01*
X154336749Y-78501093D01*
X154242984Y-78287331D01*
X154153263Y-78150002D01*
X154115313Y-78091915D01*
X153957223Y-77920185D01*
X153957222Y-77920184D01*
X153957220Y-77920182D01*
X153773017Y-77776810D01*
X153773015Y-77776809D01*
X153773014Y-77776808D01*
X153773011Y-77776806D01*
X153567733Y-77665716D01*
X153567730Y-77665715D01*
X153567727Y-77665713D01*
X153567721Y-77665711D01*
X153567719Y-77665710D01*
X153346954Y-77589920D01*
X153174271Y-77561105D01*
X153116712Y-77551500D01*
X152883288Y-77551500D01*
X152837240Y-77559184D01*
X152653045Y-77589920D01*
X152432280Y-77665710D01*
X152432266Y-77665716D01*
X152226988Y-77776806D01*
X152226985Y-77776808D01*
X152042781Y-77920181D01*
X152042776Y-77920185D01*
X151884686Y-78091915D01*
X151757015Y-78287331D01*
X151663251Y-78501092D01*
X151605948Y-78727377D01*
X151586673Y-78959994D01*
X146410012Y-78959994D01*
X146395401Y-78783666D01*
X146394051Y-78767374D01*
X146336749Y-78541093D01*
X146242984Y-78327331D01*
X146200770Y-78262718D01*
X146115313Y-78131915D01*
X145957223Y-77960185D01*
X145957222Y-77960184D01*
X145957220Y-77960182D01*
X145773017Y-77816810D01*
X145773015Y-77816809D01*
X145773014Y-77816808D01*
X145773011Y-77816806D01*
X145567733Y-77705716D01*
X145567730Y-77705715D01*
X145567727Y-77705713D01*
X145567721Y-77705711D01*
X145567719Y-77705710D01*
X145346954Y-77629920D01*
X145174271Y-77601105D01*
X145116712Y-77591500D01*
X144883288Y-77591500D01*
X144837240Y-77599184D01*
X144653045Y-77629920D01*
X144432280Y-77705710D01*
X144432266Y-77705716D01*
X144226988Y-77816806D01*
X144226985Y-77816808D01*
X144042781Y-77960181D01*
X144042776Y-77960185D01*
X143884686Y-78131915D01*
X143757015Y-78327331D01*
X143663251Y-78541092D01*
X143605948Y-78767377D01*
X143586673Y-78999994D01*
X138910013Y-78999994D01*
X138913327Y-78960005D01*
X138913327Y-78959994D01*
X138900476Y-78804916D01*
X138894051Y-78727374D01*
X138836749Y-78501093D01*
X138742984Y-78287331D01*
X138653263Y-78150002D01*
X138615313Y-78091915D01*
X138457223Y-77920185D01*
X138457222Y-77920184D01*
X138457220Y-77920182D01*
X138273017Y-77776810D01*
X138273015Y-77776809D01*
X138273014Y-77776808D01*
X138273011Y-77776806D01*
X138067733Y-77665716D01*
X138067730Y-77665715D01*
X138067727Y-77665713D01*
X138067721Y-77665711D01*
X138067719Y-77665710D01*
X137846954Y-77589920D01*
X137674271Y-77561105D01*
X137616712Y-77551500D01*
X137383288Y-77551500D01*
X137337240Y-77559184D01*
X137153045Y-77589920D01*
X136932280Y-77665710D01*
X136932266Y-77665716D01*
X136726988Y-77776806D01*
X136726985Y-77776808D01*
X136542781Y-77920181D01*
X136542776Y-77920185D01*
X136384686Y-78091915D01*
X136257015Y-78287331D01*
X136163251Y-78501092D01*
X136105948Y-78727377D01*
X136086673Y-78959994D01*
X128824065Y-78959994D01*
X128947534Y-78783662D01*
X129040894Y-78583450D01*
X129098070Y-78370068D01*
X129117323Y-78150000D01*
X129098070Y-77929932D01*
X129040894Y-77716550D01*
X128947534Y-77516339D01*
X128850241Y-77377389D01*
X128820827Y-77335381D01*
X128820823Y-77335377D01*
X128664620Y-77179174D01*
X128664616Y-77179171D01*
X128664615Y-77179170D01*
X128548799Y-77098075D01*
X128505174Y-77043498D01*
X128497980Y-76974000D01*
X128529503Y-76911645D01*
X128589733Y-76876231D01*
X128619922Y-76872500D01*
X128652638Y-76872500D01*
X128652654Y-76872499D01*
X128679692Y-76869591D01*
X128713201Y-76865989D01*
X128850204Y-76814889D01*
X128967261Y-76727261D01*
X129054889Y-76610204D01*
X129105989Y-76473201D01*
X129109591Y-76439692D01*
X129112499Y-76412654D01*
X129112500Y-76412637D01*
X129112500Y-74807362D01*
X129112499Y-74807345D01*
X129109157Y-74776270D01*
X129105989Y-74746799D01*
X129054889Y-74609796D01*
X128967261Y-74492739D01*
X128850204Y-74405111D01*
X128713203Y-74354011D01*
X128652654Y-74347500D01*
X128652638Y-74347500D01*
X127047362Y-74347500D01*
X127047345Y-74347500D01*
X126986797Y-74354011D01*
X126986795Y-74354011D01*
X126849795Y-74405111D01*
X126732739Y-74492739D01*
X126645111Y-74609795D01*
X126594011Y-74746795D01*
X126594011Y-74746797D01*
X126587500Y-74807345D01*
X126587500Y-76412654D01*
X126594011Y-76473202D01*
X126594011Y-76473204D01*
X126645111Y-76610204D01*
X126732739Y-76727261D01*
X126849796Y-76814889D01*
X126986799Y-76865989D01*
X127014050Y-76868918D01*
X127047345Y-76872499D01*
X127047362Y-76872500D01*
X127080079Y-76872500D01*
X127147118Y-76892185D01*
X127192873Y-76944989D01*
X127202817Y-77014147D01*
X127173792Y-77077703D01*
X127151202Y-77098075D01*
X127035377Y-77179175D01*
X126879175Y-77335377D01*
X126752466Y-77516338D01*
X126752465Y-77516340D01*
X126659107Y-77716548D01*
X126659104Y-77716554D01*
X126601930Y-77929929D01*
X126601929Y-77929937D01*
X126582677Y-78149997D01*
X117027311Y-78149997D01*
X117117058Y-78015682D01*
X117248466Y-77749213D01*
X117343968Y-77467872D01*
X117401931Y-77176472D01*
X117421363Y-76880000D01*
X117401931Y-76583528D01*
X117343968Y-76292128D01*
X117313331Y-76201874D01*
X117248469Y-76010794D01*
X117248465Y-76010784D01*
X117117060Y-75744322D01*
X117107486Y-75729994D01*
X116951993Y-75497282D01*
X116909071Y-75448339D01*
X116756096Y-75273903D01*
X116532719Y-75078008D01*
X116285678Y-74912939D01*
X116019215Y-74781534D01*
X116019205Y-74781530D01*
X115737883Y-74686035D01*
X115737874Y-74686032D01*
X115737872Y-74686032D01*
X115737867Y-74686031D01*
X115737863Y-74686030D01*
X115446482Y-74628071D01*
X115446472Y-74628069D01*
X115150000Y-74608637D01*
X114853528Y-74628069D01*
X114853522Y-74628070D01*
X114853517Y-74628071D01*
X114562136Y-74686030D01*
X114562116Y-74686035D01*
X114280794Y-74781530D01*
X114280784Y-74781534D01*
X114014322Y-74912939D01*
X113767280Y-75078008D01*
X113543903Y-75273903D01*
X113348008Y-75497280D01*
X113182939Y-75744322D01*
X113051534Y-76010784D01*
X113051530Y-76010794D01*
X112956035Y-76292116D01*
X112956030Y-76292136D01*
X112898071Y-76583517D01*
X112898069Y-76583529D01*
X112878637Y-76880000D01*
X100075500Y-76880000D01*
X100075500Y-69350000D01*
X110893554Y-69350000D01*
X110913312Y-69638870D01*
X110913313Y-69638872D01*
X110972219Y-69922347D01*
X110972224Y-69922364D01*
X111069185Y-70195184D01*
X111202395Y-70452270D01*
X111202399Y-70452276D01*
X111369367Y-70688816D01*
X111567003Y-70900432D01*
X111692307Y-71002374D01*
X111791604Y-71083158D01*
X111791606Y-71083159D01*
X111791607Y-71083160D01*
X112038998Y-71233602D01*
X112254543Y-71327226D01*
X112304571Y-71348956D01*
X112583379Y-71427074D01*
X112835564Y-71461735D01*
X112870226Y-71466500D01*
X112870227Y-71466500D01*
X113159774Y-71466500D01*
X113190698Y-71462249D01*
X113446621Y-71427074D01*
X113725429Y-71348956D01*
X113991003Y-71233601D01*
X114238396Y-71083158D01*
X114463000Y-70900429D01*
X114660630Y-70688819D01*
X114827605Y-70452269D01*
X114960814Y-70195186D01*
X115057777Y-69922359D01*
X115057778Y-69922352D01*
X115057780Y-69922347D01*
X115092182Y-69756795D01*
X115116687Y-69638870D01*
X115136446Y-69350000D01*
X115116687Y-69061130D01*
X115082085Y-68894615D01*
X115057780Y-68777652D01*
X115057775Y-68777635D01*
X114979894Y-68558500D01*
X114960814Y-68504814D01*
X114827605Y-68247731D01*
X114827604Y-68247729D01*
X114827600Y-68247723D01*
X114660632Y-68011183D01*
X114519370Y-67859929D01*
X114463000Y-67799571D01*
X114462998Y-67799570D01*
X114462996Y-67799567D01*
X114274912Y-67646550D01*
X114238396Y-67616842D01*
X114238394Y-67616841D01*
X114238392Y-67616839D01*
X113991001Y-67466397D01*
X113725430Y-67351044D01*
X113446627Y-67272927D01*
X113446622Y-67272926D01*
X113446621Y-67272926D01*
X113231576Y-67243369D01*
X113159774Y-67233500D01*
X113159773Y-67233500D01*
X112870227Y-67233500D01*
X112870226Y-67233500D01*
X112583379Y-67272926D01*
X112583372Y-67272927D01*
X112304569Y-67351044D01*
X112038998Y-67466397D01*
X111791607Y-67616839D01*
X111567003Y-67799567D01*
X111369367Y-68011183D01*
X111202399Y-68247723D01*
X111202395Y-68247729D01*
X111069185Y-68504815D01*
X110972224Y-68777635D01*
X110972219Y-68777652D01*
X110913313Y-69061127D01*
X110913312Y-69061129D01*
X110893554Y-69350000D01*
X100075500Y-69350000D01*
X100075500Y-56650000D01*
X110893554Y-56650000D01*
X110913312Y-56938870D01*
X110913313Y-56938872D01*
X110972219Y-57222347D01*
X110972224Y-57222364D01*
X111069185Y-57495184D01*
X111202395Y-57752270D01*
X111202399Y-57752276D01*
X111369367Y-57988816D01*
X111567003Y-58200432D01*
X111692628Y-58302635D01*
X111791604Y-58383158D01*
X111791606Y-58383159D01*
X111791607Y-58383160D01*
X112038998Y-58533602D01*
X112254543Y-58627226D01*
X112304571Y-58648956D01*
X112583379Y-58727074D01*
X112835564Y-58761735D01*
X112870226Y-58766500D01*
X112870227Y-58766500D01*
X113159774Y-58766500D01*
X113190698Y-58762249D01*
X113446621Y-58727074D01*
X113725429Y-58648956D01*
X113991003Y-58533601D01*
X114238396Y-58383158D01*
X114463000Y-58200429D01*
X114660630Y-57988819D01*
X114827605Y-57752269D01*
X114960814Y-57495186D01*
X115057777Y-57222359D01*
X115057778Y-57222352D01*
X115057780Y-57222347D01*
X115085125Y-57090749D01*
X115116687Y-56938870D01*
X115136446Y-56650000D01*
X115116687Y-56361130D01*
X115082085Y-56194615D01*
X115057780Y-56077652D01*
X115057775Y-56077635D01*
X114979894Y-55858500D01*
X114960814Y-55804814D01*
X114827605Y-55547731D01*
X114827604Y-55547729D01*
X114827600Y-55547723D01*
X114709206Y-55379997D01*
X125717677Y-55379997D01*
X125717677Y-55380002D01*
X125736929Y-55600062D01*
X125736930Y-55600070D01*
X125794104Y-55813445D01*
X125794105Y-55813447D01*
X125794106Y-55813450D01*
X125797317Y-55820335D01*
X125887466Y-56013662D01*
X125887468Y-56013666D01*
X126014170Y-56194615D01*
X126014175Y-56194621D01*
X126170378Y-56350824D01*
X126170384Y-56350829D01*
X126351333Y-56477531D01*
X126351335Y-56477532D01*
X126351338Y-56477534D01*
X126470748Y-56533215D01*
X126480189Y-56537618D01*
X126532628Y-56583790D01*
X126551780Y-56650984D01*
X126531564Y-56717865D01*
X126480189Y-56762382D01*
X126351340Y-56822465D01*
X126351338Y-56822466D01*
X126170377Y-56949175D01*
X126014175Y-57105377D01*
X125887466Y-57286338D01*
X125887465Y-57286340D01*
X125794107Y-57486548D01*
X125794104Y-57486554D01*
X125736930Y-57699929D01*
X125736929Y-57699937D01*
X125717677Y-57919997D01*
X125717677Y-57920002D01*
X125736929Y-58140062D01*
X125736930Y-58140070D01*
X125794104Y-58353445D01*
X125794105Y-58353447D01*
X125794106Y-58353450D01*
X125807959Y-58383158D01*
X125887466Y-58553662D01*
X125887468Y-58553666D01*
X126014170Y-58734615D01*
X126014175Y-58734621D01*
X126170378Y-58890824D01*
X126170384Y-58890829D01*
X126351333Y-59017531D01*
X126351335Y-59017532D01*
X126351338Y-59017534D01*
X126470748Y-59073215D01*
X126480189Y-59077618D01*
X126532628Y-59123790D01*
X126551780Y-59190984D01*
X126531564Y-59257865D01*
X126480189Y-59302382D01*
X126351340Y-59362465D01*
X126351338Y-59362466D01*
X126170377Y-59489175D01*
X126014175Y-59645377D01*
X125887466Y-59826338D01*
X125887465Y-59826340D01*
X125794107Y-60026548D01*
X125794104Y-60026554D01*
X125736930Y-60239929D01*
X125736929Y-60239937D01*
X125717677Y-60459997D01*
X125717677Y-60460002D01*
X125736929Y-60680062D01*
X125736930Y-60680070D01*
X125794104Y-60893445D01*
X125794105Y-60893447D01*
X125794106Y-60893450D01*
X125887466Y-61093662D01*
X125887468Y-61093666D01*
X126014170Y-61274615D01*
X126014175Y-61274621D01*
X126170378Y-61430824D01*
X126170384Y-61430829D01*
X126351333Y-61557531D01*
X126351335Y-61557532D01*
X126351338Y-61557534D01*
X126470748Y-61613215D01*
X126480189Y-61617618D01*
X126532628Y-61663790D01*
X126551780Y-61730984D01*
X126531564Y-61797865D01*
X126480189Y-61842382D01*
X126351340Y-61902465D01*
X126351338Y-61902466D01*
X126170377Y-62029175D01*
X126014175Y-62185377D01*
X125887466Y-62366338D01*
X125887465Y-62366340D01*
X125794107Y-62566548D01*
X125794104Y-62566554D01*
X125736930Y-62779929D01*
X125736929Y-62779937D01*
X125717677Y-62999997D01*
X125717677Y-63000002D01*
X125736929Y-63220062D01*
X125736930Y-63220070D01*
X125794104Y-63433445D01*
X125794105Y-63433447D01*
X125794106Y-63433450D01*
X125887466Y-63633662D01*
X125887468Y-63633666D01*
X126014170Y-63814615D01*
X126014175Y-63814621D01*
X126170378Y-63970824D01*
X126170384Y-63970829D01*
X126351333Y-64097531D01*
X126351335Y-64097532D01*
X126351338Y-64097534D01*
X126490245Y-64162307D01*
X126542685Y-64208479D01*
X126561837Y-64275672D01*
X126541622Y-64342554D01*
X126490246Y-64387071D01*
X126355606Y-64449855D01*
X126355604Y-64449856D01*
X126292556Y-64494003D01*
X126292555Y-64494003D01*
X126855590Y-65057037D01*
X126792007Y-65074075D01*
X126677993Y-65139901D01*
X126584901Y-65232993D01*
X126519075Y-65347007D01*
X126502037Y-65410590D01*
X125939003Y-64847555D01*
X125939003Y-64847556D01*
X125894856Y-64910604D01*
X125894855Y-64910606D01*
X125802124Y-65109466D01*
X125802121Y-65109475D01*
X125745335Y-65321407D01*
X125745333Y-65321417D01*
X125726210Y-65539999D01*
X125726210Y-65540000D01*
X125745333Y-65758582D01*
X125745335Y-65758592D01*
X125802121Y-65970524D01*
X125802125Y-65970533D01*
X125894854Y-66169392D01*
X125939003Y-66232443D01*
X126502037Y-65669409D01*
X126519075Y-65732993D01*
X126584901Y-65847007D01*
X126677993Y-65940099D01*
X126792007Y-66005925D01*
X126855590Y-66022962D01*
X126292555Y-66585996D01*
X126355601Y-66630142D01*
X126355609Y-66630146D01*
X126490245Y-66692928D01*
X126542685Y-66739100D01*
X126561837Y-66806294D01*
X126541621Y-66873175D01*
X126490246Y-66917692D01*
X126351340Y-66982465D01*
X126351338Y-66982466D01*
X126170377Y-67109175D01*
X126014175Y-67265377D01*
X125887466Y-67446338D01*
X125887465Y-67446340D01*
X125794107Y-67646548D01*
X125794104Y-67646554D01*
X125736930Y-67859929D01*
X125736929Y-67859937D01*
X125717677Y-68079997D01*
X125717677Y-68080002D01*
X125736929Y-68300062D01*
X125736930Y-68300070D01*
X125794104Y-68513445D01*
X125794105Y-68513447D01*
X125794106Y-68513450D01*
X125797317Y-68520335D01*
X125887466Y-68713662D01*
X125887468Y-68713666D01*
X126014170Y-68894615D01*
X126014175Y-68894621D01*
X126170378Y-69050824D01*
X126170384Y-69050829D01*
X126286201Y-69131925D01*
X126329826Y-69186502D01*
X126337020Y-69256000D01*
X126305497Y-69318355D01*
X126245267Y-69353769D01*
X126215078Y-69357500D01*
X126182345Y-69357500D01*
X126121797Y-69364011D01*
X126121795Y-69364011D01*
X125984795Y-69415111D01*
X125867739Y-69502739D01*
X125780111Y-69619795D01*
X125729011Y-69756795D01*
X125729011Y-69756797D01*
X125722500Y-69817345D01*
X125722500Y-71422654D01*
X125729011Y-71483202D01*
X125729011Y-71483204D01*
X125780111Y-71620204D01*
X125867739Y-71737261D01*
X125984796Y-71824889D01*
X126121799Y-71875989D01*
X126148476Y-71878857D01*
X126182345Y-71882499D01*
X126182362Y-71882500D01*
X127787638Y-71882500D01*
X127787654Y-71882499D01*
X127814692Y-71879591D01*
X127848201Y-71875989D01*
X127985204Y-71824889D01*
X128102261Y-71737261D01*
X128189889Y-71620204D01*
X128240989Y-71483201D01*
X128244591Y-71449692D01*
X128247499Y-71422654D01*
X128247500Y-71422637D01*
X128247500Y-71234994D01*
X136086673Y-71234994D01*
X136086673Y-71235005D01*
X136105948Y-71467622D01*
X136105948Y-71467625D01*
X136105949Y-71467626D01*
X136144587Y-71620204D01*
X136163251Y-71693907D01*
X136257015Y-71907668D01*
X136384683Y-72103080D01*
X136478073Y-72204528D01*
X136508995Y-72267183D01*
X136501135Y-72336609D01*
X136456988Y-72390764D01*
X136430177Y-72404693D01*
X136357911Y-72431646D01*
X136357906Y-72431649D01*
X136242812Y-72517809D01*
X136242809Y-72517812D01*
X136156649Y-72632906D01*
X136156645Y-72632913D01*
X136106403Y-72767620D01*
X136106401Y-72767627D01*
X136100000Y-72827155D01*
X136100000Y-73525000D01*
X137124722Y-73525000D01*
X137080667Y-73601306D01*
X137050000Y-73715756D01*
X137050000Y-73834244D01*
X137080667Y-73948694D01*
X137124722Y-74025000D01*
X136100000Y-74025000D01*
X136100000Y-74722844D01*
X136106401Y-74782372D01*
X136106403Y-74782379D01*
X136156645Y-74917086D01*
X136156649Y-74917093D01*
X136242809Y-75032187D01*
X136242812Y-75032190D01*
X136357906Y-75118350D01*
X136357913Y-75118354D01*
X136492620Y-75168596D01*
X136492627Y-75168598D01*
X136552155Y-75174999D01*
X136552172Y-75175000D01*
X137250000Y-75175000D01*
X137250000Y-74150277D01*
X137326306Y-74194333D01*
X137440756Y-74225000D01*
X137559244Y-74225000D01*
X137673694Y-74194333D01*
X137750000Y-74150277D01*
X137750000Y-75175000D01*
X138447828Y-75175000D01*
X138447844Y-75174999D01*
X138507372Y-75168598D01*
X138507379Y-75168596D01*
X138642086Y-75118354D01*
X138642093Y-75118350D01*
X138757187Y-75032190D01*
X138757190Y-75032187D01*
X138843350Y-74917093D01*
X138843354Y-74917086D01*
X138893596Y-74782379D01*
X138893598Y-74782372D01*
X138899999Y-74722844D01*
X138900000Y-74722827D01*
X138900000Y-74025000D01*
X137875278Y-74025000D01*
X137919333Y-73948694D01*
X137950000Y-73834244D01*
X137950000Y-73715756D01*
X137919333Y-73601306D01*
X137875278Y-73525000D01*
X138900000Y-73525000D01*
X138900000Y-72827172D01*
X138899999Y-72827155D01*
X138893598Y-72767627D01*
X138893596Y-72767620D01*
X138843354Y-72632913D01*
X138843350Y-72632906D01*
X138757190Y-72517812D01*
X138757187Y-72517809D01*
X138642093Y-72431649D01*
X138642086Y-72431645D01*
X138569823Y-72404693D01*
X138513889Y-72362822D01*
X138489472Y-72297357D01*
X138504324Y-72229084D01*
X138521927Y-72204528D01*
X138615313Y-72103084D01*
X138670997Y-72017853D01*
X138742984Y-71907669D01*
X138836749Y-71693907D01*
X138894051Y-71467626D01*
X138904487Y-71341678D01*
X138913327Y-71235005D01*
X138913327Y-71234994D01*
X143586673Y-71234994D01*
X143586673Y-71235005D01*
X143605948Y-71467622D01*
X143605948Y-71467625D01*
X143605949Y-71467626D01*
X143644587Y-71620204D01*
X143663251Y-71693907D01*
X143757015Y-71907668D01*
X143884683Y-72103080D01*
X143978073Y-72204528D01*
X144008995Y-72267183D01*
X144001135Y-72336609D01*
X143956988Y-72390764D01*
X143930177Y-72404693D01*
X143857911Y-72431646D01*
X143857906Y-72431649D01*
X143742812Y-72517809D01*
X143742809Y-72517812D01*
X143656649Y-72632906D01*
X143656645Y-72632913D01*
X143606403Y-72767620D01*
X143606401Y-72767627D01*
X143600000Y-72827155D01*
X143600000Y-73525000D01*
X144624722Y-73525000D01*
X144580667Y-73601306D01*
X144550000Y-73715756D01*
X144550000Y-73834244D01*
X144580667Y-73948694D01*
X144624722Y-74025000D01*
X143600000Y-74025000D01*
X143600000Y-74722844D01*
X143606401Y-74782372D01*
X143606403Y-74782379D01*
X143656645Y-74917086D01*
X143656649Y-74917093D01*
X143742809Y-75032187D01*
X143742812Y-75032190D01*
X143857906Y-75118350D01*
X143857913Y-75118354D01*
X143992620Y-75168596D01*
X143992627Y-75168598D01*
X144052155Y-75174999D01*
X144052172Y-75175000D01*
X144750000Y-75175000D01*
X144750000Y-74150277D01*
X144826306Y-74194333D01*
X144940756Y-74225000D01*
X145059244Y-74225000D01*
X145173694Y-74194333D01*
X145250000Y-74150277D01*
X145250000Y-75175000D01*
X145947828Y-75175000D01*
X145947844Y-75174999D01*
X146007372Y-75168598D01*
X146007379Y-75168596D01*
X146142086Y-75118354D01*
X146142093Y-75118350D01*
X146257187Y-75032190D01*
X146257190Y-75032187D01*
X146343350Y-74917093D01*
X146343354Y-74917086D01*
X146393596Y-74782379D01*
X146393598Y-74782372D01*
X146399999Y-74722844D01*
X146400000Y-74722827D01*
X146400000Y-74025000D01*
X145375278Y-74025000D01*
X145419333Y-73948694D01*
X145450000Y-73834244D01*
X145450000Y-73715756D01*
X145419333Y-73601306D01*
X145375278Y-73525000D01*
X146400000Y-73525000D01*
X146400000Y-72827172D01*
X146399999Y-72827155D01*
X146393598Y-72767627D01*
X146393596Y-72767620D01*
X146343354Y-72632913D01*
X146343350Y-72632906D01*
X146257190Y-72517812D01*
X146257187Y-72517809D01*
X146142093Y-72431649D01*
X146142086Y-72431645D01*
X146069823Y-72404693D01*
X146013889Y-72362822D01*
X145989472Y-72297357D01*
X146004324Y-72229084D01*
X146021927Y-72204528D01*
X146115313Y-72103084D01*
X146170997Y-72017853D01*
X146242984Y-71907669D01*
X146336749Y-71693907D01*
X146394051Y-71467626D01*
X146404487Y-71341678D01*
X146413327Y-71235005D01*
X146413327Y-71234994D01*
X151586673Y-71234994D01*
X151586673Y-71235005D01*
X151605948Y-71467622D01*
X151605948Y-71467625D01*
X151605949Y-71467626D01*
X151644587Y-71620204D01*
X151663251Y-71693907D01*
X151757015Y-71907668D01*
X151884683Y-72103080D01*
X151978073Y-72204528D01*
X152008995Y-72267183D01*
X152001135Y-72336609D01*
X151956988Y-72390764D01*
X151930177Y-72404693D01*
X151857911Y-72431646D01*
X151857906Y-72431649D01*
X151742812Y-72517809D01*
X151742809Y-72517812D01*
X151656649Y-72632906D01*
X151656645Y-72632913D01*
X151606403Y-72767620D01*
X151606401Y-72767627D01*
X151600000Y-72827155D01*
X151600000Y-73525000D01*
X152624722Y-73525000D01*
X152580667Y-73601306D01*
X152550000Y-73715756D01*
X152550000Y-73834244D01*
X152580667Y-73948694D01*
X152624722Y-74025000D01*
X151600000Y-74025000D01*
X151600000Y-74722844D01*
X151606401Y-74782372D01*
X151606403Y-74782379D01*
X151656645Y-74917086D01*
X151656649Y-74917093D01*
X151742809Y-75032187D01*
X151742812Y-75032190D01*
X151857906Y-75118350D01*
X151857913Y-75118354D01*
X151992620Y-75168596D01*
X151992627Y-75168598D01*
X152052155Y-75174999D01*
X152052172Y-75175000D01*
X152750000Y-75175000D01*
X152750000Y-74150277D01*
X152826306Y-74194333D01*
X152940756Y-74225000D01*
X153059244Y-74225000D01*
X153173694Y-74194333D01*
X153250000Y-74150277D01*
X153250000Y-75175000D01*
X153947828Y-75175000D01*
X153947844Y-75174999D01*
X154007372Y-75168598D01*
X154007379Y-75168596D01*
X154142086Y-75118354D01*
X154142093Y-75118350D01*
X154257187Y-75032190D01*
X154257190Y-75032187D01*
X154343350Y-74917093D01*
X154343354Y-74917086D01*
X154393596Y-74782379D01*
X154393598Y-74782372D01*
X154399999Y-74722844D01*
X154400000Y-74722827D01*
X154400000Y-74025000D01*
X153375278Y-74025000D01*
X153419333Y-73948694D01*
X153450000Y-73834244D01*
X153450000Y-73715756D01*
X153419333Y-73601306D01*
X153375278Y-73525000D01*
X154400000Y-73525000D01*
X154400000Y-72827172D01*
X154399999Y-72827155D01*
X154393598Y-72767627D01*
X154393596Y-72767620D01*
X154343354Y-72632913D01*
X154343350Y-72632906D01*
X154257190Y-72517812D01*
X154257187Y-72517809D01*
X154142093Y-72431649D01*
X154142086Y-72431645D01*
X154069823Y-72404693D01*
X154013889Y-72362822D01*
X153989472Y-72297357D01*
X154004324Y-72229084D01*
X154021927Y-72204528D01*
X154115313Y-72103084D01*
X154170997Y-72017853D01*
X154242984Y-71907669D01*
X154336749Y-71693907D01*
X154394051Y-71467626D01*
X154404487Y-71341678D01*
X154413327Y-71235005D01*
X154413327Y-71234994D01*
X154394051Y-71002377D01*
X154394051Y-71002374D01*
X154336749Y-70776093D01*
X154281437Y-70649994D01*
X158791736Y-70649994D01*
X158791736Y-70650005D01*
X158811556Y-70889195D01*
X158870477Y-71121872D01*
X158966892Y-71341678D01*
X159059357Y-71483204D01*
X159098171Y-71542613D01*
X159260731Y-71719201D01*
X159260734Y-71719203D01*
X159260737Y-71719206D01*
X159392995Y-71822147D01*
X159433808Y-71878857D01*
X159437483Y-71948630D01*
X159402851Y-72009313D01*
X159392995Y-72017853D01*
X159260737Y-72120793D01*
X159260734Y-72120796D01*
X159098172Y-72297385D01*
X159098169Y-72297389D01*
X158966892Y-72498321D01*
X158870477Y-72718127D01*
X158811556Y-72950804D01*
X158791736Y-73189994D01*
X158791736Y-73190005D01*
X158811556Y-73429195D01*
X158870477Y-73661872D01*
X158966892Y-73881678D01*
X159060530Y-74025000D01*
X159098171Y-74082613D01*
X159260731Y-74259201D01*
X159260734Y-74259203D01*
X159260737Y-74259206D01*
X159392995Y-74362147D01*
X159433808Y-74418857D01*
X159437483Y-74488630D01*
X159402851Y-74549313D01*
X159392995Y-74557853D01*
X159260737Y-74660793D01*
X159260734Y-74660796D01*
X159260731Y-74660798D01*
X159260731Y-74660799D01*
X159237500Y-74686035D01*
X159098172Y-74837385D01*
X159098169Y-74837389D01*
X158966892Y-75038321D01*
X158870477Y-75258127D01*
X158811556Y-75490804D01*
X158791736Y-75729994D01*
X158791736Y-75730005D01*
X158811556Y-75969195D01*
X158870477Y-76201872D01*
X158966892Y-76421678D01*
X159072628Y-76583517D01*
X159098171Y-76622613D01*
X159260731Y-76799201D01*
X159260734Y-76799203D01*
X159260737Y-76799206D01*
X159392995Y-76902147D01*
X159433808Y-76958857D01*
X159437483Y-77028630D01*
X159402851Y-77089313D01*
X159392995Y-77097853D01*
X159260737Y-77200793D01*
X159260734Y-77200796D01*
X159098172Y-77377385D01*
X159098169Y-77377389D01*
X158966892Y-77578321D01*
X158870477Y-77798127D01*
X158811556Y-78030804D01*
X158791736Y-78269994D01*
X158791736Y-78270005D01*
X158811556Y-78509195D01*
X158870477Y-78741872D01*
X158966892Y-78961678D01*
X159070869Y-79120824D01*
X159098171Y-79162613D01*
X159260731Y-79339201D01*
X159260734Y-79339203D01*
X159260737Y-79339206D01*
X159399914Y-79447532D01*
X159440727Y-79504242D01*
X159444402Y-79574015D01*
X159418448Y-79619491D01*
X159417840Y-79629287D01*
X160109058Y-80320504D01*
X160048919Y-80336619D01*
X159933080Y-80403498D01*
X159838498Y-80498080D01*
X159771619Y-80613919D01*
X159755504Y-80674057D01*
X159065057Y-79983609D01*
X158974392Y-80122382D01*
X158878545Y-80340895D01*
X158819969Y-80572203D01*
X158819967Y-80572211D01*
X158800265Y-80809993D01*
X158800265Y-80810006D01*
X158819967Y-81047788D01*
X158819969Y-81047796D01*
X158878545Y-81279104D01*
X158974391Y-81497614D01*
X159065057Y-81636389D01*
X159755504Y-80945941D01*
X159771619Y-81006081D01*
X159838498Y-81121920D01*
X159933080Y-81216502D01*
X160048919Y-81283381D01*
X160109057Y-81299495D01*
X159399441Y-82009111D01*
X159338118Y-82042596D01*
X159268426Y-82037612D01*
X159224078Y-82009111D01*
X159149567Y-81934599D01*
X159063108Y-81966848D01*
X159063107Y-81966848D01*
X158948012Y-82053009D01*
X158948009Y-82053012D01*
X158861849Y-82168106D01*
X158861845Y-82168113D01*
X158811603Y-82302820D01*
X158811601Y-82302827D01*
X158805200Y-82362355D01*
X158805200Y-83100000D01*
X159802749Y-83100000D01*
X159771619Y-83153919D01*
X159737000Y-83283120D01*
X159737000Y-83416880D01*
X159771619Y-83546081D01*
X159802749Y-83600000D01*
X158805200Y-83600000D01*
X158805200Y-84337644D01*
X158811601Y-84397172D01*
X158811603Y-84397179D01*
X158861845Y-84531886D01*
X158861849Y-84531893D01*
X158948009Y-84646987D01*
X158948012Y-84646990D01*
X159063106Y-84733150D01*
X159063113Y-84733154D01*
X159197820Y-84783396D01*
X159197827Y-84783398D01*
X159257355Y-84789799D01*
X159257372Y-84789800D01*
X159995000Y-84789800D01*
X159995000Y-83792251D01*
X160048919Y-83823381D01*
X160178120Y-83858000D01*
X160311880Y-83858000D01*
X160441081Y-83823381D01*
X160495000Y-83792251D01*
X160495000Y-84789800D01*
X161232628Y-84789800D01*
X161232644Y-84789799D01*
X161292172Y-84783398D01*
X161292179Y-84783396D01*
X161426886Y-84733154D01*
X161426893Y-84733150D01*
X161541987Y-84646990D01*
X161541990Y-84646987D01*
X161628150Y-84531893D01*
X161628154Y-84531886D01*
X161678396Y-84397179D01*
X161678398Y-84397172D01*
X161684799Y-84337644D01*
X161684800Y-84337627D01*
X161684800Y-83600000D01*
X160687251Y-83600000D01*
X160718381Y-83546081D01*
X160753000Y-83416880D01*
X160753000Y-83283120D01*
X160718381Y-83153919D01*
X160687251Y-83100000D01*
X161684800Y-83100000D01*
X161684800Y-82362372D01*
X161684799Y-82362355D01*
X161678398Y-82302827D01*
X161678396Y-82302820D01*
X161628154Y-82168113D01*
X161628150Y-82168106D01*
X161541990Y-82053012D01*
X161541987Y-82053009D01*
X161426893Y-81966849D01*
X161340430Y-81934600D01*
X161265921Y-82009111D01*
X161204598Y-82042596D01*
X161134906Y-82037612D01*
X161090558Y-82009111D01*
X160380942Y-81299495D01*
X160441081Y-81283381D01*
X160556920Y-81216502D01*
X160651502Y-81121920D01*
X160718381Y-81006081D01*
X160734494Y-80945942D01*
X161424941Y-81636389D01*
X161515604Y-81497621D01*
X161515609Y-81497613D01*
X161611454Y-81279104D01*
X161670030Y-81047796D01*
X161670032Y-81047788D01*
X161689735Y-80810006D01*
X161689735Y-80809993D01*
X161670032Y-80572211D01*
X161670030Y-80572203D01*
X161611454Y-80340895D01*
X161515606Y-80122380D01*
X161424941Y-79983609D01*
X160734494Y-80674056D01*
X160718381Y-80613919D01*
X160651502Y-80498080D01*
X160556920Y-80403498D01*
X160441081Y-80336619D01*
X160380941Y-80320504D01*
X161072159Y-79629287D01*
X161071414Y-79617297D01*
X161049271Y-79586527D01*
X161045598Y-79516754D01*
X161080230Y-79456071D01*
X161090085Y-79447533D01*
X161212651Y-79352135D01*
X161229269Y-79339201D01*
X161391829Y-79162613D01*
X161523108Y-78961677D01*
X161619522Y-78741874D01*
X161678443Y-78509199D01*
X161689972Y-78370068D01*
X161698264Y-78270005D01*
X161698264Y-78269994D01*
X161678443Y-78030804D01*
X161678443Y-78030801D01*
X161619522Y-77798126D01*
X161523108Y-77578323D01*
X161391829Y-77377387D01*
X161229269Y-77200799D01*
X161229264Y-77200795D01*
X161229262Y-77200793D01*
X161097005Y-77097853D01*
X161056192Y-77041143D01*
X161052517Y-76971370D01*
X161087149Y-76910687D01*
X161097005Y-76902147D01*
X161209114Y-76814888D01*
X161229269Y-76799201D01*
X161391829Y-76622613D01*
X161523108Y-76421677D01*
X161619522Y-76201874D01*
X161678443Y-75969199D01*
X161687252Y-75862888D01*
X161698264Y-75730005D01*
X161698264Y-75729994D01*
X161678443Y-75490804D01*
X161678443Y-75490801D01*
X161619522Y-75258126D01*
X161523108Y-75038323D01*
X161391829Y-74837387D01*
X161229269Y-74660799D01*
X161229264Y-74660795D01*
X161229262Y-74660793D01*
X161097005Y-74557853D01*
X161056192Y-74501143D01*
X161052517Y-74431370D01*
X161087149Y-74370687D01*
X161097005Y-74362147D01*
X161180038Y-74297518D01*
X161229269Y-74259201D01*
X161391829Y-74082613D01*
X161523108Y-73881677D01*
X161619522Y-73661874D01*
X161678443Y-73429199D01*
X161698264Y-73190000D01*
X161678443Y-72950801D01*
X161619522Y-72718126D01*
X161523108Y-72498323D01*
X161479545Y-72431646D01*
X161391830Y-72297389D01*
X161391829Y-72297387D01*
X161229269Y-72120799D01*
X161229264Y-72120795D01*
X161229262Y-72120793D01*
X161097005Y-72017853D01*
X161056192Y-71961143D01*
X161052517Y-71891370D01*
X161087149Y-71830687D01*
X161097005Y-71822147D01*
X161180038Y-71757518D01*
X161229269Y-71719201D01*
X161391829Y-71542613D01*
X161523108Y-71341677D01*
X161619522Y-71121874D01*
X161678443Y-70889199D01*
X161687816Y-70776092D01*
X161698264Y-70650005D01*
X161698264Y-70649994D01*
X161678443Y-70410804D01*
X161678443Y-70410801D01*
X161619522Y-70178126D01*
X161523108Y-69958323D01*
X161499611Y-69922359D01*
X161391830Y-69757389D01*
X161391829Y-69757387D01*
X161229269Y-69580799D01*
X161128978Y-69502739D01*
X161039862Y-69433377D01*
X161039857Y-69433374D01*
X160828775Y-69319143D01*
X160828772Y-69319142D01*
X160828769Y-69319140D01*
X160828763Y-69319138D01*
X160828761Y-69319137D01*
X160601757Y-69241205D01*
X160365010Y-69201700D01*
X160124990Y-69201700D01*
X159888242Y-69241205D01*
X159661238Y-69319137D01*
X159661224Y-69319143D01*
X159450142Y-69433374D01*
X159450137Y-69433377D01*
X159260733Y-69580797D01*
X159098172Y-69757385D01*
X159098169Y-69757389D01*
X158966892Y-69958321D01*
X158870477Y-70178127D01*
X158811556Y-70410804D01*
X158791736Y-70649994D01*
X154281437Y-70649994D01*
X154242984Y-70562331D01*
X154115314Y-70366917D01*
X154115313Y-70366915D01*
X153957223Y-70195185D01*
X153957222Y-70195184D01*
X153957220Y-70195182D01*
X153773017Y-70051810D01*
X153773015Y-70051809D01*
X153773014Y-70051808D01*
X153773011Y-70051806D01*
X153567733Y-69940716D01*
X153567730Y-69940715D01*
X153567727Y-69940713D01*
X153567721Y-69940711D01*
X153567719Y-69940710D01*
X153346954Y-69864920D01*
X153174271Y-69836105D01*
X153116712Y-69826500D01*
X152883288Y-69826500D01*
X152837240Y-69834184D01*
X152653045Y-69864920D01*
X152432280Y-69940710D01*
X152432266Y-69940716D01*
X152226988Y-70051806D01*
X152226985Y-70051808D01*
X152042781Y-70195181D01*
X152042776Y-70195185D01*
X151884686Y-70366915D01*
X151757015Y-70562331D01*
X151663251Y-70776092D01*
X151605948Y-71002377D01*
X151586673Y-71234994D01*
X146413327Y-71234994D01*
X146394051Y-71002377D01*
X146394051Y-71002374D01*
X146336749Y-70776093D01*
X146242984Y-70562331D01*
X146115314Y-70366917D01*
X146115313Y-70366915D01*
X145957223Y-70195185D01*
X145957222Y-70195184D01*
X145957220Y-70195182D01*
X145773017Y-70051810D01*
X145773015Y-70051809D01*
X145773014Y-70051808D01*
X145773011Y-70051806D01*
X145567733Y-69940716D01*
X145567730Y-69940715D01*
X145567727Y-69940713D01*
X145567721Y-69940711D01*
X145567719Y-69940710D01*
X145346954Y-69864920D01*
X145174271Y-69836105D01*
X145116712Y-69826500D01*
X144883288Y-69826500D01*
X144837240Y-69834184D01*
X144653045Y-69864920D01*
X144432280Y-69940710D01*
X144432266Y-69940716D01*
X144226988Y-70051806D01*
X144226985Y-70051808D01*
X144042781Y-70195181D01*
X144042776Y-70195185D01*
X143884686Y-70366915D01*
X143757015Y-70562331D01*
X143663251Y-70776092D01*
X143605948Y-71002377D01*
X143586673Y-71234994D01*
X138913327Y-71234994D01*
X138894051Y-71002377D01*
X138894051Y-71002374D01*
X138836749Y-70776093D01*
X138742984Y-70562331D01*
X138615314Y-70366917D01*
X138615313Y-70366915D01*
X138457223Y-70195185D01*
X138457222Y-70195184D01*
X138457220Y-70195182D01*
X138273017Y-70051810D01*
X138273015Y-70051809D01*
X138273014Y-70051808D01*
X138273011Y-70051806D01*
X138067733Y-69940716D01*
X138067730Y-69940715D01*
X138067727Y-69940713D01*
X138067721Y-69940711D01*
X138067719Y-69940710D01*
X137846954Y-69864920D01*
X137674271Y-69836105D01*
X137616712Y-69826500D01*
X137383288Y-69826500D01*
X137337240Y-69834184D01*
X137153045Y-69864920D01*
X136932280Y-69940710D01*
X136932266Y-69940716D01*
X136726988Y-70051806D01*
X136726985Y-70051808D01*
X136542781Y-70195181D01*
X136542776Y-70195185D01*
X136384686Y-70366915D01*
X136257015Y-70562331D01*
X136163251Y-70776092D01*
X136105948Y-71002377D01*
X136086673Y-71234994D01*
X128247500Y-71234994D01*
X128247500Y-69817362D01*
X128247499Y-69817345D01*
X128241052Y-69757389D01*
X128240989Y-69756799D01*
X128189889Y-69619796D01*
X128102261Y-69502739D01*
X127985204Y-69415111D01*
X127848203Y-69364011D01*
X127787654Y-69357500D01*
X127787638Y-69357500D01*
X127754922Y-69357500D01*
X127687883Y-69337815D01*
X127642128Y-69285011D01*
X127632184Y-69215853D01*
X127661209Y-69152297D01*
X127683799Y-69131925D01*
X127784904Y-69061130D01*
X127799620Y-69050826D01*
X127955826Y-68894620D01*
X128082534Y-68713662D01*
X128175894Y-68513450D01*
X128233070Y-68300068D01*
X128251023Y-68094856D01*
X128252323Y-68080002D01*
X128252323Y-68079997D01*
X128243903Y-67983754D01*
X128233070Y-67859932D01*
X128175894Y-67646550D01*
X128082534Y-67446339D01*
X128015808Y-67351044D01*
X127955827Y-67265381D01*
X127895433Y-67204987D01*
X127799620Y-67109174D01*
X127799616Y-67109171D01*
X127799615Y-67109170D01*
X127618666Y-66982468D01*
X127618662Y-66982466D01*
X127479753Y-66917692D01*
X127427314Y-66871520D01*
X127421179Y-66849995D01*
X131286709Y-66849995D01*
X131286709Y-66850004D01*
X131305843Y-67105343D01*
X131305844Y-67105345D01*
X131305845Y-67105353D01*
X131334706Y-67231804D01*
X131362822Y-67354987D01*
X131362824Y-67354996D01*
X131362826Y-67355001D01*
X131456378Y-67593369D01*
X131584413Y-67815131D01*
X131624452Y-67865338D01*
X131744072Y-68015338D01*
X131911121Y-68170335D01*
X131931781Y-68189505D01*
X132143355Y-68333754D01*
X132143360Y-68333756D01*
X132143361Y-68333757D01*
X132143362Y-68333758D01*
X132219312Y-68370333D01*
X132374061Y-68444856D01*
X132374062Y-68444856D01*
X132374065Y-68444858D01*
X132618757Y-68520335D01*
X132618758Y-68520335D01*
X132618761Y-68520336D01*
X132871958Y-68558499D01*
X132871963Y-68558499D01*
X132871966Y-68558500D01*
X132871967Y-68558500D01*
X133128033Y-68558500D01*
X133128034Y-68558500D01*
X133128041Y-68558499D01*
X133381238Y-68520336D01*
X133381239Y-68520335D01*
X133381243Y-68520335D01*
X133625935Y-68444858D01*
X133856646Y-68333754D01*
X134068219Y-68189505D01*
X134255931Y-68015334D01*
X134415587Y-67815131D01*
X134543622Y-67593369D01*
X134637174Y-67355001D01*
X134694155Y-67105353D01*
X134701675Y-67005006D01*
X134713291Y-66850004D01*
X134713291Y-66849995D01*
X134694156Y-66594656D01*
X134694155Y-66594651D01*
X134694155Y-66594647D01*
X134672551Y-66499995D01*
X136286709Y-66499995D01*
X136286709Y-66500004D01*
X136305843Y-66755343D01*
X136305844Y-66755348D01*
X136362822Y-67004987D01*
X136362824Y-67004996D01*
X136362826Y-67005001D01*
X136456378Y-67243369D01*
X136584413Y-67465131D01*
X136686679Y-67593369D01*
X136744072Y-67665338D01*
X136888738Y-67799567D01*
X136931781Y-67839505D01*
X137143355Y-67983754D01*
X137143360Y-67983756D01*
X137143361Y-67983757D01*
X137143362Y-67983758D01*
X137259121Y-68039504D01*
X137374061Y-68094856D01*
X137374062Y-68094856D01*
X137374065Y-68094858D01*
X137618757Y-68170335D01*
X137618758Y-68170335D01*
X137618761Y-68170336D01*
X137871958Y-68208499D01*
X137871963Y-68208499D01*
X137871966Y-68208500D01*
X137871967Y-68208500D01*
X138128033Y-68208500D01*
X138128034Y-68208500D01*
X138128041Y-68208499D01*
X138381238Y-68170336D01*
X138381239Y-68170335D01*
X138381243Y-68170335D01*
X138625935Y-68094858D01*
X138856646Y-67983754D01*
X139068219Y-67839505D01*
X139255931Y-67665334D01*
X139415587Y-67465131D01*
X139543622Y-67243369D01*
X139637174Y-67005001D01*
X139694155Y-66755353D01*
X139698303Y-66700000D01*
X139698303Y-66699995D01*
X141286709Y-66699995D01*
X141286709Y-66700004D01*
X141305843Y-66955343D01*
X141305844Y-66955348D01*
X141362822Y-67204987D01*
X141362824Y-67204996D01*
X141362826Y-67205001D01*
X141456378Y-67443369D01*
X141584413Y-67665131D01*
X141691622Y-67799567D01*
X141744072Y-67865338D01*
X141871700Y-67983758D01*
X141931781Y-68039505D01*
X142143355Y-68183754D01*
X142143360Y-68183756D01*
X142143361Y-68183757D01*
X142143362Y-68183758D01*
X142265890Y-68242764D01*
X142374061Y-68294856D01*
X142374062Y-68294856D01*
X142374065Y-68294858D01*
X142618757Y-68370335D01*
X142618758Y-68370335D01*
X142618761Y-68370336D01*
X142871958Y-68408499D01*
X142871963Y-68408499D01*
X142871966Y-68408500D01*
X142871967Y-68408500D01*
X143128033Y-68408500D01*
X143128034Y-68408500D01*
X143128041Y-68408499D01*
X143381238Y-68370336D01*
X143381239Y-68370335D01*
X143381243Y-68370335D01*
X143625935Y-68294858D01*
X143856646Y-68183754D01*
X144068219Y-68039505D01*
X144255931Y-67865334D01*
X144415587Y-67665131D01*
X144543622Y-67443369D01*
X144637174Y-67205001D01*
X144694155Y-66955353D01*
X144694156Y-66955343D01*
X144713291Y-66700004D01*
X144713291Y-66699995D01*
X146286709Y-66699995D01*
X146286709Y-66700004D01*
X146305843Y-66955343D01*
X146305844Y-66955348D01*
X146362822Y-67204987D01*
X146362824Y-67204996D01*
X146362826Y-67205001D01*
X146456378Y-67443369D01*
X146584413Y-67665131D01*
X146691622Y-67799567D01*
X146744072Y-67865338D01*
X146871700Y-67983758D01*
X146931781Y-68039505D01*
X147143355Y-68183754D01*
X147143360Y-68183756D01*
X147143361Y-68183757D01*
X147143362Y-68183758D01*
X147265890Y-68242764D01*
X147374061Y-68294856D01*
X147374062Y-68294856D01*
X147374065Y-68294858D01*
X147618757Y-68370335D01*
X147618758Y-68370335D01*
X147618761Y-68370336D01*
X147871958Y-68408499D01*
X147871963Y-68408499D01*
X147871966Y-68408500D01*
X147871967Y-68408500D01*
X148128033Y-68408500D01*
X148128034Y-68408500D01*
X148128041Y-68408499D01*
X148381238Y-68370336D01*
X148381239Y-68370335D01*
X148381243Y-68370335D01*
X148625935Y-68294858D01*
X148856646Y-68183754D01*
X149068219Y-68039505D01*
X149255931Y-67865334D01*
X149415587Y-67665131D01*
X149543622Y-67443369D01*
X149637174Y-67205001D01*
X149694155Y-66955353D01*
X149694156Y-66955343D01*
X149713291Y-66700004D01*
X149713291Y-66699995D01*
X151286709Y-66699995D01*
X151286709Y-66700004D01*
X151305843Y-66955343D01*
X151305844Y-66955348D01*
X151362822Y-67204987D01*
X151362824Y-67204996D01*
X151362826Y-67205001D01*
X151456378Y-67443369D01*
X151584413Y-67665131D01*
X151691622Y-67799567D01*
X151744072Y-67865338D01*
X151871700Y-67983758D01*
X151931781Y-68039505D01*
X152143355Y-68183754D01*
X152143360Y-68183756D01*
X152143361Y-68183757D01*
X152143362Y-68183758D01*
X152265890Y-68242764D01*
X152374061Y-68294856D01*
X152374062Y-68294856D01*
X152374065Y-68294858D01*
X152618757Y-68370335D01*
X152618758Y-68370335D01*
X152618761Y-68370336D01*
X152871958Y-68408499D01*
X152871963Y-68408499D01*
X152871966Y-68408500D01*
X152871967Y-68408500D01*
X153128033Y-68408500D01*
X153128034Y-68408500D01*
X153128041Y-68408499D01*
X153381238Y-68370336D01*
X153381239Y-68370335D01*
X153381243Y-68370335D01*
X153625935Y-68294858D01*
X153856646Y-68183754D01*
X154068219Y-68039505D01*
X154255931Y-67865334D01*
X154415587Y-67665131D01*
X154543622Y-67443369D01*
X154637174Y-67205001D01*
X154694155Y-66955353D01*
X154694156Y-66955343D01*
X154702051Y-66849995D01*
X156286709Y-66849995D01*
X156286709Y-66850004D01*
X156305843Y-67105343D01*
X156305844Y-67105345D01*
X156305845Y-67105353D01*
X156334706Y-67231804D01*
X156362822Y-67354987D01*
X156362824Y-67354996D01*
X156362826Y-67355001D01*
X156456378Y-67593369D01*
X156584413Y-67815131D01*
X156624452Y-67865338D01*
X156744072Y-68015338D01*
X156911121Y-68170335D01*
X156931781Y-68189505D01*
X157143355Y-68333754D01*
X157143360Y-68333756D01*
X157143361Y-68333757D01*
X157143362Y-68333758D01*
X157219312Y-68370333D01*
X157374061Y-68444856D01*
X157374062Y-68444856D01*
X157374065Y-68444858D01*
X157618757Y-68520335D01*
X157618758Y-68520335D01*
X157618761Y-68520336D01*
X157871958Y-68558499D01*
X157871963Y-68558499D01*
X157871966Y-68558500D01*
X157871967Y-68558500D01*
X158128033Y-68558500D01*
X158128034Y-68558500D01*
X158128041Y-68558499D01*
X158381238Y-68520336D01*
X158381239Y-68520335D01*
X158381243Y-68520335D01*
X158625935Y-68444858D01*
X158856646Y-68333754D01*
X159068219Y-68189505D01*
X159255931Y-68015334D01*
X159415587Y-67815131D01*
X159543622Y-67593369D01*
X159637174Y-67355001D01*
X159694155Y-67105353D01*
X159701675Y-67005006D01*
X159713291Y-66850004D01*
X159713291Y-66849995D01*
X159694156Y-66594656D01*
X159694155Y-66594651D01*
X159694155Y-66594647D01*
X159637174Y-66344999D01*
X159543622Y-66106631D01*
X159415587Y-65884869D01*
X159255931Y-65684666D01*
X159255930Y-65684665D01*
X159255927Y-65684661D01*
X159100019Y-65540001D01*
X159068219Y-65510495D01*
X159014946Y-65474174D01*
X158856649Y-65366248D01*
X158856638Y-65366241D01*
X158625940Y-65255144D01*
X158625921Y-65255137D01*
X158381248Y-65179666D01*
X158381238Y-65179663D01*
X158128041Y-65141500D01*
X158128034Y-65141500D01*
X157871966Y-65141500D01*
X157871958Y-65141500D01*
X157618761Y-65179663D01*
X157618755Y-65179665D01*
X157374061Y-65255143D01*
X157143362Y-65366241D01*
X157143361Y-65366242D01*
X156931780Y-65510495D01*
X156744072Y-65684661D01*
X156584413Y-65884869D01*
X156456378Y-66106630D01*
X156362828Y-66344993D01*
X156362822Y-66345012D01*
X156305844Y-66594651D01*
X156305843Y-66594656D01*
X156286709Y-66849995D01*
X154702051Y-66849995D01*
X154713291Y-66700004D01*
X154713291Y-66699995D01*
X154694156Y-66444656D01*
X154694155Y-66444651D01*
X154694155Y-66444647D01*
X154637174Y-66194999D01*
X154543622Y-65956631D01*
X154415587Y-65734869D01*
X154255931Y-65534666D01*
X154255930Y-65534665D01*
X154255927Y-65534661D01*
X154074419Y-65366248D01*
X154068219Y-65360495D01*
X154010902Y-65321417D01*
X153856649Y-65216248D01*
X153856638Y-65216241D01*
X153625940Y-65105144D01*
X153625921Y-65105137D01*
X153381248Y-65029666D01*
X153381238Y-65029663D01*
X153128041Y-64991500D01*
X153128034Y-64991500D01*
X152871966Y-64991500D01*
X152871958Y-64991500D01*
X152618761Y-65029663D01*
X152618755Y-65029665D01*
X152374061Y-65105143D01*
X152143362Y-65216241D01*
X152143361Y-65216242D01*
X151931780Y-65360495D01*
X151744072Y-65534661D01*
X151584413Y-65734869D01*
X151456378Y-65956630D01*
X151362828Y-66194993D01*
X151362822Y-66195012D01*
X151305844Y-66444651D01*
X151305843Y-66444656D01*
X151286709Y-66699995D01*
X149713291Y-66699995D01*
X149694156Y-66444656D01*
X149694155Y-66444651D01*
X149694155Y-66444647D01*
X149637174Y-66194999D01*
X149543622Y-65956631D01*
X149415587Y-65734869D01*
X149255931Y-65534666D01*
X149255930Y-65534665D01*
X149255927Y-65534661D01*
X149074419Y-65366248D01*
X149068219Y-65360495D01*
X149010902Y-65321417D01*
X148856649Y-65216248D01*
X148856638Y-65216241D01*
X148625940Y-65105144D01*
X148625921Y-65105137D01*
X148381248Y-65029666D01*
X148381238Y-65029663D01*
X148128041Y-64991500D01*
X148128034Y-64991500D01*
X147871966Y-64991500D01*
X147871958Y-64991500D01*
X147618761Y-65029663D01*
X147618755Y-65029665D01*
X147374061Y-65105143D01*
X147143362Y-65216241D01*
X147143361Y-65216242D01*
X146931780Y-65360495D01*
X146744072Y-65534661D01*
X146584413Y-65734869D01*
X146456378Y-65956630D01*
X146362828Y-66194993D01*
X146362822Y-66195012D01*
X146305844Y-66444651D01*
X146305843Y-66444656D01*
X146286709Y-66699995D01*
X144713291Y-66699995D01*
X144694156Y-66444656D01*
X144694155Y-66444651D01*
X144694155Y-66444647D01*
X144637174Y-66194999D01*
X144543622Y-65956631D01*
X144415587Y-65734869D01*
X144255931Y-65534666D01*
X144255930Y-65534665D01*
X144255927Y-65534661D01*
X144074419Y-65366248D01*
X144068219Y-65360495D01*
X144010902Y-65321417D01*
X143856649Y-65216248D01*
X143856638Y-65216241D01*
X143625940Y-65105144D01*
X143625921Y-65105137D01*
X143381248Y-65029666D01*
X143381238Y-65029663D01*
X143128041Y-64991500D01*
X143128034Y-64991500D01*
X142871966Y-64991500D01*
X142871958Y-64991500D01*
X142618761Y-65029663D01*
X142618755Y-65029665D01*
X142374061Y-65105143D01*
X142143362Y-65216241D01*
X142143361Y-65216242D01*
X141931780Y-65360495D01*
X141744072Y-65534661D01*
X141584413Y-65734869D01*
X141456378Y-65956630D01*
X141362828Y-66194993D01*
X141362822Y-66195012D01*
X141305844Y-66444651D01*
X141305843Y-66444656D01*
X141286709Y-66699995D01*
X139698303Y-66699995D01*
X139713291Y-66500004D01*
X139713291Y-66499995D01*
X139694156Y-66244656D01*
X139694155Y-66244651D01*
X139694155Y-66244647D01*
X139637174Y-65994999D01*
X139543622Y-65756631D01*
X139415587Y-65534869D01*
X139255931Y-65334666D01*
X139255930Y-65334665D01*
X139255927Y-65334661D01*
X139134989Y-65222448D01*
X139068219Y-65160495D01*
X139038013Y-65139901D01*
X138856649Y-65016248D01*
X138856638Y-65016241D01*
X138625940Y-64905144D01*
X138625921Y-64905137D01*
X138381248Y-64829666D01*
X138381238Y-64829663D01*
X138128041Y-64791500D01*
X138128034Y-64791500D01*
X137871966Y-64791500D01*
X137871958Y-64791500D01*
X137618761Y-64829663D01*
X137618755Y-64829665D01*
X137374061Y-64905143D01*
X137143362Y-65016241D01*
X137143361Y-65016242D01*
X136931780Y-65160495D01*
X136744072Y-65334661D01*
X136584413Y-65534869D01*
X136456378Y-65756630D01*
X136362828Y-65994993D01*
X136362822Y-65995012D01*
X136305844Y-66244651D01*
X136305843Y-66244656D01*
X136286709Y-66499995D01*
X134672551Y-66499995D01*
X134637174Y-66344999D01*
X134543622Y-66106631D01*
X134415587Y-65884869D01*
X134255931Y-65684666D01*
X134255930Y-65684665D01*
X134255927Y-65684661D01*
X134100019Y-65540001D01*
X134068219Y-65510495D01*
X134014946Y-65474174D01*
X133856649Y-65366248D01*
X133856638Y-65366241D01*
X133625940Y-65255144D01*
X133625921Y-65255137D01*
X133381248Y-65179666D01*
X133381238Y-65179663D01*
X133128041Y-65141500D01*
X133128034Y-65141500D01*
X132871966Y-65141500D01*
X132871958Y-65141500D01*
X132618761Y-65179663D01*
X132618755Y-65179665D01*
X132374061Y-65255143D01*
X132143362Y-65366241D01*
X132143361Y-65366242D01*
X131931780Y-65510495D01*
X131744072Y-65684661D01*
X131584413Y-65884869D01*
X131456378Y-66106630D01*
X131362828Y-66344993D01*
X131362822Y-66345012D01*
X131305844Y-66594651D01*
X131305843Y-66594656D01*
X131286709Y-66849995D01*
X127421179Y-66849995D01*
X127408162Y-66804326D01*
X127428378Y-66737445D01*
X127479754Y-66692928D01*
X127614390Y-66630146D01*
X127677443Y-66585995D01*
X127114410Y-66022962D01*
X127177993Y-66005925D01*
X127292007Y-65940099D01*
X127385099Y-65847007D01*
X127450925Y-65732993D01*
X127467962Y-65669409D01*
X128030995Y-66232442D01*
X128075145Y-66169392D01*
X128167874Y-65970533D01*
X128167878Y-65970524D01*
X128224664Y-65758592D01*
X128224666Y-65758582D01*
X128243790Y-65540000D01*
X128243790Y-65539999D01*
X128224666Y-65321417D01*
X128224664Y-65321407D01*
X128167878Y-65109475D01*
X128167874Y-65109466D01*
X128075144Y-64910605D01*
X128075142Y-64910601D01*
X128030996Y-64847555D01*
X127467962Y-65410589D01*
X127450925Y-65347007D01*
X127385099Y-65232993D01*
X127292007Y-65139901D01*
X127177993Y-65074075D01*
X127114409Y-65057037D01*
X127677443Y-64494003D01*
X127614392Y-64449854D01*
X127479753Y-64387071D01*
X127427314Y-64340899D01*
X127408162Y-64273705D01*
X127428378Y-64206824D01*
X127479752Y-64162308D01*
X127618662Y-64097534D01*
X127799620Y-63970826D01*
X127955826Y-63814620D01*
X128082534Y-63633662D01*
X128175894Y-63433450D01*
X128233070Y-63220068D01*
X128252323Y-63000000D01*
X128233070Y-62779932D01*
X128175894Y-62566550D01*
X128082534Y-62366339D01*
X127955826Y-62185380D01*
X127799620Y-62029174D01*
X127799616Y-62029171D01*
X127799615Y-62029170D01*
X127618666Y-61902468D01*
X127618658Y-61902464D01*
X127489811Y-61842382D01*
X127437371Y-61796210D01*
X127418219Y-61729017D01*
X127438435Y-61662135D01*
X127489811Y-61617618D01*
X127495802Y-61614824D01*
X127618662Y-61557534D01*
X127799620Y-61430826D01*
X127955826Y-61274620D01*
X128082534Y-61093662D01*
X128175894Y-60893450D01*
X128233070Y-60680068D01*
X128252323Y-60460000D01*
X128233070Y-60239932D01*
X128175894Y-60026550D01*
X128082534Y-59826339D01*
X127955826Y-59645380D01*
X127799620Y-59489174D01*
X127799616Y-59489171D01*
X127799615Y-59489170D01*
X127618666Y-59362468D01*
X127618658Y-59362464D01*
X127489811Y-59302382D01*
X127437371Y-59256210D01*
X127418219Y-59189017D01*
X127438435Y-59122135D01*
X127489811Y-59077618D01*
X127495802Y-59074824D01*
X127618662Y-59017534D01*
X127799620Y-58890826D01*
X127955826Y-58734620D01*
X128082534Y-58553662D01*
X128175894Y-58353450D01*
X128233070Y-58140068D01*
X128252323Y-57920000D01*
X128233070Y-57699932D01*
X128175894Y-57486550D01*
X128082534Y-57286339D01*
X127955826Y-57105380D01*
X127799620Y-56949174D01*
X127799616Y-56949171D01*
X127799615Y-56949170D01*
X127618666Y-56822468D01*
X127618658Y-56822464D01*
X127489811Y-56762382D01*
X127437371Y-56716210D01*
X127418219Y-56649017D01*
X127438435Y-56582135D01*
X127489811Y-56537618D01*
X127495802Y-56534824D01*
X127618662Y-56477534D01*
X127799620Y-56350826D01*
X127955826Y-56194620D01*
X128082534Y-56013662D01*
X128175894Y-55813450D01*
X128233070Y-55600068D01*
X128251023Y-55394856D01*
X128252323Y-55380002D01*
X128252323Y-55379997D01*
X128243903Y-55283754D01*
X128233070Y-55159932D01*
X128175894Y-54946550D01*
X128082534Y-54746339D01*
X128015808Y-54651044D01*
X127955827Y-54565381D01*
X127895433Y-54504987D01*
X127799620Y-54409174D01*
X127799616Y-54409171D01*
X127799615Y-54409170D01*
X127618666Y-54282468D01*
X127618662Y-54282466D01*
X127618660Y-54282465D01*
X127418450Y-54189106D01*
X127418447Y-54189105D01*
X127418445Y-54189104D01*
X127272489Y-54149995D01*
X131286709Y-54149995D01*
X131286709Y-54150004D01*
X131305843Y-54405343D01*
X131305844Y-54405345D01*
X131305845Y-54405353D01*
X131334706Y-54531804D01*
X131362822Y-54654987D01*
X131362824Y-54654996D01*
X131362826Y-54655001D01*
X131456378Y-54893369D01*
X131584413Y-55115131D01*
X131624452Y-55165338D01*
X131744072Y-55315338D01*
X131911121Y-55470335D01*
X131931781Y-55489505D01*
X132143355Y-55633754D01*
X132143360Y-55633756D01*
X132143361Y-55633757D01*
X132143362Y-55633758D01*
X132219312Y-55670333D01*
X132374061Y-55744856D01*
X132374062Y-55744856D01*
X132374065Y-55744858D01*
X132618757Y-55820335D01*
X132618758Y-55820335D01*
X132618761Y-55820336D01*
X132871958Y-55858499D01*
X132871963Y-55858499D01*
X132871966Y-55858500D01*
X132871967Y-55858500D01*
X133128033Y-55858500D01*
X133128034Y-55858500D01*
X133128041Y-55858499D01*
X133381238Y-55820336D01*
X133381239Y-55820335D01*
X133381243Y-55820335D01*
X133625935Y-55744858D01*
X133856646Y-55633754D01*
X134068219Y-55489505D01*
X134255931Y-55315334D01*
X134415587Y-55115131D01*
X134543622Y-54893369D01*
X134637174Y-54655001D01*
X134694155Y-54405353D01*
X134701675Y-54305006D01*
X134713291Y-54150004D01*
X134713291Y-54149995D01*
X134694156Y-53894656D01*
X134694155Y-53894651D01*
X134694155Y-53894647D01*
X134672551Y-53799995D01*
X136286709Y-53799995D01*
X136286709Y-53800004D01*
X136305843Y-54055343D01*
X136305844Y-54055348D01*
X136362822Y-54304987D01*
X136362824Y-54304996D01*
X136362826Y-54305001D01*
X136456378Y-54543369D01*
X136584413Y-54765131D01*
X136686679Y-54893369D01*
X136744072Y-54965338D01*
X136888738Y-55099567D01*
X136931781Y-55139505D01*
X137143355Y-55283754D01*
X137143360Y-55283756D01*
X137143361Y-55283757D01*
X137143362Y-55283758D01*
X137259121Y-55339504D01*
X137374061Y-55394856D01*
X137374062Y-55394856D01*
X137374065Y-55394858D01*
X137618757Y-55470335D01*
X137618758Y-55470335D01*
X137618761Y-55470336D01*
X137871958Y-55508499D01*
X137871963Y-55508499D01*
X137871966Y-55508500D01*
X137871967Y-55508500D01*
X138128033Y-55508500D01*
X138128034Y-55508500D01*
X138128041Y-55508499D01*
X138381238Y-55470336D01*
X138381239Y-55470335D01*
X138381243Y-55470335D01*
X138625935Y-55394858D01*
X138856646Y-55283754D01*
X139068219Y-55139505D01*
X139255931Y-54965334D01*
X139415587Y-54765131D01*
X139543622Y-54543369D01*
X139637174Y-54305001D01*
X139694155Y-54055353D01*
X139698303Y-54000000D01*
X139698303Y-53999995D01*
X141286709Y-53999995D01*
X141286709Y-54000004D01*
X141305843Y-54255343D01*
X141305844Y-54255348D01*
X141362822Y-54504987D01*
X141362824Y-54504996D01*
X141362826Y-54505001D01*
X141456378Y-54743369D01*
X141584413Y-54965131D01*
X141691622Y-55099567D01*
X141744072Y-55165338D01*
X141871700Y-55283758D01*
X141931781Y-55339505D01*
X142143355Y-55483754D01*
X142143360Y-55483756D01*
X142143361Y-55483757D01*
X142143362Y-55483758D01*
X142265890Y-55542764D01*
X142374061Y-55594856D01*
X142374062Y-55594856D01*
X142374065Y-55594858D01*
X142618757Y-55670335D01*
X142618758Y-55670335D01*
X142618761Y-55670336D01*
X142871958Y-55708499D01*
X142871963Y-55708499D01*
X142871966Y-55708500D01*
X142871967Y-55708500D01*
X143128033Y-55708500D01*
X143128034Y-55708500D01*
X143128041Y-55708499D01*
X143381238Y-55670336D01*
X143381239Y-55670335D01*
X143381243Y-55670335D01*
X143625935Y-55594858D01*
X143856646Y-55483754D01*
X144068219Y-55339505D01*
X144255931Y-55165334D01*
X144415587Y-54965131D01*
X144543622Y-54743369D01*
X144637174Y-54505001D01*
X144694155Y-54255353D01*
X144694156Y-54255343D01*
X144713291Y-54000004D01*
X144713291Y-53999995D01*
X146286709Y-53999995D01*
X146286709Y-54000004D01*
X146305843Y-54255343D01*
X146305844Y-54255348D01*
X146362822Y-54504987D01*
X146362824Y-54504996D01*
X146362826Y-54505001D01*
X146456378Y-54743369D01*
X146584413Y-54965131D01*
X146691622Y-55099567D01*
X146744072Y-55165338D01*
X146871700Y-55283758D01*
X146931781Y-55339505D01*
X147143355Y-55483754D01*
X147143360Y-55483756D01*
X147143361Y-55483757D01*
X147143362Y-55483758D01*
X147265890Y-55542764D01*
X147374061Y-55594856D01*
X147374062Y-55594856D01*
X147374065Y-55594858D01*
X147618757Y-55670335D01*
X147618758Y-55670335D01*
X147618761Y-55670336D01*
X147871958Y-55708499D01*
X147871963Y-55708499D01*
X147871966Y-55708500D01*
X147871967Y-55708500D01*
X148128033Y-55708500D01*
X148128034Y-55708500D01*
X148128041Y-55708499D01*
X148381238Y-55670336D01*
X148381239Y-55670335D01*
X148381243Y-55670335D01*
X148625935Y-55594858D01*
X148856646Y-55483754D01*
X149068219Y-55339505D01*
X149255931Y-55165334D01*
X149415587Y-54965131D01*
X149543622Y-54743369D01*
X149637174Y-54505001D01*
X149694155Y-54255353D01*
X149694156Y-54255343D01*
X149713291Y-54000004D01*
X149713291Y-53999995D01*
X151286709Y-53999995D01*
X151286709Y-54000004D01*
X151305843Y-54255343D01*
X151305844Y-54255348D01*
X151362822Y-54504987D01*
X151362824Y-54504996D01*
X151362826Y-54505001D01*
X151456378Y-54743369D01*
X151584413Y-54965131D01*
X151691622Y-55099567D01*
X151744072Y-55165338D01*
X151871700Y-55283758D01*
X151931781Y-55339505D01*
X152143355Y-55483754D01*
X152143360Y-55483756D01*
X152143361Y-55483757D01*
X152143362Y-55483758D01*
X152265890Y-55542764D01*
X152374061Y-55594856D01*
X152374062Y-55594856D01*
X152374065Y-55594858D01*
X152618757Y-55670335D01*
X152618758Y-55670335D01*
X152618761Y-55670336D01*
X152871958Y-55708499D01*
X152871963Y-55708499D01*
X152871966Y-55708500D01*
X152871967Y-55708500D01*
X153128033Y-55708500D01*
X153128034Y-55708500D01*
X153128041Y-55708499D01*
X153381238Y-55670336D01*
X153381239Y-55670335D01*
X153381243Y-55670335D01*
X153625935Y-55594858D01*
X153856646Y-55483754D01*
X154068219Y-55339505D01*
X154255931Y-55165334D01*
X154415587Y-54965131D01*
X154543622Y-54743369D01*
X154637174Y-54505001D01*
X154694155Y-54255353D01*
X154694156Y-54255343D01*
X154702051Y-54149995D01*
X156286709Y-54149995D01*
X156286709Y-54150004D01*
X156305843Y-54405343D01*
X156305844Y-54405345D01*
X156305845Y-54405353D01*
X156334706Y-54531804D01*
X156362822Y-54654987D01*
X156362824Y-54654996D01*
X156362826Y-54655001D01*
X156456378Y-54893369D01*
X156584413Y-55115131D01*
X156624452Y-55165338D01*
X156744072Y-55315338D01*
X156911121Y-55470335D01*
X156931781Y-55489505D01*
X157143355Y-55633754D01*
X157143360Y-55633756D01*
X157143361Y-55633757D01*
X157143362Y-55633758D01*
X157219312Y-55670333D01*
X157374061Y-55744856D01*
X157374062Y-55744856D01*
X157374065Y-55744858D01*
X157618757Y-55820335D01*
X157618758Y-55820335D01*
X157618761Y-55820336D01*
X157871958Y-55858499D01*
X157871963Y-55858499D01*
X157871966Y-55858500D01*
X157871967Y-55858500D01*
X158128033Y-55858500D01*
X158128034Y-55858500D01*
X158128041Y-55858499D01*
X158381238Y-55820336D01*
X158381239Y-55820335D01*
X158381243Y-55820335D01*
X158625935Y-55744858D01*
X158856646Y-55633754D01*
X159068219Y-55489505D01*
X159255931Y-55315334D01*
X159415587Y-55115131D01*
X159543622Y-54893369D01*
X159637174Y-54655001D01*
X159694155Y-54405353D01*
X159701675Y-54305006D01*
X159713291Y-54150004D01*
X159713291Y-54149995D01*
X159694156Y-53894656D01*
X159694155Y-53894651D01*
X159694155Y-53894647D01*
X159637174Y-53644999D01*
X159543622Y-53406631D01*
X159415587Y-53184869D01*
X159255931Y-52984666D01*
X159255930Y-52984665D01*
X159255927Y-52984661D01*
X159094269Y-52834666D01*
X159068219Y-52810495D01*
X158856646Y-52666246D01*
X158856645Y-52666245D01*
X158856638Y-52666241D01*
X158625940Y-52555144D01*
X158625921Y-52555137D01*
X158381248Y-52479666D01*
X158381238Y-52479663D01*
X158128041Y-52441500D01*
X158128034Y-52441500D01*
X157871966Y-52441500D01*
X157871958Y-52441500D01*
X157618761Y-52479663D01*
X157618755Y-52479665D01*
X157374061Y-52555143D01*
X157143362Y-52666241D01*
X157143361Y-52666242D01*
X156931780Y-52810495D01*
X156744072Y-52984661D01*
X156584413Y-53184869D01*
X156456378Y-53406630D01*
X156362828Y-53644993D01*
X156362822Y-53645012D01*
X156305844Y-53894651D01*
X156305843Y-53894656D01*
X156286709Y-54149995D01*
X154702051Y-54149995D01*
X154713291Y-54000004D01*
X154713291Y-53999995D01*
X154694156Y-53744656D01*
X154694155Y-53744651D01*
X154694155Y-53744647D01*
X154637174Y-53494999D01*
X154543622Y-53256631D01*
X154415587Y-53034869D01*
X154255931Y-52834666D01*
X154255930Y-52834665D01*
X154255927Y-52834661D01*
X154074419Y-52666248D01*
X154068219Y-52660495D01*
X153856646Y-52516246D01*
X153856645Y-52516245D01*
X153856638Y-52516241D01*
X153625940Y-52405144D01*
X153625921Y-52405137D01*
X153381248Y-52329666D01*
X153381238Y-52329663D01*
X153128041Y-52291500D01*
X153128034Y-52291500D01*
X152871966Y-52291500D01*
X152871958Y-52291500D01*
X152618761Y-52329663D01*
X152618755Y-52329665D01*
X152374061Y-52405143D01*
X152143362Y-52516241D01*
X152143361Y-52516242D01*
X151931780Y-52660495D01*
X151744072Y-52834661D01*
X151584413Y-53034869D01*
X151456378Y-53256630D01*
X151362828Y-53494993D01*
X151362822Y-53495012D01*
X151305844Y-53744651D01*
X151305843Y-53744656D01*
X151286709Y-53999995D01*
X149713291Y-53999995D01*
X149694156Y-53744656D01*
X149694155Y-53744651D01*
X149694155Y-53744647D01*
X149637174Y-53494999D01*
X149543622Y-53256631D01*
X149415587Y-53034869D01*
X149255931Y-52834666D01*
X149255930Y-52834665D01*
X149255927Y-52834661D01*
X149074419Y-52666248D01*
X149068219Y-52660495D01*
X148856646Y-52516246D01*
X148856645Y-52516245D01*
X148856638Y-52516241D01*
X148625940Y-52405144D01*
X148625921Y-52405137D01*
X148381248Y-52329666D01*
X148381238Y-52329663D01*
X148128041Y-52291500D01*
X148128034Y-52291500D01*
X147871966Y-52291500D01*
X147871958Y-52291500D01*
X147618761Y-52329663D01*
X147618755Y-52329665D01*
X147374061Y-52405143D01*
X147143362Y-52516241D01*
X147143361Y-52516242D01*
X146931780Y-52660495D01*
X146744072Y-52834661D01*
X146584413Y-53034869D01*
X146456378Y-53256630D01*
X146362828Y-53494993D01*
X146362822Y-53495012D01*
X146305844Y-53744651D01*
X146305843Y-53744656D01*
X146286709Y-53999995D01*
X144713291Y-53999995D01*
X144694156Y-53744656D01*
X144694155Y-53744651D01*
X144694155Y-53744647D01*
X144637174Y-53494999D01*
X144543622Y-53256631D01*
X144415587Y-53034869D01*
X144255931Y-52834666D01*
X144255930Y-52834665D01*
X144255927Y-52834661D01*
X144074419Y-52666248D01*
X144068219Y-52660495D01*
X143856646Y-52516246D01*
X143856645Y-52516245D01*
X143856638Y-52516241D01*
X143625940Y-52405144D01*
X143625921Y-52405137D01*
X143381248Y-52329666D01*
X143381238Y-52329663D01*
X143128041Y-52291500D01*
X143128034Y-52291500D01*
X142871966Y-52291500D01*
X142871958Y-52291500D01*
X142618761Y-52329663D01*
X142618755Y-52329665D01*
X142374061Y-52405143D01*
X142143362Y-52516241D01*
X142143361Y-52516242D01*
X141931780Y-52660495D01*
X141744072Y-52834661D01*
X141584413Y-53034869D01*
X141456378Y-53256630D01*
X141362828Y-53494993D01*
X141362822Y-53495012D01*
X141305844Y-53744651D01*
X141305843Y-53744656D01*
X141286709Y-53999995D01*
X139698303Y-53999995D01*
X139713291Y-53800004D01*
X139713291Y-53799995D01*
X139694156Y-53544656D01*
X139694155Y-53544651D01*
X139694155Y-53544647D01*
X139637174Y-53294999D01*
X139543622Y-53056631D01*
X139415587Y-52834869D01*
X139255931Y-52634666D01*
X139255930Y-52634665D01*
X139255927Y-52634661D01*
X139134989Y-52522448D01*
X139068219Y-52460495D01*
X138987024Y-52405137D01*
X138856649Y-52316248D01*
X138856638Y-52316241D01*
X138625940Y-52205144D01*
X138625921Y-52205137D01*
X138381248Y-52129666D01*
X138381238Y-52129663D01*
X138128041Y-52091500D01*
X138128034Y-52091500D01*
X137871966Y-52091500D01*
X137871958Y-52091500D01*
X137618761Y-52129663D01*
X137618755Y-52129665D01*
X137374061Y-52205143D01*
X137143362Y-52316241D01*
X137143361Y-52316242D01*
X136931780Y-52460495D01*
X136744072Y-52634661D01*
X136584413Y-52834869D01*
X136456378Y-53056630D01*
X136362828Y-53294993D01*
X136362822Y-53295012D01*
X136305844Y-53544651D01*
X136305843Y-53544656D01*
X136286709Y-53799995D01*
X134672551Y-53799995D01*
X134637174Y-53644999D01*
X134543622Y-53406631D01*
X134415587Y-53184869D01*
X134255931Y-52984666D01*
X134255930Y-52984665D01*
X134255927Y-52984661D01*
X134094269Y-52834666D01*
X134068219Y-52810495D01*
X133856646Y-52666246D01*
X133856645Y-52666245D01*
X133856638Y-52666241D01*
X133625940Y-52555144D01*
X133625921Y-52555137D01*
X133381248Y-52479666D01*
X133381238Y-52479663D01*
X133128041Y-52441500D01*
X133128034Y-52441500D01*
X132871966Y-52441500D01*
X132871958Y-52441500D01*
X132618761Y-52479663D01*
X132618755Y-52479665D01*
X132374061Y-52555143D01*
X132143362Y-52666241D01*
X132143361Y-52666242D01*
X131931780Y-52810495D01*
X131744072Y-52984661D01*
X131584413Y-53184869D01*
X131456378Y-53406630D01*
X131362828Y-53644993D01*
X131362822Y-53645012D01*
X131305844Y-53894651D01*
X131305843Y-53894656D01*
X131286709Y-54149995D01*
X127272489Y-54149995D01*
X127205070Y-54131930D01*
X127205062Y-54131929D01*
X126985002Y-54112677D01*
X126984998Y-54112677D01*
X126764937Y-54131929D01*
X126764929Y-54131930D01*
X126551554Y-54189104D01*
X126551548Y-54189107D01*
X126351340Y-54282465D01*
X126351338Y-54282466D01*
X126170377Y-54409175D01*
X126014175Y-54565377D01*
X125887466Y-54746338D01*
X125887465Y-54746340D01*
X125794107Y-54946548D01*
X125794104Y-54946554D01*
X125736930Y-55159929D01*
X125736929Y-55159937D01*
X125717677Y-55379997D01*
X114709206Y-55379997D01*
X114660632Y-55311183D01*
X114519370Y-55159929D01*
X114463000Y-55099571D01*
X114462998Y-55099570D01*
X114462996Y-55099567D01*
X114274912Y-54946550D01*
X114238396Y-54916842D01*
X114238394Y-54916841D01*
X114238392Y-54916839D01*
X113991001Y-54766397D01*
X113725430Y-54651044D01*
X113446627Y-54572927D01*
X113446622Y-54572926D01*
X113446621Y-54572926D01*
X113231576Y-54543369D01*
X113159774Y-54533500D01*
X113159773Y-54533500D01*
X112870227Y-54533500D01*
X112870226Y-54533500D01*
X112583379Y-54572926D01*
X112583372Y-54572927D01*
X112304569Y-54651044D01*
X112038998Y-54766397D01*
X111791607Y-54916839D01*
X111567003Y-55099567D01*
X111369367Y-55311183D01*
X111202399Y-55547723D01*
X111202395Y-55547729D01*
X111069185Y-55804815D01*
X110972224Y-56077635D01*
X110972219Y-56077652D01*
X110913313Y-56361127D01*
X110913312Y-56361129D01*
X110893554Y-56650000D01*
X100075500Y-56650000D01*
X100075500Y-48301345D01*
X117437500Y-48301345D01*
X117437500Y-50098654D01*
X117444011Y-50159202D01*
X117444011Y-50159204D01*
X117495111Y-50296204D01*
X117582739Y-50413261D01*
X117699796Y-50500889D01*
X117836799Y-50551989D01*
X117864050Y-50554918D01*
X117897345Y-50558499D01*
X117897362Y-50558500D01*
X119694638Y-50558500D01*
X119694654Y-50558499D01*
X119721692Y-50555591D01*
X119755201Y-50551989D01*
X119892204Y-50500889D01*
X120009261Y-50413261D01*
X120096889Y-50296204D01*
X120142138Y-50174887D01*
X120184009Y-50118956D01*
X120249474Y-50094539D01*
X120317746Y-50109391D01*
X120349545Y-50134236D01*
X120412760Y-50202906D01*
X120590424Y-50341189D01*
X120590425Y-50341189D01*
X120590427Y-50341191D01*
X120650314Y-50373600D01*
X120788426Y-50448342D01*
X121001365Y-50521444D01*
X121223431Y-50558500D01*
X121448569Y-50558500D01*
X121670635Y-50521444D01*
X121883574Y-50448342D01*
X122081576Y-50341189D01*
X122259240Y-50202906D01*
X122380594Y-50071082D01*
X122411715Y-50037276D01*
X122411715Y-50037275D01*
X122411722Y-50037268D01*
X122502193Y-49898790D01*
X122555338Y-49853437D01*
X122624569Y-49844013D01*
X122687905Y-49873515D01*
X122709804Y-49898787D01*
X122800278Y-50037268D01*
X122800283Y-50037273D01*
X122800284Y-50037276D01*
X122926968Y-50174889D01*
X122952760Y-50202906D01*
X123130424Y-50341189D01*
X123130425Y-50341189D01*
X123130427Y-50341191D01*
X123190314Y-50373600D01*
X123328426Y-50448342D01*
X123541365Y-50521444D01*
X123763431Y-50558500D01*
X123988569Y-50558500D01*
X124210635Y-50521444D01*
X124423574Y-50448342D01*
X124621576Y-50341189D01*
X124799240Y-50202906D01*
X124920594Y-50071082D01*
X124951715Y-50037276D01*
X124951715Y-50037275D01*
X124951722Y-50037268D01*
X125045749Y-49893347D01*
X125098894Y-49847994D01*
X125168125Y-49838570D01*
X125231461Y-49868072D01*
X125251130Y-49890048D01*
X125377890Y-50071078D01*
X125544917Y-50238105D01*
X125738421Y-50373600D01*
X125952507Y-50473429D01*
X125952516Y-50473433D01*
X126166000Y-50530634D01*
X126166000Y-49633012D01*
X126223007Y-49665925D01*
X126350174Y-49700000D01*
X126481826Y-49700000D01*
X126608993Y-49665925D01*
X126666000Y-49633012D01*
X126666000Y-50530633D01*
X126879483Y-50473433D01*
X126879492Y-50473429D01*
X127093578Y-50373600D01*
X127287082Y-50238105D01*
X127454105Y-50071082D01*
X127580868Y-49890048D01*
X127635445Y-49846423D01*
X127704944Y-49839231D01*
X127767298Y-49870753D01*
X127786251Y-49893350D01*
X127880276Y-50037265D01*
X127880284Y-50037276D01*
X128006968Y-50174889D01*
X128032760Y-50202906D01*
X128210424Y-50341189D01*
X128210425Y-50341189D01*
X128210427Y-50341191D01*
X128270314Y-50373600D01*
X128408426Y-50448342D01*
X128621365Y-50521444D01*
X128843431Y-50558500D01*
X129068569Y-50558500D01*
X129290635Y-50521444D01*
X129503574Y-50448342D01*
X129701576Y-50341189D01*
X129879240Y-50202906D01*
X130000594Y-50071082D01*
X130031715Y-50037276D01*
X130031715Y-50037275D01*
X130031722Y-50037268D01*
X130122193Y-49898790D01*
X130175338Y-49853437D01*
X130244569Y-49844013D01*
X130307905Y-49873515D01*
X130329804Y-49898787D01*
X130420278Y-50037268D01*
X130420283Y-50037273D01*
X130420284Y-50037276D01*
X130546968Y-50174889D01*
X130572760Y-50202906D01*
X130750424Y-50341189D01*
X130750425Y-50341189D01*
X130750427Y-50341191D01*
X130810314Y-50373600D01*
X130948426Y-50448342D01*
X131161365Y-50521444D01*
X131383431Y-50558500D01*
X131608569Y-50558500D01*
X131830635Y-50521444D01*
X132043574Y-50448342D01*
X132241576Y-50341189D01*
X132419240Y-50202906D01*
X132540594Y-50071082D01*
X132571715Y-50037276D01*
X132571715Y-50037275D01*
X132571722Y-50037268D01*
X132662193Y-49898790D01*
X132715338Y-49853437D01*
X132784569Y-49844013D01*
X132847905Y-49873515D01*
X132869804Y-49898787D01*
X132960278Y-50037268D01*
X132960283Y-50037273D01*
X132960284Y-50037276D01*
X133086968Y-50174889D01*
X133112760Y-50202906D01*
X133290424Y-50341189D01*
X133290425Y-50341189D01*
X133290427Y-50341191D01*
X133350314Y-50373600D01*
X133488426Y-50448342D01*
X133701365Y-50521444D01*
X133923431Y-50558500D01*
X134148569Y-50558500D01*
X134370635Y-50521444D01*
X134583574Y-50448342D01*
X134781576Y-50341189D01*
X134959240Y-50202906D01*
X135080594Y-50071082D01*
X135111715Y-50037276D01*
X135111715Y-50037275D01*
X135111722Y-50037268D01*
X135202193Y-49898790D01*
X135255338Y-49853437D01*
X135324569Y-49844013D01*
X135387905Y-49873515D01*
X135409804Y-49898787D01*
X135500278Y-50037268D01*
X135500283Y-50037273D01*
X135500284Y-50037276D01*
X135626968Y-50174889D01*
X135652760Y-50202906D01*
X135830424Y-50341189D01*
X135830425Y-50341189D01*
X135830427Y-50341191D01*
X135890314Y-50373600D01*
X136028426Y-50448342D01*
X136241365Y-50521444D01*
X136463431Y-50558500D01*
X136688569Y-50558500D01*
X136910635Y-50521444D01*
X137123574Y-50448342D01*
X137321576Y-50341189D01*
X137499240Y-50202906D01*
X137620594Y-50071082D01*
X137651715Y-50037276D01*
X137651715Y-50037275D01*
X137651722Y-50037268D01*
X137742193Y-49898790D01*
X137795338Y-49853437D01*
X137864569Y-49844013D01*
X137927905Y-49873515D01*
X137949804Y-49898787D01*
X138040278Y-50037268D01*
X138040283Y-50037273D01*
X138040284Y-50037276D01*
X138166968Y-50174889D01*
X138192760Y-50202906D01*
X138370424Y-50341189D01*
X138370425Y-50341189D01*
X138370427Y-50341191D01*
X138430314Y-50373600D01*
X138568426Y-50448342D01*
X138781365Y-50521444D01*
X139003431Y-50558500D01*
X139228569Y-50558500D01*
X139450635Y-50521444D01*
X139663574Y-50448342D01*
X139861576Y-50341189D01*
X140039240Y-50202906D01*
X140160594Y-50071082D01*
X140191715Y-50037276D01*
X140191715Y-50037275D01*
X140191722Y-50037268D01*
X140282193Y-49898790D01*
X140335338Y-49853437D01*
X140404569Y-49844013D01*
X140467905Y-49873515D01*
X140489804Y-49898787D01*
X140580278Y-50037268D01*
X140580283Y-50037273D01*
X140580284Y-50037276D01*
X140706968Y-50174889D01*
X140732760Y-50202906D01*
X140910424Y-50341189D01*
X140910425Y-50341189D01*
X140910427Y-50341191D01*
X140970314Y-50373600D01*
X141108426Y-50448342D01*
X141321365Y-50521444D01*
X141543431Y-50558500D01*
X141768569Y-50558500D01*
X141990635Y-50521444D01*
X142203574Y-50448342D01*
X142401576Y-50341189D01*
X142579240Y-50202906D01*
X142700594Y-50071082D01*
X142731715Y-50037276D01*
X142731717Y-50037273D01*
X142731722Y-50037268D01*
X142854860Y-49848791D01*
X142945296Y-49642616D01*
X143000564Y-49424368D01*
X143012309Y-49282635D01*
X143019156Y-49200005D01*
X143019156Y-49199994D01*
X143000565Y-48975640D01*
X143000563Y-48975628D01*
X142945296Y-48757385D01*
X142935071Y-48734075D01*
X142854860Y-48551209D01*
X142838706Y-48526484D01*
X142731723Y-48362734D01*
X142731715Y-48362723D01*
X142675212Y-48301345D01*
X144361500Y-48301345D01*
X144361500Y-50098654D01*
X144368011Y-50159202D01*
X144368011Y-50159204D01*
X144419111Y-50296204D01*
X144506739Y-50413261D01*
X144623796Y-50500889D01*
X144760799Y-50551989D01*
X144788050Y-50554918D01*
X144821345Y-50558499D01*
X144821362Y-50558500D01*
X146618638Y-50558500D01*
X146618654Y-50558499D01*
X146645692Y-50555591D01*
X146679201Y-50551989D01*
X146816204Y-50500889D01*
X146933261Y-50413261D01*
X147020889Y-50296204D01*
X147066138Y-50174887D01*
X147108009Y-50118956D01*
X147173474Y-50094539D01*
X147241746Y-50109391D01*
X147273545Y-50134236D01*
X147336760Y-50202906D01*
X147514424Y-50341189D01*
X147514425Y-50341189D01*
X147514427Y-50341191D01*
X147574314Y-50373600D01*
X147712426Y-50448342D01*
X147925365Y-50521444D01*
X148147431Y-50558500D01*
X148372569Y-50558500D01*
X148594635Y-50521444D01*
X148807574Y-50448342D01*
X149005576Y-50341189D01*
X149183240Y-50202906D01*
X149304594Y-50071082D01*
X149335715Y-50037276D01*
X149335715Y-50037275D01*
X149335722Y-50037268D01*
X149426193Y-49898790D01*
X149479338Y-49853437D01*
X149548569Y-49844013D01*
X149611905Y-49873515D01*
X149633804Y-49898787D01*
X149724278Y-50037268D01*
X149724283Y-50037273D01*
X149724284Y-50037276D01*
X149850968Y-50174889D01*
X149876760Y-50202906D01*
X150054424Y-50341189D01*
X150054425Y-50341189D01*
X150054427Y-50341191D01*
X150114314Y-50373600D01*
X150252426Y-50448342D01*
X150465365Y-50521444D01*
X150687431Y-50558500D01*
X150912569Y-50558500D01*
X151134635Y-50521444D01*
X151347574Y-50448342D01*
X151545576Y-50341189D01*
X151723240Y-50202906D01*
X151844594Y-50071082D01*
X151875715Y-50037276D01*
X151875715Y-50037275D01*
X151875722Y-50037268D01*
X151966193Y-49898790D01*
X152019338Y-49853437D01*
X152088569Y-49844013D01*
X152151905Y-49873515D01*
X152173804Y-49898787D01*
X152264278Y-50037268D01*
X152264283Y-50037273D01*
X152264284Y-50037276D01*
X152390968Y-50174889D01*
X152416760Y-50202906D01*
X152594424Y-50341189D01*
X152594425Y-50341189D01*
X152594427Y-50341191D01*
X152654314Y-50373600D01*
X152792426Y-50448342D01*
X153005365Y-50521444D01*
X153227431Y-50558500D01*
X153452569Y-50558500D01*
X153674635Y-50521444D01*
X153887574Y-50448342D01*
X154085576Y-50341189D01*
X154263240Y-50202906D01*
X154384594Y-50071082D01*
X154415715Y-50037276D01*
X154415715Y-50037275D01*
X154415722Y-50037268D01*
X154506193Y-49898790D01*
X154559338Y-49853437D01*
X154628569Y-49844013D01*
X154691905Y-49873515D01*
X154713804Y-49898787D01*
X154804278Y-50037268D01*
X154804283Y-50037273D01*
X154804284Y-50037276D01*
X154930968Y-50174889D01*
X154956760Y-50202906D01*
X155134424Y-50341189D01*
X155134425Y-50341189D01*
X155134427Y-50341191D01*
X155194314Y-50373600D01*
X155332426Y-50448342D01*
X155545365Y-50521444D01*
X155767431Y-50558500D01*
X155992569Y-50558500D01*
X156214635Y-50521444D01*
X156427574Y-50448342D01*
X156625576Y-50341189D01*
X156803240Y-50202906D01*
X156924594Y-50071082D01*
X156955715Y-50037276D01*
X156955715Y-50037275D01*
X156955722Y-50037268D01*
X157046193Y-49898790D01*
X157099338Y-49853437D01*
X157168569Y-49844013D01*
X157231905Y-49873515D01*
X157253804Y-49898787D01*
X157344278Y-50037268D01*
X157344283Y-50037273D01*
X157344284Y-50037276D01*
X157470968Y-50174889D01*
X157496760Y-50202906D01*
X157674424Y-50341189D01*
X157674425Y-50341189D01*
X157674427Y-50341191D01*
X157734314Y-50373600D01*
X157872426Y-50448342D01*
X158085365Y-50521444D01*
X158307431Y-50558500D01*
X158532569Y-50558500D01*
X158754635Y-50521444D01*
X158967574Y-50448342D01*
X159165576Y-50341189D01*
X159343240Y-50202906D01*
X159464594Y-50071082D01*
X159495715Y-50037276D01*
X159495715Y-50037275D01*
X159495722Y-50037268D01*
X159586193Y-49898790D01*
X159639338Y-49853437D01*
X159708569Y-49844013D01*
X159771905Y-49873515D01*
X159793804Y-49898787D01*
X159884278Y-50037268D01*
X159884283Y-50037273D01*
X159884284Y-50037276D01*
X160010968Y-50174889D01*
X160036760Y-50202906D01*
X160214424Y-50341189D01*
X160214425Y-50341189D01*
X160214427Y-50341191D01*
X160274314Y-50373600D01*
X160412426Y-50448342D01*
X160625365Y-50521444D01*
X160847431Y-50558500D01*
X161072569Y-50558500D01*
X161294635Y-50521444D01*
X161507574Y-50448342D01*
X161705576Y-50341189D01*
X161883240Y-50202906D01*
X162004594Y-50071082D01*
X162035715Y-50037276D01*
X162035715Y-50037275D01*
X162035722Y-50037268D01*
X162126193Y-49898790D01*
X162179338Y-49853437D01*
X162248569Y-49844013D01*
X162311905Y-49873515D01*
X162333804Y-49898787D01*
X162424278Y-50037268D01*
X162424283Y-50037273D01*
X162424284Y-50037276D01*
X162550968Y-50174889D01*
X162576760Y-50202906D01*
X162754424Y-50341189D01*
X162754425Y-50341189D01*
X162754427Y-50341191D01*
X162814314Y-50373600D01*
X162952426Y-50448342D01*
X163165365Y-50521444D01*
X163387431Y-50558500D01*
X163612569Y-50558500D01*
X163834635Y-50521444D01*
X164047574Y-50448342D01*
X164245576Y-50341189D01*
X164423240Y-50202906D01*
X164544594Y-50071082D01*
X164575715Y-50037276D01*
X164575717Y-50037273D01*
X164575722Y-50037268D01*
X164698860Y-49848791D01*
X164789296Y-49642616D01*
X164844564Y-49424368D01*
X164856309Y-49282635D01*
X164863156Y-49200005D01*
X164863156Y-49199994D01*
X164844565Y-48975640D01*
X164844563Y-48975628D01*
X164789296Y-48757385D01*
X164779071Y-48734075D01*
X164698860Y-48551209D01*
X164682706Y-48526484D01*
X164575723Y-48362734D01*
X164575715Y-48362723D01*
X164423243Y-48197097D01*
X164423238Y-48197092D01*
X164245577Y-48058812D01*
X164245572Y-48058808D01*
X164047580Y-47951661D01*
X164047577Y-47951659D01*
X164047574Y-47951658D01*
X164047571Y-47951657D01*
X164047569Y-47951656D01*
X163834637Y-47878556D01*
X163612569Y-47841500D01*
X163387431Y-47841500D01*
X163165362Y-47878556D01*
X162952430Y-47951656D01*
X162952419Y-47951661D01*
X162754427Y-48058808D01*
X162754422Y-48058812D01*
X162576761Y-48197092D01*
X162576756Y-48197097D01*
X162424284Y-48362723D01*
X162424276Y-48362734D01*
X162333808Y-48501206D01*
X162280662Y-48546562D01*
X162211431Y-48555986D01*
X162148095Y-48526484D01*
X162126192Y-48501206D01*
X162035723Y-48362734D01*
X162035715Y-48362723D01*
X161883243Y-48197097D01*
X161883238Y-48197092D01*
X161705577Y-48058812D01*
X161705572Y-48058808D01*
X161507580Y-47951661D01*
X161507577Y-47951659D01*
X161507574Y-47951658D01*
X161507571Y-47951657D01*
X161507569Y-47951656D01*
X161294637Y-47878556D01*
X161072569Y-47841500D01*
X160847431Y-47841500D01*
X160625362Y-47878556D01*
X160412430Y-47951656D01*
X160412419Y-47951661D01*
X160214427Y-48058808D01*
X160214422Y-48058812D01*
X160036761Y-48197092D01*
X160036756Y-48197097D01*
X159884284Y-48362723D01*
X159884276Y-48362734D01*
X159793808Y-48501206D01*
X159740662Y-48546562D01*
X159671431Y-48555986D01*
X159608095Y-48526484D01*
X159586192Y-48501206D01*
X159495723Y-48362734D01*
X159495715Y-48362723D01*
X159343243Y-48197097D01*
X159343238Y-48197092D01*
X159165577Y-48058812D01*
X159165572Y-48058808D01*
X158967580Y-47951661D01*
X158967577Y-47951659D01*
X158967574Y-47951658D01*
X158967571Y-47951657D01*
X158967569Y-47951656D01*
X158754637Y-47878556D01*
X158532569Y-47841500D01*
X158307431Y-47841500D01*
X158085362Y-47878556D01*
X157872430Y-47951656D01*
X157872419Y-47951661D01*
X157674427Y-48058808D01*
X157674422Y-48058812D01*
X157496761Y-48197092D01*
X157496756Y-48197097D01*
X157344284Y-48362723D01*
X157344276Y-48362734D01*
X157253808Y-48501206D01*
X157200662Y-48546562D01*
X157131431Y-48555986D01*
X157068095Y-48526484D01*
X157046192Y-48501206D01*
X156955723Y-48362734D01*
X156955715Y-48362723D01*
X156803243Y-48197097D01*
X156803238Y-48197092D01*
X156625577Y-48058812D01*
X156625572Y-48058808D01*
X156427580Y-47951661D01*
X156427577Y-47951659D01*
X156427574Y-47951658D01*
X156427571Y-47951657D01*
X156427569Y-47951656D01*
X156214637Y-47878556D01*
X155992569Y-47841500D01*
X155767431Y-47841500D01*
X155545362Y-47878556D01*
X155332430Y-47951656D01*
X155332419Y-47951661D01*
X155134427Y-48058808D01*
X155134422Y-48058812D01*
X154956761Y-48197092D01*
X154956756Y-48197097D01*
X154804284Y-48362723D01*
X154804276Y-48362734D01*
X154713808Y-48501206D01*
X154660662Y-48546562D01*
X154591431Y-48555986D01*
X154528095Y-48526484D01*
X154506192Y-48501206D01*
X154415723Y-48362734D01*
X154415715Y-48362723D01*
X154263243Y-48197097D01*
X154263238Y-48197092D01*
X154085577Y-48058812D01*
X154085572Y-48058808D01*
X153887580Y-47951661D01*
X153887577Y-47951659D01*
X153887574Y-47951658D01*
X153887571Y-47951657D01*
X153887569Y-47951656D01*
X153674637Y-47878556D01*
X153452569Y-47841500D01*
X153227431Y-47841500D01*
X153005362Y-47878556D01*
X152792430Y-47951656D01*
X152792419Y-47951661D01*
X152594427Y-48058808D01*
X152594422Y-48058812D01*
X152416761Y-48197092D01*
X152416756Y-48197097D01*
X152264284Y-48362723D01*
X152264276Y-48362734D01*
X152173808Y-48501206D01*
X152120662Y-48546562D01*
X152051431Y-48555986D01*
X151988095Y-48526484D01*
X151966192Y-48501206D01*
X151875723Y-48362734D01*
X151875715Y-48362723D01*
X151723243Y-48197097D01*
X151723238Y-48197092D01*
X151545577Y-48058812D01*
X151545572Y-48058808D01*
X151347580Y-47951661D01*
X151347577Y-47951659D01*
X151347574Y-47951658D01*
X151347571Y-47951657D01*
X151347569Y-47951656D01*
X151134637Y-47878556D01*
X150912569Y-47841500D01*
X150687431Y-47841500D01*
X150465362Y-47878556D01*
X150252430Y-47951656D01*
X150252419Y-47951661D01*
X150054427Y-48058808D01*
X150054422Y-48058812D01*
X149876761Y-48197092D01*
X149876756Y-48197097D01*
X149724284Y-48362723D01*
X149724276Y-48362734D01*
X149633808Y-48501206D01*
X149580662Y-48546562D01*
X149511431Y-48555986D01*
X149448095Y-48526484D01*
X149426192Y-48501206D01*
X149335723Y-48362734D01*
X149335715Y-48362723D01*
X149183243Y-48197097D01*
X149183238Y-48197092D01*
X149005577Y-48058812D01*
X149005572Y-48058808D01*
X148807580Y-47951661D01*
X148807577Y-47951659D01*
X148807574Y-47951658D01*
X148807571Y-47951657D01*
X148807569Y-47951656D01*
X148594637Y-47878556D01*
X148372569Y-47841500D01*
X148147431Y-47841500D01*
X147925362Y-47878556D01*
X147712430Y-47951656D01*
X147712419Y-47951661D01*
X147514427Y-48058808D01*
X147514422Y-48058812D01*
X147336761Y-48197092D01*
X147273548Y-48265760D01*
X147213661Y-48301750D01*
X147143823Y-48299649D01*
X147086207Y-48260124D01*
X147066138Y-48225110D01*
X147020889Y-48103796D01*
X146987214Y-48058812D01*
X146933261Y-47986739D01*
X146816204Y-47899111D01*
X146679203Y-47848011D01*
X146618654Y-47841500D01*
X146618638Y-47841500D01*
X144821362Y-47841500D01*
X144821345Y-47841500D01*
X144760797Y-47848011D01*
X144760795Y-47848011D01*
X144623795Y-47899111D01*
X144506739Y-47986739D01*
X144419111Y-48103795D01*
X144368011Y-48240795D01*
X144368011Y-48240797D01*
X144361500Y-48301345D01*
X142675212Y-48301345D01*
X142579243Y-48197097D01*
X142579238Y-48197092D01*
X142401577Y-48058812D01*
X142401572Y-48058808D01*
X142203580Y-47951661D01*
X142203577Y-47951659D01*
X142203574Y-47951658D01*
X142203571Y-47951657D01*
X142203569Y-47951656D01*
X141990637Y-47878556D01*
X141768569Y-47841500D01*
X141543431Y-47841500D01*
X141321362Y-47878556D01*
X141108430Y-47951656D01*
X141108419Y-47951661D01*
X140910427Y-48058808D01*
X140910422Y-48058812D01*
X140732761Y-48197092D01*
X140732756Y-48197097D01*
X140580284Y-48362723D01*
X140580276Y-48362734D01*
X140489808Y-48501206D01*
X140436662Y-48546562D01*
X140367431Y-48555986D01*
X140304095Y-48526484D01*
X140282192Y-48501206D01*
X140191723Y-48362734D01*
X140191715Y-48362723D01*
X140039243Y-48197097D01*
X140039238Y-48197092D01*
X139861577Y-48058812D01*
X139861572Y-48058808D01*
X139663580Y-47951661D01*
X139663577Y-47951659D01*
X139663574Y-47951658D01*
X139663571Y-47951657D01*
X139663569Y-47951656D01*
X139450637Y-47878556D01*
X139228569Y-47841500D01*
X139003431Y-47841500D01*
X138781362Y-47878556D01*
X138568430Y-47951656D01*
X138568419Y-47951661D01*
X138370427Y-48058808D01*
X138370422Y-48058812D01*
X138192761Y-48197092D01*
X138192756Y-48197097D01*
X138040284Y-48362723D01*
X138040276Y-48362734D01*
X137949808Y-48501206D01*
X137896662Y-48546562D01*
X137827431Y-48555986D01*
X137764095Y-48526484D01*
X137742192Y-48501206D01*
X137651723Y-48362734D01*
X137651715Y-48362723D01*
X137499243Y-48197097D01*
X137499238Y-48197092D01*
X137321577Y-48058812D01*
X137321572Y-48058808D01*
X137123580Y-47951661D01*
X137123577Y-47951659D01*
X137123574Y-47951658D01*
X137123571Y-47951657D01*
X137123569Y-47951656D01*
X136910637Y-47878556D01*
X136688569Y-47841500D01*
X136463431Y-47841500D01*
X136241362Y-47878556D01*
X136028430Y-47951656D01*
X136028419Y-47951661D01*
X135830427Y-48058808D01*
X135830422Y-48058812D01*
X135652761Y-48197092D01*
X135652756Y-48197097D01*
X135500284Y-48362723D01*
X135500276Y-48362734D01*
X135409808Y-48501206D01*
X135356662Y-48546562D01*
X135287431Y-48555986D01*
X135224095Y-48526484D01*
X135202192Y-48501206D01*
X135111723Y-48362734D01*
X135111715Y-48362723D01*
X134959243Y-48197097D01*
X134959238Y-48197092D01*
X134781577Y-48058812D01*
X134781572Y-48058808D01*
X134583580Y-47951661D01*
X134583577Y-47951659D01*
X134583574Y-47951658D01*
X134583571Y-47951657D01*
X134583569Y-47951656D01*
X134370637Y-47878556D01*
X134148569Y-47841500D01*
X133923431Y-47841500D01*
X133701362Y-47878556D01*
X133488430Y-47951656D01*
X133488419Y-47951661D01*
X133290427Y-48058808D01*
X133290422Y-48058812D01*
X133112761Y-48197092D01*
X133112756Y-48197097D01*
X132960284Y-48362723D01*
X132960276Y-48362734D01*
X132869808Y-48501206D01*
X132816662Y-48546562D01*
X132747431Y-48555986D01*
X132684095Y-48526484D01*
X132662192Y-48501206D01*
X132571723Y-48362734D01*
X132571715Y-48362723D01*
X132419243Y-48197097D01*
X132419238Y-48197092D01*
X132241577Y-48058812D01*
X132241572Y-48058808D01*
X132043580Y-47951661D01*
X132043577Y-47951659D01*
X132043574Y-47951658D01*
X132043571Y-47951657D01*
X132043569Y-47951656D01*
X131830637Y-47878556D01*
X131608569Y-47841500D01*
X131383431Y-47841500D01*
X131161362Y-47878556D01*
X130948430Y-47951656D01*
X130948419Y-47951661D01*
X130750427Y-48058808D01*
X130750422Y-48058812D01*
X130572761Y-48197092D01*
X130572756Y-48197097D01*
X130420284Y-48362723D01*
X130420276Y-48362734D01*
X130329808Y-48501206D01*
X130276662Y-48546562D01*
X130207431Y-48555986D01*
X130144095Y-48526484D01*
X130122192Y-48501206D01*
X130031723Y-48362734D01*
X130031715Y-48362723D01*
X129879243Y-48197097D01*
X129879238Y-48197092D01*
X129701577Y-48058812D01*
X129701572Y-48058808D01*
X129503580Y-47951661D01*
X129503577Y-47951659D01*
X129503574Y-47951658D01*
X129503571Y-47951657D01*
X129503569Y-47951656D01*
X129290637Y-47878556D01*
X129068569Y-47841500D01*
X128843431Y-47841500D01*
X128621362Y-47878556D01*
X128408430Y-47951656D01*
X128408419Y-47951661D01*
X128210427Y-48058808D01*
X128210422Y-48058812D01*
X128032761Y-48197092D01*
X128032756Y-48197097D01*
X127880284Y-48362723D01*
X127880276Y-48362734D01*
X127786251Y-48506650D01*
X127733105Y-48552007D01*
X127663873Y-48561430D01*
X127600538Y-48531928D01*
X127580868Y-48509951D01*
X127454113Y-48328926D01*
X127454108Y-48328920D01*
X127287082Y-48161894D01*
X127093578Y-48026399D01*
X126879492Y-47926570D01*
X126879486Y-47926567D01*
X126666000Y-47869364D01*
X126666000Y-48766988D01*
X126608993Y-48734075D01*
X126481826Y-48700000D01*
X126350174Y-48700000D01*
X126223007Y-48734075D01*
X126166000Y-48766988D01*
X126166000Y-47869364D01*
X126165999Y-47869364D01*
X125952513Y-47926567D01*
X125952507Y-47926570D01*
X125738422Y-48026399D01*
X125738420Y-48026400D01*
X125544926Y-48161886D01*
X125544920Y-48161891D01*
X125377891Y-48328920D01*
X125377890Y-48328922D01*
X125251131Y-48509952D01*
X125196554Y-48553577D01*
X125127055Y-48560769D01*
X125064701Y-48529247D01*
X125045752Y-48506656D01*
X124951722Y-48362732D01*
X124951715Y-48362725D01*
X124951715Y-48362723D01*
X124799243Y-48197097D01*
X124799238Y-48197092D01*
X124621577Y-48058812D01*
X124621572Y-48058808D01*
X124423580Y-47951661D01*
X124423577Y-47951659D01*
X124423574Y-47951658D01*
X124423571Y-47951657D01*
X124423569Y-47951656D01*
X124210637Y-47878556D01*
X123988569Y-47841500D01*
X123763431Y-47841500D01*
X123541362Y-47878556D01*
X123328430Y-47951656D01*
X123328419Y-47951661D01*
X123130427Y-48058808D01*
X123130422Y-48058812D01*
X122952761Y-48197092D01*
X122952756Y-48197097D01*
X122800284Y-48362723D01*
X122800276Y-48362734D01*
X122709808Y-48501206D01*
X122656662Y-48546562D01*
X122587431Y-48555986D01*
X122524095Y-48526484D01*
X122502192Y-48501206D01*
X122411723Y-48362734D01*
X122411715Y-48362723D01*
X122259243Y-48197097D01*
X122259238Y-48197092D01*
X122081577Y-48058812D01*
X122081572Y-48058808D01*
X121883580Y-47951661D01*
X121883577Y-47951659D01*
X121883574Y-47951658D01*
X121883571Y-47951657D01*
X121883569Y-47951656D01*
X121670637Y-47878556D01*
X121448569Y-47841500D01*
X121223431Y-47841500D01*
X121001362Y-47878556D01*
X120788430Y-47951656D01*
X120788419Y-47951661D01*
X120590427Y-48058808D01*
X120590422Y-48058812D01*
X120412761Y-48197092D01*
X120349548Y-48265760D01*
X120289661Y-48301750D01*
X120219823Y-48299649D01*
X120162207Y-48260124D01*
X120142138Y-48225110D01*
X120096889Y-48103796D01*
X120063214Y-48058812D01*
X120009261Y-47986739D01*
X119892204Y-47899111D01*
X119755203Y-47848011D01*
X119694654Y-47841500D01*
X119694638Y-47841500D01*
X117897362Y-47841500D01*
X117897345Y-47841500D01*
X117836797Y-47848011D01*
X117836795Y-47848011D01*
X117699795Y-47899111D01*
X117582739Y-47986739D01*
X117495111Y-48103795D01*
X117444011Y-48240795D01*
X117444011Y-48240797D01*
X117437500Y-48301345D01*
X100075500Y-48301345D01*
X100075500Y-47428092D01*
X100076097Y-47415938D01*
X100087494Y-47300222D01*
X100092234Y-47276389D01*
X100124216Y-47170959D01*
X100133508Y-47148526D01*
X100185442Y-47051365D01*
X100198938Y-47031166D01*
X100268827Y-46946006D01*
X100286006Y-46928827D01*
X100371166Y-46858938D01*
X100391365Y-46845442D01*
X100488526Y-46793508D01*
X100510959Y-46784216D01*
X100616389Y-46752234D01*
X100640220Y-46747494D01*
X100755939Y-46736097D01*
X100768093Y-46735500D01*
X100786531Y-46735500D01*
X163417365Y-46735500D01*
X163484404Y-46755185D01*
G37*
%TD.AperFunction*%
%TD*%
M02*
