%TF.GenerationSoftware,KiCad,Pcbnew,8.0.8*%
%TF.CreationDate,2025-03-12T20:50:06-06:00*%
%TF.ProjectId,UnoShieldFinalProject,556e6f53-6869-4656-9c64-46696e616c50,rev?*%
%TF.SameCoordinates,Original*%
%TF.FileFunction,Copper,L1,Top*%
%TF.FilePolarity,Positive*%
%FSLAX46Y46*%
G04 Gerber Fmt 4.6, Leading zero omitted, Abs format (unit mm)*
G04 Created by KiCad (PCBNEW 8.0.8) date 2025-03-12 20:50:06*
%MOMM*%
%LPD*%
G01*
G04 APERTURE LIST*
%TA.AperFunction,ComponentPad*%
%ADD10R,1.700000X1.700000*%
%TD*%
%TA.AperFunction,ComponentPad*%
%ADD11O,1.700000X1.700000*%
%TD*%
%TA.AperFunction,ComponentPad*%
%ADD12O,1.100000X2.200000*%
%TD*%
%TA.AperFunction,ComponentPad*%
%ADD13R,1.800000X1.800000*%
%TD*%
%TA.AperFunction,ComponentPad*%
%ADD14C,1.800000*%
%TD*%
%TA.AperFunction,ComponentPad*%
%ADD15R,1.879600X1.879600*%
%TD*%
%TA.AperFunction,ComponentPad*%
%ADD16C,1.879600*%
%TD*%
%TA.AperFunction,ComponentPad*%
%ADD17C,2.400000*%
%TD*%
%TA.AperFunction,ComponentPad*%
%ADD18O,2.400000X2.400000*%
%TD*%
%TA.AperFunction,ComponentPad*%
%ADD19R,1.508000X1.508000*%
%TD*%
%TA.AperFunction,ComponentPad*%
%ADD20C,1.508000*%
%TD*%
%TA.AperFunction,ComponentPad*%
%ADD21C,3.216000*%
%TD*%
%TA.AperFunction,ComponentPad*%
%ADD22C,3.516000*%
%TD*%
%TA.AperFunction,Conductor*%
%ADD23C,0.250000*%
%TD*%
G04 APERTURE END LIST*
D10*
%TO.P,J1,1,Pin_1*%
%TO.N,unconnected-(J1-Pin_1-Pad1)*%
X127940000Y-97460000D03*
D11*
%TO.P,J1,2,Pin_2*%
%TO.N,/IOREF*%
X130480000Y-97460000D03*
%TO.P,J1,3,Pin_3*%
%TO.N,/Reset*%
X133020000Y-97460000D03*
%TO.P,J1,4,Pin_4*%
%TO.N,+3V3*%
X135560000Y-97460000D03*
%TO.P,J1,5,Pin_5*%
%TO.N,+5V*%
X138100000Y-97460000D03*
%TO.P,J1,6,Pin_6*%
%TO.N,GND*%
X140640000Y-97460000D03*
%TO.P,J1,7,Pin_7*%
X143180000Y-97460000D03*
%TO.P,J1,8,Pin_8*%
%TO.N,VCC*%
X145720000Y-97460000D03*
%TD*%
D10*
%TO.P,J3,1,Pin_1*%
%TO.N,/A0*%
X150800000Y-97460000D03*
D11*
%TO.P,J3,2,Pin_2*%
%TO.N,/A1*%
X153340000Y-97460000D03*
%TO.P,J3,3,Pin_3*%
%TO.N,/A2*%
X155880000Y-97460000D03*
%TO.P,J3,4,Pin_4*%
%TO.N,/A3*%
X158420000Y-97460000D03*
%TO.P,J3,5,Pin_5*%
%TO.N,/SDA{slash}A4*%
X160960000Y-97460000D03*
%TO.P,J3,6,Pin_6*%
%TO.N,/SCL{slash}A5*%
X163500000Y-97460000D03*
%TD*%
D10*
%TO.P,J2,1,Pin_1*%
%TO.N,/SCL{slash}A5*%
X118796000Y-49200000D03*
D11*
%TO.P,J2,2,Pin_2*%
%TO.N,/SDA{slash}A4*%
X121336000Y-49200000D03*
%TO.P,J2,3,Pin_3*%
%TO.N,/AREF*%
X123876000Y-49200000D03*
%TO.P,J2,4,Pin_4*%
%TO.N,GND*%
X126416000Y-49200000D03*
%TO.P,J2,5,Pin_5*%
%TO.N,/13*%
X128956000Y-49200000D03*
%TO.P,J2,6,Pin_6*%
%TO.N,/12*%
X131496000Y-49200000D03*
%TO.P,J2,7,Pin_7*%
%TO.N,/\u002A11*%
X134036000Y-49200000D03*
%TO.P,J2,8,Pin_8*%
%TO.N,/\u002A10*%
X136576000Y-49200000D03*
%TO.P,J2,9,Pin_9*%
%TO.N,/\u002A9*%
X139116000Y-49200000D03*
%TO.P,J2,10,Pin_10*%
%TO.N,/8*%
X141656000Y-49200000D03*
%TD*%
D10*
%TO.P,J4,1,Pin_1*%
%TO.N,/7*%
X145720000Y-49200000D03*
D11*
%TO.P,J4,2,Pin_2*%
%TO.N,/\u002A6*%
X148260000Y-49200000D03*
%TO.P,J4,3,Pin_3*%
%TO.N,/\u002A5*%
X150800000Y-49200000D03*
%TO.P,J4,4,Pin_4*%
%TO.N,/4*%
X153340000Y-49200000D03*
%TO.P,J4,5,Pin_5*%
%TO.N,/\u002A3*%
X155880000Y-49200000D03*
%TO.P,J4,6,Pin_6*%
%TO.N,/2*%
X158420000Y-49200000D03*
%TO.P,J4,7,Pin_7*%
%TO.N,/TX{slash}1*%
X160960000Y-49200000D03*
%TO.P,J4,8,Pin_8*%
%TO.N,/RX{slash}0*%
X163500000Y-49200000D03*
%TD*%
D12*
%TO.P,U2,1,+VS*%
%TO.N,+5V*%
X143730000Y-93000000D03*
%TO.P,U2,2,VOUT*%
%TO.N,/A0*%
X145000000Y-93000000D03*
%TO.P,U2,3,GND*%
%TO.N,GND*%
X146270000Y-93000000D03*
%TD*%
D13*
%TO.P,D4,1,K*%
%TO.N,GND*%
X145000000Y-81540000D03*
D14*
%TO.P,D4,2,A*%
%TO.N,Net-(D4-A)*%
X145000000Y-79000000D03*
%TD*%
D15*
%TO.P,U1,1,BLK*%
%TO.N,GND*%
X160245000Y-83350000D03*
D16*
%TO.P,U1,2,GND*%
X160245000Y-80810000D03*
%TO.P,U1,3,VCC*%
%TO.N,+5V*%
X160245000Y-78270000D03*
%TO.P,U1,4,TXO*%
%TO.N,/TX{slash}1*%
X160245000Y-75730000D03*
%TO.P,U1,5,RXI*%
%TO.N,/RX{slash}0*%
X160245000Y-73190000D03*
%TO.P,U1,6,GRN*%
%TO.N,/Reset*%
X160245000Y-70650000D03*
%TD*%
D17*
%TO.P,R3,1*%
%TO.N,Net-(D3-A)*%
X148000000Y-66700000D03*
D18*
%TO.P,R3,2*%
%TO.N,/4*%
X148000000Y-54000000D03*
%TD*%
D13*
%TO.P,D2,1,K*%
%TO.N,GND*%
X153000000Y-81500000D03*
D14*
%TO.P,D2,2,A*%
%TO.N,Net-(D2-A)*%
X153000000Y-78960000D03*
%TD*%
D17*
%TO.P,R2,1*%
%TO.N,Net-(D2-A)*%
X153000000Y-66700000D03*
D18*
%TO.P,R2,2*%
%TO.N,/\u002A3*%
X153000000Y-54000000D03*
%TD*%
D17*
%TO.P,R4,1*%
%TO.N,Net-(D4-A)*%
X143000000Y-66700000D03*
D18*
%TO.P,R4,2*%
%TO.N,/\u002A5*%
X143000000Y-54000000D03*
%TD*%
D17*
%TO.P,R5,1*%
%TO.N,Net-(D5-A)*%
X138000000Y-66500000D03*
D18*
%TO.P,R5,2*%
%TO.N,/\u002A6*%
X138000000Y-53800000D03*
%TD*%
D19*
%TO.P,U3,1,VIN*%
%TO.N,+5V*%
X126985000Y-70620000D03*
D20*
%TO.P,U3,2,3VO*%
%TO.N,unconnected-(U3-3VO-Pad2)*%
X126985000Y-68080000D03*
%TO.P,U3,3,GND*%
%TO.N,GND*%
X126985000Y-65540000D03*
%TO.P,U3,4,SCK*%
%TO.N,/SCL{slash}A5*%
X126985000Y-63000000D03*
%TO.P,U3,5,SDO*%
%TO.N,unconnected-(U3-SDO-Pad5)*%
X126985000Y-60460000D03*
%TO.P,U3,6,SDI*%
%TO.N,/SDA{slash}A4*%
X126985000Y-57920000D03*
%TO.P,U3,7,CS*%
%TO.N,unconnected-(U3-CS-Pad7)*%
X126985000Y-55380000D03*
D21*
%TO.P,U3,P1*%
%TO.N,N/C*%
X113015000Y-69350000D03*
%TO.P,U3,P2*%
X113015000Y-56650000D03*
%TD*%
D19*
%TO.P,U4,1,A*%
%TO.N,unconnected-(U4-A-Pad1)*%
X127850000Y-75610000D03*
D20*
%TO.P,U4,2,SDA*%
%TO.N,/SDA{slash}A4*%
X127850000Y-78150000D03*
%TO.P,U4,3,SCL*%
%TO.N,/SCL{slash}A5*%
X127850000Y-80690000D03*
%TO.P,U4,4,I1*%
%TO.N,unconnected-(U4-I1-Pad4)*%
X127850000Y-83230000D03*
%TO.P,U4,5,I2*%
%TO.N,unconnected-(U4-I2-Pad5)*%
X127850000Y-85770000D03*
%TO.P,U4,6,3VO*%
%TO.N,unconnected-(U4-3VO-Pad6)*%
X127850000Y-88310000D03*
%TO.P,U4,7,GND*%
%TO.N,GND*%
X127850000Y-90850000D03*
%TO.P,U4,8,VIN*%
%TO.N,+5V*%
X127850000Y-93390000D03*
D22*
%TO.P,U4,P1*%
%TO.N,N/C*%
X115150000Y-92120000D03*
%TO.P,U4,P2*%
X115150000Y-76880000D03*
%TD*%
D13*
%TO.P,D6,1,K*%
%TO.N,GND*%
X137500000Y-81500000D03*
D14*
%TO.P,D6,2,A*%
%TO.N,Net-(D6-A)*%
X137500000Y-78960000D03*
%TD*%
D17*
%TO.P,R1,1*%
%TO.N,Net-(D1-A)*%
X158000000Y-66850000D03*
D18*
%TO.P,R1,2*%
%TO.N,/2*%
X158000000Y-54150000D03*
%TD*%
D13*
%TO.P,D3,1,K*%
%TO.N,GND*%
X145000000Y-73775000D03*
D14*
%TO.P,D3,2,A*%
%TO.N,Net-(D3-A)*%
X145000000Y-71235000D03*
%TD*%
D13*
%TO.P,D1,1,K*%
%TO.N,GND*%
X153000000Y-73775000D03*
D14*
%TO.P,D1,2,A*%
%TO.N,Net-(D1-A)*%
X153000000Y-71235000D03*
%TD*%
D13*
%TO.P,D5,1,K*%
%TO.N,GND*%
X137500000Y-73775000D03*
D14*
%TO.P,D5,2,A*%
%TO.N,Net-(D5-A)*%
X137500000Y-71235000D03*
%TD*%
D17*
%TO.P,R6,1*%
%TO.N,Net-(D6-A)*%
X133000000Y-66850000D03*
D18*
%TO.P,R6,2*%
%TO.N,/7*%
X133000000Y-54150000D03*
%TD*%
D23*
%TO.N,+5V*%
X130000000Y-55000000D02*
X130000000Y-67605000D01*
X128050000Y-53050000D02*
X130000000Y-55000000D01*
X126050000Y-53050000D02*
X128050000Y-53050000D01*
X130000000Y-67605000D02*
X126985000Y-70620000D01*
X121272701Y-47475000D02*
X122701000Y-48903299D01*
X114525482Y-47475000D02*
X121272701Y-47475000D01*
X122701000Y-49701000D02*
X126050000Y-53050000D01*
X113515000Y-48485482D02*
X114525482Y-47475000D01*
X122701000Y-48903299D02*
X122701000Y-49701000D01*
X113515000Y-49914518D02*
X113515000Y-48485482D01*
X122300241Y-88300241D02*
X122300241Y-58699759D01*
X122300241Y-58699759D02*
X113515000Y-49914518D01*
X127390000Y-93390000D02*
X122300241Y-88300241D01*
X127850000Y-93390000D02*
X127390000Y-93390000D01*
%TO.N,/SDA{slash}A4*%
X120161000Y-48025000D02*
X121336000Y-49200000D01*
X117000000Y-49754000D02*
X117000000Y-48500000D01*
X117000000Y-48500000D02*
X117475000Y-48025000D01*
X125166000Y-57920000D02*
X117000000Y-49754000D01*
X126985000Y-57920000D02*
X125166000Y-57920000D01*
X117475000Y-48025000D02*
X120161000Y-48025000D01*
%TO.N,/SCL{slash}A5*%
X123096000Y-53500000D02*
X118796000Y-49200000D01*
X129000000Y-62051317D02*
X129000000Y-55000000D01*
X129000000Y-55000000D02*
X127500000Y-53500000D01*
X127500000Y-53500000D02*
X123096000Y-53500000D01*
X128051317Y-63000000D02*
X129000000Y-62051317D01*
X126985000Y-63000000D02*
X128051317Y-63000000D01*
%TO.N,/SDA{slash}A4*%
X124000000Y-75800000D02*
X126350000Y-78150000D01*
X124000000Y-64459063D02*
X124000000Y-75800000D01*
X126538063Y-61921000D02*
X124000000Y-64459063D01*
X127431937Y-61921000D02*
X126538063Y-61921000D01*
X128064000Y-61288937D02*
X127431937Y-61921000D01*
X128064000Y-58999000D02*
X128064000Y-61288937D01*
X126985000Y-57920000D02*
X128064000Y-58999000D01*
%TO.N,/SCL{slash}A5*%
X125000000Y-70602000D02*
X125000000Y-64985000D01*
X130000000Y-75602000D02*
X125000000Y-70602000D01*
X125000000Y-64985000D02*
X126985000Y-63000000D01*
X127850000Y-80690000D02*
X130000000Y-78540000D01*
X130000000Y-78540000D02*
X130000000Y-75602000D01*
%TO.N,+5V*%
X136590000Y-80225000D02*
X126985000Y-70620000D01*
X158290000Y-80225000D02*
X136590000Y-80225000D01*
X160245000Y-78270000D02*
X158290000Y-80225000D01*
%TO.N,/SCL{slash}A5*%
X126000000Y-82540000D02*
X127850000Y-80690000D01*
X126000000Y-88500000D02*
X126000000Y-82540000D01*
X126889000Y-89389000D02*
X126000000Y-88500000D01*
X155429000Y-89389000D02*
X126889000Y-89389000D01*
X163500000Y-97460000D02*
X155429000Y-89389000D01*
%TO.N,/SDA{slash}A4*%
X126350000Y-78150000D02*
X127850000Y-78150000D01*
X125500000Y-79000000D02*
X126350000Y-78150000D01*
X125500000Y-80000000D02*
X125500000Y-79000000D01*
X125000000Y-80500000D02*
X125500000Y-80000000D01*
X126000000Y-91000000D02*
X126000000Y-90000000D01*
X127000000Y-92000000D02*
X126000000Y-91000000D01*
X126000000Y-90000000D02*
X125000000Y-89000000D01*
X129000000Y-92000000D02*
X127000000Y-92000000D01*
X154155000Y-90655000D02*
X130345000Y-90655000D01*
X160960000Y-97460000D02*
X154155000Y-90655000D01*
X130345000Y-90655000D02*
X129000000Y-92000000D01*
X125000000Y-89000000D02*
X125000000Y-80500000D01*
%TO.N,/Reset*%
X168000000Y-94621701D02*
X168000000Y-78405000D01*
X163986701Y-98635000D02*
X168000000Y-94621701D01*
X134195000Y-98635000D02*
X163986701Y-98635000D01*
X133020000Y-97460000D02*
X134195000Y-98635000D01*
X168000000Y-78405000D02*
X160245000Y-70650000D01*
%TO.N,+5V*%
X134030000Y-93390000D02*
X138100000Y-97460000D01*
X127850000Y-93390000D02*
X134030000Y-93390000D01*
%TO.N,/A0*%
X148910000Y-97460000D02*
X150800000Y-97460000D01*
X145000000Y-93550000D02*
X148910000Y-97460000D01*
X145000000Y-93000000D02*
X145000000Y-93550000D01*
%TO.N,+5V*%
X143730000Y-93000000D02*
X142560000Y-93000000D01*
X142560000Y-93000000D02*
X138100000Y-97460000D01*
%TO.N,/RX{slash}0*%
X161500000Y-67500000D02*
X162500000Y-67500000D01*
X158980200Y-70019800D02*
X161500000Y-67500000D01*
X163500000Y-66500000D02*
X163500000Y-49200000D01*
X158980200Y-71925200D02*
X158980200Y-70019800D01*
X160245000Y-73190000D02*
X158980200Y-71925200D01*
X162500000Y-67500000D02*
X163500000Y-66500000D01*
%TO.N,/TX{slash}1*%
X158000000Y-70000000D02*
X160960000Y-67040000D01*
X158000000Y-75000000D02*
X158000000Y-70000000D01*
X158730000Y-75730000D02*
X158000000Y-75000000D01*
X160245000Y-75730000D02*
X158730000Y-75730000D01*
X160960000Y-67040000D02*
X160960000Y-49200000D01*
%TO.N,Net-(D6-A)*%
X133000000Y-74460000D02*
X137500000Y-78960000D01*
X133000000Y-66850000D02*
X133000000Y-74460000D01*
%TO.N,Net-(D5-A)*%
X138000000Y-70735000D02*
X137500000Y-71235000D01*
X138000000Y-66500000D02*
X138000000Y-70735000D01*
%TO.N,Net-(D4-A)*%
X143000000Y-77000000D02*
X145000000Y-79000000D01*
X143000000Y-66700000D02*
X143000000Y-77000000D01*
%TO.N,Net-(D3-A)*%
X145000000Y-69700000D02*
X145000000Y-71235000D01*
X148000000Y-66700000D02*
X145000000Y-69700000D01*
%TO.N,Net-(D2-A)*%
X151000000Y-76960000D02*
X153000000Y-78960000D01*
X151000000Y-68700000D02*
X151000000Y-76960000D01*
X153000000Y-66700000D02*
X151000000Y-68700000D01*
%TO.N,Net-(D1-A)*%
X153615000Y-71235000D02*
X153000000Y-71235000D01*
X158000000Y-66850000D02*
X153615000Y-71235000D01*
%TO.N,/\u002A6*%
X145100000Y-50375000D02*
X143000000Y-52475000D01*
X139325000Y-52475000D02*
X138000000Y-53800000D01*
X147085000Y-50375000D02*
X145100000Y-50375000D01*
X148260000Y-49200000D02*
X147085000Y-50375000D01*
X143000000Y-52475000D02*
X139325000Y-52475000D01*
%TO.N,/7*%
X135650000Y-51500000D02*
X133000000Y-54150000D01*
X145300000Y-49200000D02*
X143000000Y-51500000D01*
X143000000Y-51500000D02*
X135650000Y-51500000D01*
X145720000Y-49200000D02*
X145300000Y-49200000D01*
%TO.N,/\u002A5*%
X145000000Y-52000000D02*
X143000000Y-54000000D01*
X147843324Y-52000000D02*
X145000000Y-52000000D01*
X150643324Y-49200000D02*
X147843324Y-52000000D01*
X150800000Y-49200000D02*
X150643324Y-49200000D01*
%TO.N,/4*%
X148540000Y-54000000D02*
X148000000Y-54000000D01*
X153340000Y-49200000D02*
X148540000Y-54000000D01*
%TO.N,/\u002A3*%
X153000000Y-52080000D02*
X155880000Y-49200000D01*
X153000000Y-54000000D02*
X153000000Y-52080000D01*
%TO.N,/2*%
X158000000Y-49620000D02*
X158420000Y-49200000D01*
X158000000Y-54150000D02*
X158000000Y-49620000D01*
%TD*%
M02*
